<svg width="143" height="36" viewBox="0 0 143 36" fill="none" xmlns="http://www.w3.org/2000/svg">
<path d="M25.4016 20.5366C25.8498 20.4555 26.2963 20.3737 26.7396 20.2724C26.25 8.24518 29.0954 9.41321 20.5424 9.46719C22.0434 -3.18335 4.71806 -3.12322 6.21443 9.45258C-2.26333 9.38829 0.557324 8.43455 0.102179 20.0869C0.137854 22.9915 0.0531696 29.5643 0.0990791 32.3798C0.628503 37.8072 7.78125 35.5346 11.2698 34.7681C4.16103 33.5524 1.58589 24.0561 6.29741 18.9084C14.1296 10.2744 26.7199 19.9408 21.8513 30.0021C23.4502 29.0563 25.4567 27.5814 26.7493 26.2572C26.738 24.6631 26.7113 23.0642 26.7534 21.4709C26.3085 21.1508 25.8579 20.8396 25.4016 20.5366ZM8.35064 13.5768C8.20455 14.8921 6.46143 15.3626 5.71354 14.2485C5.11736 13.2916 5.04796 11.5535 6.14227 10.913C6.39352 11.1277 5.98666 12.3604 6.39352 12.7761C7.64051 13.5866 7.67716 11.6628 7.55808 10.8684C8.5271 11.422 8.41944 12.6172 8.35064 13.5768ZM7.52809 9.45586C6.09297 -1.37691 20.6658 -1.40078 19.2077 9.46316C16.3234 9.45641 10.4284 9.45369 7.52809 9.45586ZM21.3164 13.5663C21.1703 14.8815 19.4271 15.3521 18.6793 14.238C18.0831 13.2811 18.0137 11.5431 19.108 10.9025C19.3592 11.1172 18.9524 12.3499 19.3592 12.7656C20.6062 13.576 20.6429 11.6523 20.5238 10.8579C21.4928 11.4114 21.3851 12.6067 21.3164 13.5663Z" fill="black"/>
<path d="M19.6232 31.0522C20.5229 30.208 21.1353 28.8045 21.4055 27.6176C21.5173 27.1165 21.5898 26.6098 21.6231 26.0975C20.6986 26.0982 19.7711 26.0837 18.8469 26.1022C18.6562 28.6488 18.2382 30.394 17.0176 32.6416C17.6096 32.2412 18.264 31.9432 18.8805 31.5827C19.1378 31.4198 19.4002 31.2613 19.6232 31.0522Z" fill="black"/>
<path d="M8.06472 31.9064C8.27363 32.0835 8.49061 32.2502 8.71565 32.4064C8.94066 32.5626 9.17271 32.7076 9.41173 32.8414C9.63873 32.9583 9.86377 33.0828 10.1014 33.1767C8.75022 30.9575 8.07942 28.6669 7.97966 26.0723C7.38198 26.0764 6.78342 26.0736 6.18592 26.0851L5.17188 26.1014C5.3587 28.3356 6.33201 30.4523 8.06472 31.9064Z" fill="black"/>
<path d="M21.613 24.7243C21.4636 22.5053 20.3957 20.2564 18.7129 18.794C18.1804 18.3313 17.1303 17.4852 16.4453 17.3018C16.7539 17.7788 17.0803 18.253 17.3495 18.7535C18.3462 20.6069 18.7597 22.6428 18.848 24.7276L21.613 24.7243Z" fill="black"/>
<path d="M10.1581 17.454C10.0919 17.4872 10.0262 17.5213 9.96076 17.5561C9.8954 17.591 9.83047 17.6267 9.76595 17.6631C9.70144 17.6995 9.63736 17.7367 9.57374 17.7746C9.51008 17.8126 9.44692 17.8513 9.3842 17.8908C9.32151 17.9303 9.25929 17.9704 9.19754 18.0113C9.13579 18.0523 9.07455 18.094 9.01382 18.1364C8.95305 18.1788 8.89278 18.2219 8.83311 18.2658C8.77344 18.3097 8.71424 18.3543 8.65555 18.3995C8.59694 18.4448 8.53884 18.4908 8.48121 18.5374C8.42366 18.5841 8.36671 18.6314 8.31031 18.6795C8.25391 18.7275 8.19807 18.7762 8.14281 18.8255C8.08756 18.8749 8.0329 18.9249 7.97888 18.9756C7.92482 19.0262 7.87135 19.0775 7.81852 19.1295C7.76569 19.1814 7.71349 19.2339 7.66193 19.2872C7.61033 19.3404 7.55941 19.3942 7.50909 19.4486C7.45884 19.503 7.4092 19.558 7.36023 19.6136C7.31126 19.6692 7.26297 19.7254 7.21532 19.7821C7.16772 19.8389 7.12079 19.8962 7.07454 19.9541C7.02825 20.0119 6.98268 20.0703 6.93783 20.1293C6.89298 20.1883 6.84885 20.2478 6.80541 20.3078C6.76196 20.3678 6.71928 20.4283 6.67728 20.4894C6.63523 20.5504 6.594 20.6119 6.55352 20.674C6.51301 20.736 6.47321 20.7985 6.43414 20.8615C6.39515 20.9245 6.35689 20.9879 6.31939 21.0518C6.28189 21.1157 6.24515 21.1801 6.20918 21.2448C6.17321 21.3096 6.13804 21.3748 6.10368 21.4404C6.06928 21.506 6.03565 21.572 6.00278 21.6385C5.96995 21.7048 5.93788 21.7717 5.90667 21.8389C5.87545 21.9061 5.84505 21.9736 5.8154 22.0415C5.7858 22.1095 5.75701 22.1777 5.72902 22.2463C5.70103 22.3149 5.67389 22.3838 5.64756 22.4531C5.44643 22.9972 5.10404 24.1316 5.17055 24.6882L5.20223 24.7253L7.94181 24.7218C8.15267 22.0209 8.827 19.6404 10.3918 17.3958L10.3579 17.3564C10.2909 17.3882 10.2243 17.4207 10.1581 17.454Z" fill="black"/>
<path d="M9.37647 24.7246L12.6452 24.7224C12.6465 23.9343 12.6929 17.0914 12.6021 16.9873C10.6776 18.7982 9.39214 21.8588 9.33761 24.5136C9.33587 24.5977 9.32729 24.6532 9.37647 24.7246Z" fill="black"/>
<path d="M9.30469 26.0777C9.47728 28.7648 10.1576 31.7241 12.2599 33.5883C12.3616 33.6785 12.509 33.8344 12.65 33.8296C12.6351 31.2441 12.6425 28.6587 12.6723 26.0732L9.30469 26.0777Z" fill="black"/>
<path d="M15.66 32.1656C16.8661 30.3395 17.4079 28.2328 17.5181 26.066L14.1191 26.0659L14.1152 33.9702C14.7206 33.4139 15.1961 32.8412 15.66 32.1656Z" fill="black"/>
<path d="M14.382 17.1234C14.3003 17.0457 14.2193 16.9779 14.1162 16.9297L14.1055 24.7264L17.5111 24.7233C17.4278 21.9007 16.4545 19.0945 14.382 17.1234Z" fill="black"/>
<path d="M37.0077 28.9963C36.5263 28.6608 36.0806 28.2232 35.6308 27.8447C34.8698 27.2166 34.1129 26.5837 33.3609 25.9451C33.3106 26.0318 33.2588 26.1185 33.2053 26.2052C30.4539 30.686 24.465 34.4584 22.4382 35.6497H11.3008C11.4272 35.6165 11.552 35.5832 11.6768 35.5468C12.7579 35.2355 13.8252 34.8806 14.8779 34.4835C18.8359 32.9997 22.9625 30.5028 26.0915 27.6445C27.5705 26.2935 28.9352 24.774 30.2513 23.2658C29.2513 22.3452 28.0284 21.6863 26.9651 20.8435C30.1508 19.9221 33.2822 18.8005 36.4598 17.8467C36.4744 18.5031 36.5433 19.1587 36.57 19.8151L37.0077 28.9963Z" fill="black"/>
<path d="M48.96 30.112C48.1813 30.112 47.4773 29.9787 46.848 29.712C46.2293 29.4453 45.7387 29.0613 45.376 28.56C45.0133 28.0587 44.8267 27.4667 44.816 26.784H47.216C47.248 27.2427 47.408 27.6053 47.696 27.872C47.9947 28.1387 48.4 28.272 48.912 28.272C49.4347 28.272 49.8453 28.1493 50.144 27.904C50.4427 27.648 50.592 27.3173 50.592 26.912C50.592 26.5813 50.4907 26.3093 50.288 26.096C50.0853 25.8827 49.8293 25.7173 49.52 25.6C49.2213 25.472 48.8053 25.3333 48.272 25.184C47.5467 24.9707 46.9547 24.7627 46.496 24.56C46.048 24.3467 45.6587 24.032 45.328 23.616C45.008 23.1893 44.848 22.624 44.848 21.92C44.848 21.2587 45.0133 20.6827 45.344 20.192C45.6747 19.7013 46.1387 19.328 46.736 19.072C47.3333 18.8053 48.016 18.672 48.784 18.672C49.936 18.672 50.8693 18.9547 51.584 19.52C52.3093 20.0747 52.7093 20.8533 52.784 21.856H50.32C50.2987 21.472 50.1333 21.1573 49.824 20.912C49.5253 20.656 49.1253 20.528 48.624 20.528C48.1867 20.528 47.8347 20.64 47.568 20.864C47.312 21.088 47.184 21.4133 47.184 21.84C47.184 22.1387 47.28 22.3893 47.472 22.592C47.6747 22.784 47.92 22.944 48.208 23.072C48.5067 23.1893 48.9227 23.328 49.456 23.488C50.1813 23.7013 50.7733 23.9147 51.232 24.128C51.6907 24.3413 52.0853 24.6613 52.416 25.088C52.7467 25.5147 52.912 26.0747 52.912 26.768C52.912 27.3653 52.7573 27.92 52.448 28.432C52.1387 28.944 51.6853 29.3547 51.088 29.664C50.4907 29.9627 49.7813 30.112 48.96 30.112ZM59.846 21.008C60.518 21.008 61.1153 21.1573 61.638 21.456C62.1607 21.744 62.566 22.176 62.854 22.752C63.1527 23.3173 63.302 24 63.302 24.8V30H61.062V25.104C61.062 24.4 60.886 23.8613 60.534 23.488C60.182 23.104 59.702 22.912 59.094 22.912C58.4753 22.912 57.9847 23.104 57.622 23.488C57.27 23.8613 57.094 24.4 57.094 25.104V30H54.854V18.16H57.094V22.24C57.382 21.856 57.766 21.5573 58.246 21.344C58.726 21.12 59.2593 21.008 59.846 21.008ZM69.3681 30.144C68.5148 30.144 67.7468 29.9573 67.0641 29.584C66.3815 29.2 65.8428 28.6613 65.4481 27.968C65.0641 27.2747 64.8721 26.4747 64.8721 25.568C64.8721 24.6613 65.0695 23.8613 65.4641 23.168C65.8695 22.4747 66.4188 21.9413 67.1121 21.568C67.8055 21.184 68.5788 20.992 69.4321 20.992C70.2855 20.992 71.0588 21.184 71.7521 21.568C72.4455 21.9413 72.9895 22.4747 73.3841 23.168C73.7895 23.8613 73.9921 24.6613 73.9921 25.568C73.9921 26.4747 73.7841 27.2747 73.3681 27.968C72.9628 28.6613 72.4081 29.2 71.7041 29.584C71.0108 29.9573 70.2321 30.144 69.3681 30.144ZM69.3681 28.192C69.7735 28.192 70.1521 28.096 70.5041 27.904C70.8668 27.7013 71.1548 27.4027 71.3681 27.008C71.5815 26.6133 71.6881 26.1333 71.6881 25.568C71.6881 24.7253 71.4641 24.08 71.0161 23.632C70.5788 23.1733 70.0401 22.944 69.4001 22.944C68.7601 22.944 68.2215 23.1733 67.7841 23.632C67.3575 24.08 67.1441 24.7253 67.1441 25.568C67.1441 26.4107 67.3521 27.0613 67.7681 27.52C68.1948 27.968 68.7281 28.192 69.3681 28.192ZM77.8753 22.416C78.1633 22.0107 78.5579 21.6747 79.0593 21.408C79.5713 21.1307 80.1526 20.992 80.8033 20.992C81.5606 20.992 82.2433 21.1787 82.8513 21.552C83.4699 21.9253 83.9553 22.4587 84.3073 23.152C84.6699 23.8347 84.8513 24.6293 84.8513 25.536C84.8513 26.4427 84.6699 27.248 84.3073 27.952C83.9553 28.6453 83.4699 29.184 82.8513 29.568C82.2433 29.952 81.5606 30.144 80.8033 30.144C80.1526 30.144 79.5766 30.0107 79.0753 29.744C78.5846 29.4773 78.1846 29.1413 77.8753 28.736V34.224H75.6353V21.136H77.8753V22.416ZM82.5633 25.536C82.5633 25.0027 82.4513 24.544 82.2273 24.16C82.0139 23.7653 81.7259 23.4667 81.3633 23.264C81.0113 23.0613 80.6273 22.96 80.2113 22.96C79.8059 22.96 79.4219 23.0667 79.0593 23.28C78.7073 23.4827 78.4193 23.7813 78.1953 24.176C77.9819 24.5707 77.8753 25.0347 77.8753 25.568C77.8753 26.1013 77.9819 26.5653 78.1953 26.96C78.4193 27.3547 78.7073 27.6587 79.0593 27.872C79.4219 28.0747 79.8059 28.176 80.2113 28.176C80.6273 28.176 81.0113 28.0693 81.3633 27.856C81.7259 27.6427 82.0139 27.3387 82.2273 26.944C82.4513 26.5493 82.5633 26.08 82.5633 25.536ZM98.0675 22.192C97.8115 21.7227 97.4595 21.3653 97.0115 21.12C96.5635 20.8747 96.0408 20.752 95.4435 20.752C94.7822 20.752 94.1955 20.9013 93.6835 21.2C93.1715 21.4987 92.7715 21.9253 92.4835 22.48C92.1955 23.0347 92.0515 23.6747 92.0515 24.4C92.0515 25.1467 92.1955 25.7973 92.4835 26.352C92.7822 26.9067 93.1928 27.3333 93.7155 27.632C94.2382 27.9307 94.8462 28.08 95.5395 28.08C96.3928 28.08 97.0915 27.856 97.6355 27.408C98.1795 26.9493 98.5368 26.3147 98.7075 25.504H94.8675V23.792H100.916V25.744C100.766 26.5227 100.446 27.2427 99.9555 27.904C99.4648 28.5653 98.8302 29.0987 98.0515 29.504C97.2835 29.8987 96.4195 30.096 95.4595 30.096C94.3822 30.096 93.4062 29.856 92.5315 29.376C91.6675 28.8853 90.9848 28.208 90.4835 27.344C89.9928 26.48 89.7475 25.4987 89.7475 24.4C89.7475 23.3013 89.9928 22.32 90.4835 21.456C90.9848 20.5813 91.6675 19.904 92.5315 19.424C93.4062 18.9333 94.3768 18.688 95.4435 18.688C96.7022 18.688 97.7955 18.9973 98.7235 19.616C99.6515 20.224 100.292 21.0827 100.644 22.192H98.0675ZM104.813 18.16V30H102.573V18.16H104.813ZM110.962 30.144C110.109 30.144 109.341 29.9573 108.658 29.584C107.975 29.2 107.437 28.6613 107.042 27.968C106.658 27.2747 106.466 26.4747 106.466 25.568C106.466 24.6613 106.663 23.8613 107.058 23.168C107.463 22.4747 108.013 21.9413 108.706 21.568C109.399 21.184 110.173 20.992 111.026 20.992C111.879 20.992 112.653 21.184 113.346 21.568C114.039 21.9413 114.583 22.4747 114.978 23.168C115.383 23.8613 115.586 24.6613 115.586 25.568C115.586 26.4747 115.378 27.2747 114.962 27.968C114.557 28.6613 114.002 29.2 113.298 29.584C112.605 29.9573 111.826 30.144 110.962 30.144ZM110.962 28.192C111.367 28.192 111.746 28.096 112.098 27.904C112.461 27.7013 112.749 27.4027 112.962 27.008C113.175 26.6133 113.282 26.1333 113.282 25.568C113.282 24.7253 113.058 24.08 112.61 23.632C112.173 23.1733 111.634 22.944 110.994 22.944C110.354 22.944 109.815 23.1733 109.378 23.632C108.951 24.08 108.738 24.7253 108.738 25.568C108.738 26.4107 108.946 27.0613 109.362 27.52C109.789 27.968 110.322 28.192 110.962 28.192ZM119.469 22.432C119.757 22.0053 120.152 21.6587 120.653 21.392C121.165 21.1253 121.746 20.992 122.397 20.992C123.154 20.992 123.837 21.1787 124.445 21.552C125.064 21.9253 125.549 22.4587 125.901 23.152C126.264 23.8347 126.445 24.6293 126.445 25.536C126.445 26.4427 126.264 27.248 125.901 27.952C125.549 28.6453 125.064 29.184 124.445 29.568C123.837 29.952 123.154 30.144 122.397 30.144C121.736 30.144 121.154 30.016 120.653 29.76C120.162 29.4933 119.768 29.152 119.469 28.736V30H117.229V18.16H119.469V22.432ZM124.157 25.536C124.157 25.0027 124.045 24.544 123.821 24.16C123.608 23.7653 123.32 23.4667 122.957 23.264C122.605 23.0613 122.221 22.96 121.805 22.96C121.4 22.96 121.016 23.0667 120.653 23.28C120.301 23.4827 120.013 23.7813 119.789 24.176C119.576 24.5707 119.469 25.0347 119.469 25.568C119.469 26.1013 119.576 26.5653 119.789 26.96C120.013 27.3547 120.301 27.6587 120.653 27.872C121.016 28.0747 121.4 28.176 121.805 28.176C122.221 28.176 122.605 28.0693 122.957 27.856C123.32 27.6427 123.608 27.3387 123.821 26.944C124.045 26.5493 124.157 26.08 124.157 25.536ZM127.497 25.536C127.497 24.64 127.673 23.8453 128.025 23.152C128.387 22.4587 128.873 21.9253 129.481 21.552C130.099 21.1787 130.787 20.992 131.545 20.992C132.206 20.992 132.782 21.1253 133.273 21.392C133.774 21.6587 134.174 21.9947 134.473 22.4V21.136H136.729V30H134.473V28.704C134.185 29.12 133.785 29.4667 133.273 29.744C132.771 30.0107 132.19 30.144 131.529 30.144C130.782 30.144 130.099 29.952 129.481 29.568C128.873 29.184 128.387 28.6453 128.025 27.952C127.673 27.248 127.497 26.4427 127.497 25.536ZM134.473 25.568C134.473 25.024 134.366 24.56 134.153 24.176C133.939 23.7813 133.651 23.4827 133.289 23.28C132.926 23.0667 132.537 22.96 132.121 22.96C131.705 22.96 131.321 23.0613 130.969 23.264C130.617 23.4667 130.329 23.7653 130.105 24.16C129.891 24.544 129.785 25.0027 129.785 25.536C129.785 26.0693 129.891 26.5387 130.105 26.944C130.329 27.3387 130.617 27.6427 130.969 27.856C131.331 28.0693 131.715 28.176 132.121 28.176C132.537 28.176 132.926 28.0747 133.289 27.872C133.651 27.6587 133.939 27.36 134.153 26.976C134.366 26.5813 134.473 26.112 134.473 25.568ZM141.157 18.16V30H138.917V18.16H141.157Z" fill="black"/>
</svg>
