<svg width="93" height="93" viewBox="0 0 93 93" fill="none" xmlns="http://www.w3.org/2000/svg">
<path d="M10.4492 52.334C10.4492 52.334 12.2617 47.1653 17.5691 49.2797C17.5691 49.2797 14.4925 30.9015 26.751 31.1849C32.8775 31.3266 34.2036 40.5088 34.2036 40.5088C34.2036 40.5088 36.0775 33.3096 41.7118 35.1833C46.0793 36.6359 45.207 44.5026 45.207 44.5026C45.207 44.5026 48.9018 37.176 56.1362 41.602C59.8442 43.8706 60.6765 52.334 60.6765 52.334H10.4492Z" fill="#F4F2F2"/>
<path d="M48.6768 52.3351C47.8804 50.648 46.3826 49.5098 44.6602 49.5098C42.9403 49.5098 41.4416 50.648 40.6445 52.3351H48.6768Z" fill="#ECE8E7"/>
<path d="M75.0927 52.3531C75.3491 51.0162 75.4783 49.658 75.4786 48.2968C75.4786 38.4079 68.8509 30.3887 60.6776 30.3887C52.5009 30.3887 45.873 38.4079 45.873 48.2968C45.873 49.6926 46.0094 51.0491 46.2589 52.3531H75.0929H75.0927Z" fill="#ECE8E7"/>
<path d="M81.3942 54.6124C81.3942 55.563 80.6235 56.3339 79.6726 56.3339H19.6482C18.6975 56.3339 17.9266 55.563 17.9266 54.6122C17.9266 53.6615 18.6975 52.8906 19.6482 52.8906H79.6726C80.6235 52.8906 81.3942 53.6615 81.3942 54.6122V54.6124ZM75.981 71.9887L85.443 78.3044H6.76172L16.2238 71.9888L75.981 71.9887Z" fill="#F4F2F2"/>
<path d="M16.2246 56.1152H75.982V71.9909H16.2246V56.1152Z" fill="#F4F2F2"/>
<path d="M66.3033 70.3339C66.3033 70.3339 66.5562 71.1023 66.3601 71.2982C65.9329 71.7257 64.1429 71.7731 63.6931 71.3681C63.4964 71.1909 63.5221 70.5444 63.6899 70.423C63.8576 70.3019 66.3033 70.3339 66.3033 70.3339Z" fill="#2A2A51"/>
<path d="M75.9815 56.1152V56.8483H19.6478C19.0655 56.8483 18.5507 56.5581 18.2383 56.1152H75.9815ZM73.4541 67.4851V69.2191C73.4541 69.3206 73.4138 69.418 73.342 69.4898C73.2702 69.5617 73.1727 69.602 73.0712 69.602H68.6268C68.5765 69.602 68.5267 69.5921 68.4802 69.5729C68.4337 69.5536 68.3915 69.5254 68.356 69.4898C68.3204 69.4543 68.2922 69.4121 68.2729 69.3656C68.2537 69.3191 68.2438 69.2693 68.2438 69.2191V67.4851C68.2438 67.3836 68.2842 67.2862 68.356 67.2145C68.4278 67.1427 68.5252 67.1023 68.6268 67.1023H73.0712C73.1727 67.1023 73.2701 67.1427 73.3419 67.2145C73.4137 67.2862 73.4541 67.3836 73.4541 67.4851Z" fill="#ECE8E7"/>
<path d="M70.558 64.9845V66.7186C70.558 66.8201 70.5176 66.9176 70.4458 66.9894C70.374 67.0612 70.2766 67.1015 70.175 67.1015H65.7305C65.6289 67.1015 65.5316 67.0611 65.4598 66.9893C65.388 66.9175 65.3477 66.8201 65.3477 66.7186V64.9845C65.3477 64.883 65.388 64.7856 65.4598 64.7138C65.5316 64.642 65.6289 64.6016 65.7305 64.6016H70.175C70.2766 64.6016 70.374 64.6419 70.4458 64.7137C70.5176 64.7855 70.558 64.883 70.558 64.9845Z" fill="#ECE8E7"/>
<path d="M73.6516 62.4826V64.2165C73.6516 64.318 73.6113 64.4154 73.5395 64.4872C73.4677 64.559 73.3703 64.5994 73.2688 64.5994H68.8242C68.7227 64.5994 68.6253 64.559 68.5535 64.4872C68.4817 64.4154 68.4414 64.318 68.4414 64.2165V62.4826C68.4414 62.381 68.4817 62.2836 68.5535 62.2118C68.6253 62.14 68.7227 62.0997 68.8242 62.0996H73.2688C73.3704 62.0996 73.4678 62.14 73.5396 62.2118C73.6114 62.2836 73.6516 62.381 73.6516 62.4826Z" fill="#ECE8E7"/>
<path d="M66.841 53.0625C65.4978 56.3896 66.4476 67.5633 66.6642 69.9007C66.6873 70.145 66.5183 70.3648 66.277 70.4062L65.7314 70.5L63.6599 70.855C63.4355 70.8934 63.2158 70.7643 63.1405 70.5507C62.5473 68.8818 60.1285 61.928 59.1572 56.6724C58.2905 51.9807 60.6971 47.3551 61.7958 45.5525C62.1032 45.0469 62.3076 44.7626 62.3076 44.7626L66.0173 44.5859L67.1591 44.5305L69.0339 44.4414C69.1276 44.7749 69.1906 45.0961 69.2275 45.4096C69.2537 45.6339 69.2659 45.8537 69.2659 46.0719C69.2629 48.2064 68.0488 50.069 66.841 53.0625Z" fill="#444577"/>
<path d="M69.225 45.4096C68.8992 45.1314 68.3537 44.9132 68.3537 44.9132L66.8477 44.7027L67.1581 44.5305L69.0329 44.4414C69.1266 44.7749 69.1897 45.0961 69.225 45.4096Z" fill="#2A2A51"/>
<path d="M66.842 53.0608C65.4989 56.3879 66.4486 67.5615 66.6653 69.8989C66.6883 70.1433 66.5193 70.363 66.278 70.4045L65.7325 70.4983L65.6987 70.4937C64.0244 62.4967 64.1653 57.0172 64.871 48.9878C64.9786 47.7643 64.4468 46.5721 63.2592 46.2589C62.2066 45.9813 61.8382 45.5789 61.7969 45.5506C62.1042 45.045 62.3086 44.7607 62.3086 44.7607L66.0183 44.584L66.8497 44.7008L68.3557 44.9113C68.3557 44.9113 68.9012 45.1295 69.227 45.4077H69.2286C69.2547 45.632 69.267 45.8518 69.267 46.07C69.2639 48.2046 68.0499 50.0672 66.842 53.0608Z" fill="#2A2A51"/>
<path d="M69.265 46.0725C69.265 45.8543 69.2527 45.6345 69.2266 45.4102C69.4724 45.6192 69.5938 45.862 69.265 46.0725Z" fill="#2A2A51"/>
<path d="M65.256 70.5699C65.2446 70.5699 65.2334 70.5664 65.224 70.5599C65.2146 70.5535 65.2075 70.5443 65.2034 70.5336C61.3221 60.309 64.7971 47.1102 65.5331 44.5683C65.6076 44.311 65.652 44.1735 65.652 44.1735C65.6567 44.1594 65.6668 44.1477 65.68 44.1409C65.6933 44.1342 65.7087 44.1329 65.7228 44.1374C65.737 44.142 65.7487 44.152 65.7555 44.1653C65.7623 44.1785 65.7636 44.1939 65.7591 44.2081C65.759 44.2087 65.7147 44.3449 65.6409 44.5995C64.9067 47.1354 61.4399 60.3026 65.3084 70.4936C65.3117 70.5021 65.3128 70.5113 65.3117 70.5204C65.3107 70.5294 65.3074 70.538 65.3022 70.5456C65.2971 70.5531 65.2902 70.5592 65.2821 70.5634C65.2741 70.5677 65.2651 70.5699 65.256 70.5699Z" fill="#010114"/>
<path d="M42.3158 66.6212V68.3551C42.3158 68.4567 42.2755 68.5541 42.2037 68.6259C42.1319 68.6977 42.0345 68.7381 41.933 68.7381H37.4884C37.3869 68.7381 37.2895 68.6978 37.2176 68.6259C37.1458 68.5541 37.1055 68.4567 37.1055 68.3551V66.6212C37.1055 66.5197 37.1458 66.4223 37.2176 66.3504C37.2895 66.2786 37.3869 66.2383 37.4884 66.2383H41.933C42.0346 66.2383 42.132 66.2786 42.2038 66.3504C42.2756 66.4223 42.316 66.5197 42.316 66.6212H42.3158Z" fill="#ECE8E7"/>
<path d="M39.4174 64.1212V65.8551C39.4174 65.9567 39.377 66.0541 39.3052 66.1259C39.2334 66.1978 39.136 66.2381 39.0344 66.2381H34.59C34.4884 66.2381 34.391 66.1978 34.3192 66.1259C34.2474 66.0541 34.207 65.9567 34.207 65.8551V64.1212C34.207 64.0197 34.2474 63.9223 34.3192 63.8504C34.391 63.7786 34.4884 63.7383 34.59 63.7383H39.0344C39.136 63.7383 39.2334 63.7786 39.3052 63.8504C39.377 63.9223 39.4174 64.0197 39.4174 64.1212Z" fill="#ECE8E7"/>
<path d="M42.511 61.6212V63.3551C42.511 63.4567 42.4706 63.5541 42.3988 63.6259C42.327 63.6978 42.2296 63.7381 42.128 63.7381H37.6837C37.5822 63.7381 37.4848 63.6978 37.4129 63.6259C37.3411 63.5541 37.3008 63.4567 37.3008 63.3551V61.6212C37.3008 61.5197 37.3411 61.4223 37.4129 61.3504C37.4848 61.2786 37.5822 61.2383 37.6837 61.2383H42.1282C42.2297 61.2383 42.3271 61.2786 42.3989 61.3504C42.4708 61.4223 42.5111 61.5197 42.5111 61.6212H42.511ZM58.3284 62.5768V64.3107C58.3284 64.4122 58.288 64.5096 58.2163 64.5814C58.1445 64.6532 58.0471 64.6936 57.9456 64.6937H53.501C53.3995 64.6936 53.3021 64.6532 53.2303 64.5814C53.1585 64.5096 53.1182 64.4122 53.1182 64.3107V62.5768C53.1182 62.4752 53.1585 62.3779 53.2303 62.306C53.3021 62.2342 53.3995 62.1939 53.501 62.1938H57.9456C58.0471 62.1938 58.1445 62.2342 58.2164 62.306C58.2882 62.3778 58.3285 62.4752 58.3285 62.5768H58.3284Z" fill="#ECE8E7"/>
<path d="M55.4291 60.0783V61.8122C55.4291 61.9137 55.3888 62.0111 55.317 62.0829C55.2452 62.1547 55.1478 62.1951 55.0463 62.1951H50.6017C50.5001 62.1951 50.4027 62.1548 50.3309 62.083C50.2591 62.0112 50.2188 61.9137 50.2188 61.8122V60.0783C50.2188 59.9767 50.2591 59.8793 50.3309 59.8075C50.4027 59.7357 50.5001 59.6953 50.6017 59.6953H55.0463C55.1478 59.6954 55.2452 59.7357 55.317 59.8075C55.3888 59.8793 55.4291 59.9767 55.4291 60.0783Z" fill="#ECE8E7"/>
<path d="M6.76172 78.3058H85.443V78.7138H6.76172V78.3058ZM81.2158 75.4842L75.981 71.9902H16.2238L10.989 75.4842H81.2158Z" fill="#DAD8D9"/>
<path d="M50.2646 72.7091C50.2646 73.0315 48.3686 73.2912 46.0278 73.2912C43.6871 73.2912 41.791 73.0315 41.791 72.7091C41.791 72.3884 43.6874 72.127 46.0278 72.127C48.3683 72.127 50.2646 72.3884 50.2646 72.7091Z" fill="#ECE8E7"/>
<path d="M45.0547 60.803C45.0425 60.8112 45.0279 60.8149 45.0133 60.8137C45.0112 60.8295 45.0034 60.844 44.9914 60.8545C44.9795 60.865 44.9641 60.8708 44.9482 60.8709H44.9468C44.8922 60.8709 41.2311 60.8217 41.0793 55.7236C41.0793 55.7062 41.066 54.1787 40.3908 53.5807C40.179 53.3943 39.9206 53.317 39.6237 53.353C38.1601 53.5274 37.638 54.6807 37.6327 54.6915C37.6264 54.706 37.6152 54.7178 37.6011 54.7248C37.587 54.7319 37.5708 54.7337 37.5555 54.7299C37.5402 54.7257 37.5268 54.7162 37.5178 54.703C37.5087 54.6899 37.5046 54.674 37.5062 54.6582C37.5088 54.6368 37.7859 52.4873 40.6092 52.2183C43.4538 51.9467 46.3013 54.3599 46.6381 56.5239C46.9432 58.4803 46.4104 59.9201 45.0547 60.803ZM54.0136 59.1382C54.0127 59.154 54.0064 59.1691 53.9957 59.1807C53.985 59.1924 53.9706 59.2 53.9549 59.2022C53.9389 59.2047 53.9226 59.2011 53.9091 59.1923C53.8955 59.1834 53.8858 59.1698 53.8817 59.1542C53.8803 59.1462 53.6154 58.2567 52.5686 57.9837C52.3596 57.929 52.1676 57.9583 51.9972 58.0714C51.4471 58.4378 51.2848 59.5498 51.2834 59.5605C50.7548 62.7155 48.749 62.9736 48.107 62.9736C47.9859 62.9736 47.9127 62.9644 47.9087 62.963C47.8954 62.9612 47.8829 62.9554 47.8729 62.9464C47.863 62.9374 47.8559 62.9255 47.8528 62.9125C47.8435 62.91 47.8348 62.9054 47.8274 62.8992C46.9164 62.1094 46.6687 60.9948 47.091 59.583C47.5585 58.0222 49.901 56.5319 51.9679 57.0181C54.0256 57.5028 54.0136 59.1222 54.0136 59.1382Z" fill="#717CD3"/>
<path d="M54.0139 59.1379C54.0131 59.1537 54.0068 59.1687 53.9961 59.1804C53.9853 59.192 53.9709 59.1996 53.9552 59.2018C53.9393 59.2043 53.9229 59.2008 53.9094 59.1919C53.8959 59.183 53.8862 59.1695 53.8821 59.1538C53.8807 59.1458 53.6158 58.2564 52.5689 57.9833C52.4986 57.9642 52.426 57.9552 52.3532 57.9566C52.5196 57.8087 52.8273 57.601 53.2307 57.6103C54.0205 58.2656 54.0139 59.1259 54.0139 59.1379ZM47.4148 67.8504C47.3882 67.8504 47.3626 67.8398 47.3437 67.821C47.3247 67.8022 47.314 67.7766 47.3139 67.7499C47.3113 67.3607 47.3027 58.2054 51.5929 57.2085C51.6061 57.2049 51.6197 57.2041 51.6332 57.2059C51.6466 57.2078 51.6596 57.2124 51.6712 57.2193C51.6829 57.2263 51.693 57.2356 51.701 57.2465C51.709 57.2575 51.7147 57.27 51.7178 57.2832C51.7208 57.2964 51.7212 57.3101 51.7189 57.3235C51.7165 57.3369 51.7115 57.3496 51.7042 57.361C51.6968 57.3724 51.6872 57.3822 51.676 57.3898C51.6647 57.3974 51.6521 57.4027 51.6387 57.4053C47.5044 58.3661 47.5155 67.6548 47.5161 67.7487C47.5162 67.7755 47.5057 67.8012 47.4869 67.8203C47.468 67.8393 47.4424 67.8501 47.4156 67.8503H47.415L47.4148 67.8504ZM45.0163 68.0723C45.0019 68.0723 44.9876 68.0693 44.9745 68.0633C44.9614 68.0574 44.9497 68.0487 44.9402 68.0379C44.9306 68.0271 44.9235 68.0144 44.9193 68.0006C44.9151 67.9868 44.9139 67.9723 44.9158 67.958C44.9327 67.8298 46.5312 55.1259 39.7677 52.8687C39.744 52.8589 39.7249 52.8405 39.7142 52.8172C39.7036 52.7938 39.7022 52.7673 39.7103 52.743C39.7184 52.7187 39.7355 52.6983 39.7581 52.6861C39.7806 52.6739 39.807 52.6706 39.8318 52.6771C46.7531 54.9868 45.1336 67.8547 45.1165 67.9844C45.1133 68.0087 45.1013 68.031 45.0829 68.0472C45.0645 68.0634 45.0408 68.0723 45.0163 68.0723Z" fill="#646DC7"/>
<path d="M40.3283 53.529C40.1285 53.3799 39.8914 53.32 39.6237 53.3518C38.1601 53.5262 37.638 54.6796 37.6327 54.6903C37.6264 54.7048 37.6152 54.7166 37.6011 54.7237C37.587 54.7307 37.5708 54.7325 37.5555 54.7287C37.5402 54.7245 37.5268 54.715 37.5178 54.7018C37.5087 54.6887 37.5046 54.6728 37.5062 54.657C37.5088 54.6384 37.7192 53.0042 39.641 52.4062C39.85 52.6168 40.0938 52.9616 40.3283 53.529ZM46.1788 68.6466C46.1635 68.6465 46.1484 68.643 46.1347 68.6363C46.1209 68.6296 46.1089 68.6199 46.0994 68.6079C46.09 68.5959 46.0833 68.5819 46.0801 68.5669C46.0768 68.552 46.0769 68.5365 46.0804 68.5216C46.1567 68.2081 46.2387 67.8951 46.3197 67.585C46.701 66.1303 47.061 64.7564 46.7231 63.6552C46.7161 63.6298 46.7193 63.6026 46.732 63.5795C46.7447 63.5564 46.7659 63.5391 46.7911 63.5314C46.8164 63.5237 46.8436 63.5262 46.8671 63.5382C46.8905 63.5503 46.9083 63.571 46.9167 63.5961C47.2711 64.7521 46.904 66.153 46.5153 67.6362C46.4345 67.945 46.3528 68.2568 46.2772 68.5693C46.2718 68.5913 46.2591 68.6109 46.2413 68.6249C46.2235 68.6389 46.2015 68.6465 46.1788 68.6466Z" fill="#646DC7"/>
<path d="M46.3567 61.2677C46.3473 61.2917 46.326 61.3076 46.3008 61.3104C45.1287 61.4355 44.4562 62.2466 43.5332 64.6478C42.8434 66.443 42.4652 67.1062 41.766 67.1062C41.7168 67.1062 41.6649 67.1036 41.6115 67.097C41.2933 67.0583 40.9948 66.9079 40.7285 66.6587C40.4622 66.4098 40.2265 66.0622 40.0361 65.6281C39.4433 64.2788 39.406 62.4198 39.9562 61.65C40.7619 60.5233 41.9977 60.8683 42.1989 60.9334C44.8917 59.659 46.3287 61.1839 46.3433 61.1985C46.3513 61.208 46.3567 61.2193 46.359 61.2314C46.3614 61.2435 46.3606 61.256 46.3567 61.2677Z" fill="#717CD3"/>
<path d="M46.8904 63.6776C46.8857 63.6867 46.8789 63.6946 46.8706 63.7006C46.8623 63.7066 46.8526 63.7106 46.8425 63.7122H46.8317C46.8144 63.7121 46.7978 63.7054 46.7852 63.6936C46.7719 63.6816 45.4334 62.4058 44.4613 62.604C44.4486 62.6068 44.4354 62.6057 44.4234 62.601C44.4113 62.5963 44.4009 62.5882 44.3934 62.5776C44.386 62.5669 44.3819 62.5542 44.3817 62.5412C44.3814 62.5281 44.385 62.5153 44.392 62.5043C44.9234 61.6573 45.4908 61.2605 46.2885 61.1766C46.3028 61.1751 46.3171 61.1778 46.3298 61.1846C46.343 61.1938 47.7495 62.0568 46.8904 63.6776ZM41.1744 64.6813C41.1525 64.6812 41.1312 64.6741 41.1137 64.661C41.0962 64.6479 41.0834 64.6294 41.0772 64.6084C40.2022 61.6078 42.1526 60.9144 42.1723 60.9076C42.1977 60.8991 42.2255 60.901 42.2495 60.9129C42.2735 60.9248 42.2918 60.9458 42.3004 60.9712C42.309 60.9966 42.3071 61.0244 42.2952 61.0484C42.2832 61.0724 42.2623 61.0907 42.2369 61.0993C42.1636 61.1243 40.4527 61.7447 41.2715 64.5519C41.2759 64.5669 41.2767 64.5828 41.2739 64.5983C41.2711 64.6137 41.2647 64.6283 41.2553 64.6408C41.2458 64.6534 41.2336 64.6636 41.2196 64.6706C41.2055 64.6776 41.1901 64.6813 41.1744 64.6813Z" fill="#646DC7"/>
<path d="M48.6188 67.5041V70.0996C48.6188 71.4889 47.492 72.6154 46.1031 72.6154C45.7725 72.616 45.4449 72.5513 45.1393 72.4249C44.8338 72.2985 44.5562 72.113 44.3225 71.879C44.0885 71.6456 43.903 71.3683 43.7766 71.063C43.6502 70.7576 43.5854 70.4303 43.5859 70.0998V67.5042C43.5859 67.3217 43.7338 67.1738 43.9163 67.1738H48.2884C48.4709 67.1738 48.6188 67.3217 48.6188 67.5042V67.5041Z" fill="#717CD3"/>
<path d="M43.5859 68.0645H48.6188V69.0274H43.5859V68.0645Z" fill="#646DC7"/>
<path d="M21.9453 76.5375C21.9527 76.5375 21.9623 76.5375 21.972 76.5352V76.5375H21.9455H21.9453Z" fill="#F7CE8F"/>
<path d="M77.2025 69.2109C77.2025 69.2109 77.7302 69.8419 77.6187 70.1007C77.3754 70.665 75.7023 71.3824 75.1253 71.1687C74.8728 71.0752 74.6541 70.4548 74.7672 70.2771C74.8803 70.0995 77.2025 69.2109 77.2025 69.2109ZM73.8418 75.0725C74.0151 75.4573 74.4487 75.603 75.0103 75.4435C75.7941 75.2216 76.9556 74.1745 77.344 73.8069C77.4301 73.7245 77.533 73.6618 77.6457 73.6231C78.0617 73.474 79.1159 73.0683 79.414 72.6419C79.5978 72.3817 79.2476 71.8512 78.8974 71.4248C79.1574 71.7854 79.3516 72.1633 79.206 72.3714C78.9078 72.7978 77.8536 73.2069 77.441 73.3526C77.3274 73.3931 77.2235 73.4569 77.136 73.5399C76.7476 73.9074 75.586 74.9547 74.8023 75.1766C74.4001 75.2909 74.0639 75.2493 73.8418 75.0725Z" fill="#2A2A51"/>
<path d="M79.2099 72.3761C79.1923 72.4008 79.1725 72.4239 79.1509 72.4452C78.7973 72.8442 77.8333 73.2151 77.4414 73.3573C77.3278 73.396 77.2237 73.4586 77.1364 73.5411C76.7479 73.9087 75.5864 74.9558 74.8029 75.1777C74.5912 75.2367 74.4005 75.2539 74.2307 75.2297C73.6412 75.1499 73.3638 74.5813 73.7105 73.6625C73.7417 73.5758 73.7868 73.4925 73.8353 73.4128C74.1544 72.8927 74.7681 72.5078 74.9276 72.1125C75.0246 71.8697 74.9232 70.9809 74.9232 70.9809C75.1134 71.1399 77.7354 69.9374 77.606 69.8672L77.7431 70.039L78.1176 70.5418C78.1176 70.5418 79.5393 71.9044 79.2099 72.3761Z" fill="#EB695C"/>
<path d="M75.2288 72.0796C75.2425 72.0951 75.2559 72.1114 75.2632 72.1308C75.2706 72.1502 75.2706 72.1732 75.2588 72.1901C75.2384 72.2195 75.1947 72.2178 75.1598 72.2101C75.0787 72.1925 75.0012 72.161 74.9309 72.117C74.894 72.0941 74.8589 72.0673 74.8336 72.0324C74.8082 71.9976 74.7933 71.9532 74.8004 71.9104C74.8059 71.8763 74.835 71.8244 74.8748 71.8242C74.9132 71.8242 74.967 71.8665 74.9986 71.8858C75.0844 71.9387 75.1623 72.0042 75.2288 72.0796ZM75.0289 72.3964C75.0427 72.4117 75.0559 72.4282 75.0633 72.4474C75.0707 72.4666 75.0707 72.4898 75.0589 72.5068C75.0384 72.536 74.9949 72.5345 74.9599 72.5268C74.8788 72.5092 74.8013 72.4777 74.7309 72.4337C74.694 72.4106 74.659 72.3839 74.6336 72.349C74.6083 72.3141 74.5934 72.2697 74.6005 72.2272C74.606 72.193 74.635 72.1411 74.6748 72.1408C74.7132 72.1408 74.767 72.183 74.7987 72.2026C74.8844 72.2553 74.9624 72.3209 75.0289 72.3964ZM74.7741 72.7072C74.7876 72.7226 74.8012 72.739 74.8084 72.7584C74.8156 72.7776 74.8157 72.8007 74.8041 72.8177C74.7835 72.8471 74.74 72.8454 74.7049 72.8377C74.6238 72.8201 74.5464 72.7886 74.476 72.7446C74.4391 72.7215 74.4041 72.6949 74.3787 72.6599C74.3533 72.6249 74.3384 72.5806 74.3455 72.538C74.351 72.5039 74.3801 72.452 74.4199 72.4518C74.4583 72.4517 74.5121 72.4941 74.5437 72.5135C74.6295 72.5662 74.7074 72.6318 74.7741 72.7072Z" fill="#2A2A51"/>
<path d="M74.7024 74.3887C74.7033 74.5575 74.6602 74.7236 74.5775 74.8707C74.4948 75.0178 74.3752 75.1409 74.2306 75.2278C73.6412 75.148 73.3639 74.5794 73.7105 73.6606C73.7417 73.5739 73.7868 73.4906 73.8353 73.4109C74.3208 73.4664 74.7022 73.8825 74.7022 74.3887H74.7024ZM79.2099 72.3742C79.1923 72.3989 79.1725 72.422 79.1509 72.4433C79.1036 72.4475 79.0562 72.4499 79.0088 72.4504C78.1593 72.4504 77.4693 71.7604 77.4693 70.9109C77.4693 70.5883 77.5698 70.2867 77.7431 70.0371L78.1176 70.5399C78.1176 70.5399 79.5393 71.9026 79.2099 72.3742Z" fill="#F4BF6C"/>
<path d="M61.1016 74.469C61.12 74.8839 61.4633 75.1744 62.0348 75.2327C62.8318 75.3148 64.2739 74.7799 64.7625 74.5852C64.8712 74.5411 64.9881 74.5212 65.1052 74.5268C65.5395 74.5418 66.6504 74.5541 67.0781 74.2727C67.3406 74.1019 67.2134 73.4896 67.0482 72.9727C67.1548 73.3968 67.1949 73.8126 66.9862 73.95C66.5587 74.2312 65.4464 74.222 65.0164 74.2053C64.8978 74.2009 64.7796 74.2214 64.6694 74.2655C64.1809 74.4602 62.7385 74.9952 61.9417 74.9131C61.5325 74.8716 61.2402 74.7113 61.1016 74.469Z" fill="#2A2A51"/>
<path d="M66.9883 73.9543C66.9637 73.9701 66.9402 73.9827 66.9091 73.9963C66.441 74.2321 65.4251 74.2208 65.0153 74.2083C64.8972 74.2023 64.7793 74.2217 64.6695 74.2653C64.181 74.4602 62.7387 74.995 61.9418 74.9131C61.7271 74.89 61.5464 74.8365 61.4001 74.7526C60.8902 74.4654 60.8435 73.8449 61.4943 73.1311C61.5542 73.0631 61.6257 73.0035 61.6991 72.9482C62.1797 72.5889 62.8806 72.4601 63.1701 72.1568C63.347 71.9702 63.5773 71.121 63.5773 71.121C63.6933 71.3355 66.5271 71.1892 66.4341 71.0781L66.4971 71.285L66.6567 71.8808C66.6567 71.8808 67.4607 73.643 66.9883 73.9541V73.9543Z" fill="#EB695C"/>
<path d="M63.4588 72.2365C63.4655 72.2555 63.472 72.2754 63.4715 72.2956C63.4711 72.3159 63.4629 72.3371 63.446 72.3484C63.4167 72.3677 63.3775 72.3504 63.3481 72.3307C63.2804 72.2851 63.221 72.2281 63.1726 72.1623C63.1476 72.128 63.1252 72.0908 63.1147 72.0495C63.1043 72.0083 63.1067 71.9625 63.1285 71.9261C63.1462 71.8969 63.1915 71.86 63.228 71.8743C63.2633 71.8881 63.297 71.9465 63.3186 71.9757C63.378 72.0551 63.4254 72.1432 63.4588 72.2365ZM63.161 72.4532C63.1679 72.4724 63.1742 72.4922 63.1737 72.5125C63.1733 72.5328 63.1651 72.554 63.1482 72.565C63.1189 72.5846 63.0797 72.567 63.0503 72.5474C62.9825 72.5018 62.9232 72.4448 62.8748 72.3789C62.8498 72.3447 62.8273 72.3075 62.8169 72.2663C62.8064 72.2251 62.8089 72.1793 62.8307 72.1427C62.8484 72.1135 62.8937 72.0767 62.9301 72.0911C62.9655 72.1049 62.9991 72.1632 63.0208 72.1925C63.0801 72.2718 63.1276 72.3599 63.161 72.4532ZM62.8149 72.6448C62.8218 72.6638 62.8281 72.6837 62.8278 72.704C62.8275 72.7242 62.8192 72.7455 62.8021 72.7565C62.7729 72.776 62.7336 72.7585 62.7044 72.7388C62.6366 72.6933 62.5773 72.6364 62.5289 72.5706C62.5037 72.5363 62.4813 72.499 62.4708 72.4578C62.4604 72.4166 62.4628 72.3708 62.4846 72.3344C62.5023 72.3052 62.5477 72.2683 62.5842 72.2826C62.6194 72.2964 62.6531 72.3548 62.6749 72.384C62.7341 72.4633 62.7815 72.5515 62.8149 72.6448Z" fill="#2A2A51"/>
<path d="M62.136 74.1554C62.0755 74.31 61.9758 74.4461 61.8468 74.5505C61.7177 74.6549 61.5637 74.724 61.3999 74.7509C60.8902 74.4637 60.8435 73.8431 61.4943 73.1293C61.5542 73.0614 61.6257 73.0017 61.6991 72.9464C62.1227 73.1737 62.32 73.6927 62.136 74.1552V74.1554ZM66.9883 73.9525C66.9637 73.9684 66.9402 73.981 66.9092 73.9945C66.8667 73.9811 66.8211 73.9668 66.7767 73.949C66.0003 73.6403 65.6204 72.7588 65.9292 71.9823C66.0426 71.6967 66.2408 71.4527 66.4972 71.2832L66.6567 71.879C66.6567 71.879 67.4607 73.6412 66.9883 73.9524V73.9525Z" fill="#F4BF6C"/>
<path d="M66.0729 21.473L65.9104 23.508C65.8908 23.7528 66.9047 23.7691 66.9244 23.5243L67.0977 21.4492L66.0727 21.473H66.0729Z" fill="#444577"/>
<path d="M59.9023 19.1152C59.9297 19.1835 60.7933 20.2223 61.9522 20.2168C62.1194 20.216 61.9691 19.8314 61.9385 19.5483C61.7237 19.5449 61.5259 19.5449 61.3553 19.5552C60.7858 19.5859 60.1719 19.337 59.9023 19.1152Z" fill="#2A2A51"/>
<path d="M61.8956 20.4213C62.2127 21.3388 61.8627 23.4813 62.3727 23.9217C62.8984 24.3758 63.8088 24.1048 63.8088 24.1048V24.9371C64.8664 25.3675 65.8585 25.1507 66.7864 24.2993C66.4145 23.2692 67.2264 21.9186 67.1411 20.66C67.1207 20.3496 67.0489 20.0462 66.8888 19.7529C66.8888 19.7529 66.568 19.4391 66.0973 19.0469H61.817C61.742 19.5515 61.7762 20.07 61.8954 20.4213H61.8956Z" fill="#FFB0B0"/>
<path d="M65.3264 21.1464C65.5649 21.2355 66.445 19.7069 67.1409 20.66C67.1204 20.3496 67.0487 20.0462 66.8885 19.7529C66.8885 19.7529 66.5678 19.4391 66.0971 19.0469H65.3639L65.3536 19.0503C65.1446 19.5641 65.0105 21.0285 65.3264 21.1464Z" fill="#2A2A51"/>
<path d="M67.0603 19.9462C67.0554 19.9576 67.0482 19.9678 67.0391 19.9762C67.03 19.9846 67.0192 19.991 67.0075 19.995C66.9958 19.999 66.9833 20.0005 66.971 19.9994C66.9586 19.9983 66.9467 19.9946 66.9358 19.9886C66.7398 19.882 66.2102 19.6216 65.6361 19.5746C64.1818 19.4557 61.4297 18.3965 61.4297 18.3965C61.4297 18.3965 61.7785 15.9577 65.0204 16.4272C67.8098 16.8314 67.3595 19.2765 67.0603 19.9464V19.9462Z" fill="#EB695C"/>
<path d="M67.0577 19.9478C67.0527 19.9593 67.0453 19.9696 67.036 19.9781C67.0267 19.9865 67.0158 19.9928 67.0038 19.9967C66.9919 20.0006 66.9793 20.0018 66.9668 20.0005C66.9544 19.9991 66.9423 19.9951 66.9315 19.9887C66.7371 19.883 66.2085 19.6237 65.6321 19.5761C65.4779 19.561 65.3244 19.5405 65.1716 19.5146C65.424 18.8461 65.6765 17.1035 64.0769 16.37C64.3599 16.3598 64.6737 16.3769 65.0181 16.4281C67.8081 16.8305 67.3578 19.276 67.0577 19.9478ZM64.4007 19.2812C64.4007 19.2812 64.5128 19.5237 64.0031 19.5789C63.4934 19.6339 62.1191 19.5151 61.3545 19.5564C60.59 19.5978 59.7416 19.1332 59.7661 18.9113C59.8012 18.5963 61.4679 18.4102 61.4679 18.4102L64.4007 19.2812Z" fill="#E55851"/>
<path d="M63.8087 24.1032C63.8087 24.1032 65.0911 23.7882 65.4668 23.3401C65.8429 22.892 65.8664 24.2847 63.8087 24.5884V24.1032ZM63.838 20.7757C63.7477 20.7812 63.6607 20.8178 63.576 20.8562C63.4912 20.8945 63.4061 20.9352 63.3163 20.9497C63.2776 20.9558 63.2361 20.9564 63.2018 20.9334C63.1462 20.8959 63.1273 20.8023 63.15 20.7299C63.1728 20.6575 63.2284 20.6064 63.2883 20.5802C63.3483 20.5541 63.4128 20.5495 63.4763 20.5449L63.8107 20.5214C63.8735 20.5169 63.9375 20.5126 63.9985 20.532C64.0593 20.5513 64.1177 20.5984 64.1411 20.6697C64.1598 20.7265 64.14 20.889 64.0663 20.8542C64.0298 20.8372 64.0011 20.8051 63.9614 20.7915C63.9217 20.7784 63.8798 20.7731 63.838 20.7759V20.7757Z" fill="#2A2A51"/>
<path d="M63.503 21.6041C63.5973 21.6041 63.6739 21.5109 63.6739 21.3958C63.6739 21.2808 63.5973 21.1875 63.503 21.1875C63.4086 21.1875 63.332 21.2808 63.332 21.3958C63.332 21.5109 63.4086 21.6041 63.503 21.6041Z" fill="#2A2A51"/>
<path d="M62.5018 20.9945C62.4313 21 62.3635 21.0366 62.2971 21.0749C62.231 21.1133 62.1643 21.154 62.0943 21.1683C62.0641 21.1744 62.0317 21.1751 62.005 21.152C61.9615 21.1147 61.9466 21.0209 61.9644 20.9485C61.9822 20.8763 62.0259 20.8251 62.0724 20.799C62.1193 20.7729 62.1697 20.7681 62.2192 20.7637L62.4804 20.74C62.5296 20.7357 62.5796 20.7314 62.6272 20.7508C62.6748 20.77 62.7203 20.8171 62.7386 20.8883C62.7532 20.9452 62.7377 21.1077 62.6802 21.073C62.6516 21.0558 62.6292 21.0237 62.5983 21.0103C62.5679 20.9972 62.5348 20.9918 62.5018 20.9945Z" fill="#2A2A51"/>
<path d="M62.4326 21.7643C62.527 21.7643 62.6036 21.671 62.6036 21.556C62.6036 21.4409 62.527 21.3477 62.4326 21.3477C62.3382 21.3477 62.2617 21.4409 62.2617 21.556C62.2617 21.671 62.3382 21.7643 62.4326 21.7643Z" fill="#2A2A51"/>
<path d="M62.9415 22.2173C62.8862 22.2173 62.8221 22.2135 62.767 22.1767C62.704 22.1348 62.6585 22.0349 62.6915 21.9533C62.7142 21.8964 62.7634 21.8694 62.8069 21.8457C62.8483 21.823 62.8839 21.8033 62.8971 21.7624C62.912 21.7173 62.8931 21.6639 62.8747 21.6123L62.869 21.596C62.8176 21.4443 62.8063 21.2819 62.8363 21.1245C62.8393 21.1092 62.8546 21.0984 62.8693 21.1024C62.8847 21.1052 62.8945 21.1201 62.8916 21.1353C62.8633 21.2829 62.8739 21.4353 62.9222 21.5776L62.9277 21.5935C62.9483 21.6512 62.9713 21.7165 62.9508 21.7801C62.9303 21.8419 62.8791 21.87 62.834 21.8949C62.7937 21.9169 62.7591 21.9361 62.7438 21.9742C62.7213 22.0298 62.7545 22.1008 62.7982 22.13C62.8464 22.1623 62.9083 22.1617 62.9641 22.1611H62.9643C62.9717 22.161 62.9789 22.1639 62.9842 22.1692C62.9895 22.1744 62.9925 22.1816 62.9926 22.189C62.9926 22.1965 62.9897 22.2037 62.9844 22.209C62.9792 22.2143 62.972 22.2173 62.9646 22.2173H62.9415ZM62.8639 22.7201C62.7926 22.7201 62.7158 22.6955 62.6423 22.6239C62.6395 22.6214 62.6372 22.6184 62.6355 22.6149C62.6339 22.6115 62.633 22.6078 62.6328 22.604C62.6327 22.6002 62.6333 22.5964 62.6347 22.5928C62.636 22.5893 62.6381 22.586 62.6407 22.5833C62.6433 22.5806 62.6465 22.5784 62.65 22.5769C62.6535 22.5755 62.6573 22.5747 62.6611 22.5747C62.6649 22.5747 62.6686 22.5755 62.6721 22.577C62.6756 22.5786 62.6788 22.5808 62.6814 22.5835C62.8816 22.7779 63.1087 22.562 63.1184 22.5528C63.121 22.55 63.1242 22.5478 63.1277 22.5463C63.1311 22.5448 63.1349 22.544 63.1387 22.544C63.1425 22.544 63.1463 22.5447 63.1498 22.5462C63.1533 22.5477 63.1564 22.5498 63.1591 22.5526C63.1617 22.5553 63.1638 22.5585 63.1651 22.5621C63.1665 22.5656 63.1671 22.5694 63.1669 22.5732C63.1668 22.577 63.1659 22.5808 63.1642 22.5842C63.1626 22.5876 63.1603 22.5907 63.1574 22.5932C63.1558 22.5947 63.0241 22.7201 62.8639 22.7201Z" fill="#2A2A51"/>
<path d="M67.8381 45.4962C67.8381 45.4962 64.9578 52.1786 67.3453 57.8061C69.4322 62.7252 73.2999 68.9907 74.2407 70.4904C74.2992 70.5838 74.3888 70.6535 74.4938 70.6872C74.5987 70.721 74.7122 70.7166 74.8142 70.6748L77.272 69.6693C77.3812 69.6248 77.4695 69.5407 77.5193 69.4338C77.569 69.327 77.5766 69.2053 77.5405 69.093C76.8221 66.8582 73.4735 56.155 74.0633 52.6156C74.7233 48.6554 75.7717 46.4036 74.3352 43.7246L67.8381 45.4962Z" fill="#444577"/>
<path d="M76.677 69.9715C76.6676 69.9715 76.6585 69.9692 76.6503 69.9647C76.642 69.9603 76.6351 69.9539 76.63 69.9461C70.6253 60.8062 71.1568 47.1675 71.3243 44.5263C71.3414 44.2593 71.3551 44.1154 71.3551 44.1154C71.3565 44.1006 71.3637 44.0869 71.3752 44.0774C71.3867 44.0679 71.4015 44.0633 71.4164 44.0647C71.4312 44.0661 71.4449 44.0734 71.4544 44.0849C71.464 44.0964 71.4685 44.1112 71.4671 44.126C71.4671 44.1265 71.4533 44.2689 71.4364 44.5336C71.2692 47.1685 70.739 60.7743 76.724 69.8845C76.7296 69.8929 76.7328 69.9028 76.7332 69.9129C76.7337 69.923 76.7313 69.9331 76.7265 69.942C76.7217 69.951 76.7145 69.9584 76.7058 69.9636C76.6971 69.9688 76.6871 69.9715 76.677 69.9715Z" fill="#010114"/>
<path d="M71.3021 48.7359C71.292 48.7359 71.2821 48.7332 71.2735 48.728C71.2648 48.7229 71.2576 48.7155 71.2528 48.7067L69.6065 45.6847C69.5993 45.6716 69.5977 45.6562 69.6019 45.6419C69.6061 45.6276 69.6159 45.6155 69.629 45.6084C69.6421 45.6013 69.6575 45.5996 69.6718 45.6039C69.6861 45.6081 69.6981 45.6178 69.7053 45.6309L71.3516 48.6529C71.3562 48.6615 71.3585 48.6711 71.3583 48.6809C71.3581 48.6906 71.3554 48.7001 71.3504 48.7085C71.3454 48.7168 71.3383 48.7238 71.3299 48.7286C71.3214 48.7334 71.3118 48.7359 71.3021 48.7359Z" fill="#010114"/>
<path d="M64.0773 44.3663C64.0773 44.3663 62.5891 45.4139 61.3683 45.126C61.0717 45.0564 60.7906 44.9103 60.5501 44.6497C59.3227 43.3188 60.024 30.7904 60.2781 28.5805C60.4332 27.2251 61.6494 26.4225 62.5643 26.0043C63.1422 25.7391 63.6007 25.6289 63.6007 25.6289L64.0771 44.3663H64.0773Z" fill="#EB695C"/>
<path d="M61.7213 28.3126C60.6917 30.1852 60.4512 32.4759 61.0739 34.5195C61.3774 35.5199 61.8763 36.4641 62.0584 37.4914C62.2249 38.4356 62.1147 39.4022 62.0068 40.3531C61.8653 41.5693 61.7257 42.7855 61.5864 44.0016C61.5415 44.3815 61.4965 44.766 61.3683 45.1256C61.0717 45.056 60.7906 44.9099 60.5501 44.6492C59.3227 43.3184 60.024 30.7899 60.2781 28.5801C60.4332 27.2247 61.6494 26.4221 62.5643 26.0039C62.6071 26.2713 62.5711 26.5929 62.4294 26.9728C62.2542 27.4471 61.9664 27.8698 61.7213 28.3126Z" fill="#E55851"/>
<path d="M66.7378 24.0609C66.0155 24.3517 65.6891 24.8719 63.7067 24.7775C63.5685 24.7709 63.435 24.8407 63.3752 24.9655C63.2773 25.1689 63.1914 25.521 63.3904 25.9912C63.3904 25.9912 61.7825 43.8408 62.2786 44.8116C62.7747 45.7824 68.1714 45.1609 68.1714 45.1609C68.1714 45.1609 67.1578 24.7207 67.1925 24.7207C67.2272 24.7207 67.1484 23.8957 66.7378 24.0609Z" fill="#444577"/>
<path d="M75.1323 44.7206C73.4756 45.7009 71.1174 46.0112 69.4876 46.1032C68.3928 46.1639 67.6284 46.128 67.6284 46.128C67.6284 46.128 65.2815 39.7683 65.4501 35.315C65.6165 30.8638 65.1129 26.8375 66.5899 25.3606L66.9203 24.8009C67.0417 24.5963 67.2934 24.5041 67.5161 24.5963C67.7341 24.6839 67.9588 24.8391 67.9499 25.0886C67.9408 25.3201 68.5523 25.3853 69.2043 25.4866C69.9281 25.5989 70.7014 25.7563 70.7285 26.2351C70.778 27.1433 77.5355 43.2999 75.1323 44.7206Z" fill="#EB695C"/>
<path d="M69.204 25.4844C69.9278 25.5967 70.7011 25.7541 70.7281 26.2329C70.7776 27.1411 77.5351 43.2977 75.132 44.7184C73.4752 45.6987 71.1171 46.009 69.4872 46.101C69.4693 45.9622 69.4558 45.8228 69.4468 45.683C69.3613 44.4936 69.4827 43.3 69.5209 42.1086C69.6034 39.4773 69.2789 36.849 68.5589 34.3168C68.1854 33.0107 67.7044 31.7203 67.6122 30.3648C67.5381 29.2744 67.7494 28.1729 68.1833 27.1703" fill="#E55851"/>
<path d="M57.9414 30.7323V41.9519C57.9414 42.2782 58.071 42.5911 58.3018 42.8219C58.5325 43.0526 58.8454 43.1822 59.1717 43.1822H66.7609C67.0872 43.1822 67.4002 43.0526 67.6309 42.8219C67.8616 42.5911 67.9913 42.2782 67.9913 41.9519V30.7321C67.9912 30.4058 67.8616 30.0929 67.6309 29.8623C67.4001 29.6316 67.0872 29.502 66.7609 29.502H59.1717C58.8454 29.502 58.5325 29.6316 58.3018 29.8623C58.071 30.093 57.9414 30.406 57.9414 30.7323Z" fill="#F4BF6C"/>
<path d="M49.3127 30.7312V41.9522C49.3128 42.2782 49.4423 42.5908 49.6728 42.8213C49.9033 43.0518 50.2159 43.1813 50.5419 43.1814H59.1692C58.8432 43.1814 58.5305 43.0518 58.3 42.8213C58.0695 42.5908 57.9399 42.2782 57.9398 41.9522V30.7313C57.9399 30.4053 58.0694 30.0927 58.3 29.8621C58.5305 29.6316 58.8432 29.502 59.1692 29.502H50.5419C50.2159 29.502 49.9032 29.6316 49.6727 29.8621C49.4421 30.0927 49.3126 30.4053 49.3125 30.7313L49.3127 30.7312ZM62.3453 29.5021V32.6889C62.3453 32.813 62.3946 32.932 62.4824 33.0198C62.5701 33.1076 62.6891 33.1569 62.8133 33.1569H64.1948C64.3189 33.1569 64.4379 33.1076 64.5257 33.0198C64.6134 32.932 64.6627 32.813 64.6627 32.6889V29.5021H62.3453Z" fill="#FCCD7A"/>
<path d="M50.3462 30.9304V32.8393C50.3462 33.0154 50.489 33.1583 50.6651 33.1583H56.2322C56.4083 33.1583 56.5511 33.0154 56.5511 32.8393V30.9304C56.5511 30.7542 56.4082 30.6113 56.2322 30.6113H50.6649C50.4888 30.6113 50.346 30.7542 50.346 30.9304H50.3462ZM50.2773 40.2524V42.1242C50.2773 42.296 50.4167 42.4353 50.5887 42.4353H52.1851C52.357 42.4353 52.4964 42.296 52.4964 42.124V40.2522C52.4964 40.1697 52.4635 40.0905 52.4052 40.0322C52.3468 39.9738 52.2676 39.9411 52.1851 39.9411H50.5887C50.4167 39.9411 50.2773 40.0804 50.2773 40.2524ZM52.7719 40.2524V42.1242C52.7719 42.296 52.9113 42.4353 53.0833 42.4353H54.6797C54.8518 42.4353 54.991 42.296 54.991 42.124V40.2522C54.991 40.1697 54.9581 40.0905 54.8998 40.0322C54.8414 39.9738 54.7622 39.9411 54.6797 39.9411H53.0833C52.9113 39.9411 52.7719 40.0804 52.7719 40.2524Z" fill="#F4BF6C"/>
<path d="M64.2967 41.8388C64.2967 41.8388 62.8257 41.548 62.3853 41.1517C61.9448 40.7552 61.2665 41.1781 62.4292 42.2879C62.4292 42.2879 61.1783 42.0943 60.7204 41.5392C60.2624 40.9843 59.7427 42.244 61.7334 43.1249C61.7334 43.1249 60.6028 42.9747 60.2351 42.5655C59.8676 42.1562 59.499 43.555 61.635 43.6798C61.635 43.6798 61.1132 44.0644 60.5336 43.8634C59.9543 43.6624 60.3457 44.8663 62.3424 44.6152C64.3391 44.3641 64.602 44.2504 64.602 44.2504L64.2967 41.8388Z" fill="#F79792"/>
<path d="M61.8186 44.6764C60.8827 44.6764 60.4228 44.3168 60.3027 44.0949C60.2511 43.9997 60.2476 43.9141 60.2934 43.8604C60.3206 43.8282 60.3894 43.7821 60.5436 43.8355C60.9809 43.9872 61.3888 43.7937 61.5484 43.7008C60.4799 43.6184 60.0148 43.1964 59.9369 42.8217C59.9041 42.665 59.9458 42.5232 60.038 42.4764C60.1059 42.4417 60.1861 42.4666 60.2566 42.5454C60.5199 42.8383 61.1954 42.9978 61.5357 43.0618C60.5804 42.5902 60.2547 42.0194 60.272 41.6586C60.2786 41.5175 60.3395 41.4144 60.4345 41.3829C60.5308 41.3506 60.6439 41.4003 60.7427 41.52C61.1178 41.9748 62.051 42.1861 62.3445 42.2427C61.7287 41.6321 61.6725 41.2343 61.8312 41.0631C61.9589 40.9257 62.2103 40.9549 62.4046 41.1295C62.8342 41.5161 64.288 41.807 64.3027 41.8099C64.3085 41.8111 64.3138 41.814 64.3178 41.8183C64.3218 41.8226 64.3243 41.8281 64.325 41.8339L64.6304 44.2457C64.6311 44.2517 64.6299 44.2578 64.6269 44.263C64.6239 44.2683 64.6193 44.2725 64.6138 44.2749C64.6027 44.2797 64.3243 44.3932 62.3465 44.6417C62.1559 44.6657 61.9803 44.6764 61.8186 44.6764ZM60.4169 43.8673C60.3807 43.8673 60.3528 43.8773 60.3361 43.8968C60.3067 43.9314 60.3129 43.9954 60.3521 44.0682C60.4865 44.3168 61.0736 44.7456 62.3394 44.5861C64.0507 44.3709 64.4828 44.2581 64.5718 44.2302L64.272 41.8611C64.0871 41.8235 62.7855 41.5476 62.3668 41.1711C62.1954 41.017 61.9784 40.9867 61.8722 41.1012C61.733 41.2518 61.8005 41.6469 62.4491 42.2664C62.4535 42.2704 62.4565 42.2758 62.4576 42.2817C62.4587 42.2876 62.4578 42.2937 62.4551 42.2991C62.4526 42.3046 62.4483 42.3091 62.4429 42.3119C62.4376 42.3147 62.4314 42.3156 62.4255 42.3145C62.3741 42.3065 61.1587 42.1127 60.6992 41.5558C60.6161 41.4551 60.5257 41.4116 60.4523 41.4362C60.3811 41.4599 60.3335 41.5461 60.328 41.6612C60.3106 42.0269 60.6714 42.6226 61.7453 43.0979C61.7514 43.1007 61.7563 43.1056 61.7591 43.1117C61.7619 43.1177 61.7624 43.1246 61.7606 43.1311C61.7588 43.1375 61.7547 43.1431 61.7492 43.1468C61.7436 43.1505 61.7369 43.1522 61.7302 43.1514C61.6837 43.1452 60.5851 42.9951 60.215 42.5828C60.1618 42.5239 60.1085 42.5042 60.0635 42.5265C60.0046 42.5563 59.9611 42.6633 59.9917 42.8104C60.0675 43.1746 60.5396 43.5864 61.6371 43.6504C61.6429 43.6507 61.6484 43.6528 61.653 43.6564C61.6576 43.66 61.6609 43.6649 61.6626 43.6705C61.6642 43.6761 61.6641 43.682 61.6622 43.6875C61.6603 43.693 61.6568 43.6978 61.6522 43.7012C61.6469 43.7049 61.1131 44.0923 60.5251 43.8887C60.4905 43.8757 60.4539 43.8685 60.4169 43.8673Z" fill="#010114"/>
<path d="M64.7414 41.4434C64.7414 41.4434 64.2419 41.6158 64.1689 41.7635C63.9132 42.2823 64.2329 44.1012 64.6876 44.4707C65.0029 44.7269 66.1868 44.1296 66.1868 44.1296L64.7414 41.4434Z" fill="#2A2A51"/>
<path d="M64.9242 44.5624C64.8189 44.5624 64.7301 44.5424 64.6695 44.4932C64.1841 44.0987 63.891 42.2636 64.1432 41.7517C64.2193 41.598 64.6795 41.4356 64.7318 41.4174C64.7381 41.4154 64.745 41.4156 64.7512 41.418C64.7574 41.4204 64.7626 41.425 64.7659 41.4308L66.2112 44.117C66.2147 44.1237 66.2154 44.1315 66.2132 44.1387C66.2109 44.1459 66.2059 44.1519 66.1992 44.1554C66.1593 44.1754 65.3858 44.5624 64.9242 44.5624ZM64.7276 41.4786C64.5779 41.5324 64.2465 41.6696 64.1938 41.7766C63.9337 42.3037 64.2778 44.1024 64.705 44.4494C64.9772 44.671 65.9739 44.2025 66.1479 44.1179L64.7276 41.4786Z" fill="#010114"/>
<path d="M70.4482 26.0295C69.0324 26.5288 68.8457 27.2549 69.1404 31.3171C69.4352 35.3793 69.3643 39.4471 64.9949 40.9898C64.1946 41.3099 65.3773 44.9165 66.1776 44.5966C66.1776 44.5966 73.4903 42.1761 74.7035 35.2973C75.9407 28.2799 71.8881 25.5216 70.4482 26.0295Z" fill="#E55851"/>
<path d="M66.0732 44.6431C65.718 44.6431 65.3412 44.0275 65.0926 43.4052C64.6803 42.3742 64.522 41.1467 64.985 40.9615C69.3291 39.4278 69.4064 35.3561 69.1132 31.3171C68.8183 27.2522 69.0041 26.5069 70.4394 26.0007C70.4569 25.9945 70.4747 25.9889 70.4928 25.9838C70.5058 25.9789 70.5231 25.9878 70.5276 26.0028C70.5286 26.0064 70.5289 26.0101 70.5285 26.0138C70.5281 26.0175 70.527 26.0211 70.5252 26.0243C70.5234 26.0275 70.5209 26.0304 70.518 26.0327C70.5151 26.035 70.5118 26.0367 70.5082 26.0377C70.4913 26.0426 70.4744 26.0479 70.458 26.0537C69.0575 26.5476 68.8768 27.2848 69.1693 31.3129C69.4638 35.3736 69.3852 39.4675 65.005 41.0141C64.5887 41.1806 64.7408 42.3742 65.1445 43.3845C65.4783 44.2185 65.8799 44.6838 66.1675 44.5682C66.1854 44.5623 67.8029 44.0192 69.6168 42.7549C71.2895 41.5891 73.4763 39.554 74.3951 36.4791C74.3978 36.4727 74.4027 36.4674 74.4091 36.4644C74.4154 36.4614 74.4226 36.4608 74.4293 36.4628C74.436 36.4648 74.4417 36.4692 74.4454 36.4751C74.449 36.4811 74.4503 36.4882 74.449 36.4951C73.5253 39.5863 71.3279 41.6309 69.6475 42.8019C67.8271 44.0703 66.2032 44.6156 66.1869 44.621C66.1508 44.6356 66.1122 44.6431 66.0732 44.6431Z" fill="#010114"/>
<path d="M63.6596 17.6639C63.6596 17.9164 63.4549 18.1245 63.2026 18.1245C63.0805 18.1244 62.9634 18.0758 62.8771 17.9895C62.7907 17.9031 62.7422 17.786 62.7422 17.6639C62.7423 17.6037 62.7544 17.544 62.7776 17.4884C62.8008 17.4328 62.8348 17.3824 62.8776 17.3399C62.9203 17.2975 62.9711 17.2639 63.0268 17.2411C63.0826 17.2183 63.1423 17.2067 63.2026 17.207C63.3238 17.207 63.44 17.2552 63.5257 17.3408C63.6114 17.4265 63.6596 17.5427 63.6596 17.6639Z" fill="#E55851"/>
<path d="M20.1639 76.5433H20.1055V76.541C20.1258 76.5433 20.1438 76.5433 20.1639 76.5433Z" fill="#F7CE8F"/>
<path d="M16.2423 76.5364L14.6884 76.542H14.6791C14.6585 76.542 14.6403 76.542 14.6195 76.5392C13.3499 76.4949 12.3574 75.0602 12.3574 73.1442V16.8946C12.3574 14.8154 13.5286 13.3032 14.9519 13.5161H16.1117C14.9359 13.6903 14.0374 15.0754 14.0374 16.8946V73.1441C14.0374 75.0324 15.0002 76.4507 16.2423 76.5363V76.5364Z" fill="#EAA859"/>
<path d="M37.9743 20.067V69.9717C37.9743 71.8186 37.044 73.4555 35.8833 73.6299L16.6343 76.5225C15.209 76.7366 14.0391 75.2249 14.0391 73.1432V16.8953C14.0391 14.8138 15.209 13.3021 16.6343 13.5163L35.8833 16.4088C37.044 16.5832 37.9743 18.2201 37.9743 20.067Z" fill="#FCCD7A"/>
<path d="M16.4499 73.7638C16.4008 73.6705 16.3301 73.4697 16.3301 73.1433V16.8954C16.3301 16.5674 16.4014 16.3663 16.4509 16.2734L35.4458 19.1292C35.5366 19.2653 35.6812 19.5979 35.6812 20.0672V69.9716C35.6812 70.4409 35.5366 70.7735 35.4458 70.9096L16.4499 73.7638Z" fill="#F4BF6C"/>
<path d="M34.0788 34.1093V22.7682C34.0788 21.6853 33.41 20.7717 32.519 20.6378L19.9319 18.7453C18.8697 18.5855 17.9318 19.5847 17.9318 20.8759V34.1093C17.9318 35.295 18.7288 36.2561 19.7118 36.2561H32.299C33.2819 36.2561 34.0788 35.295 34.0788 34.1093ZM17.9318 47.6587V69.1639C17.9318 70.4549 18.8697 71.454 19.9317 71.2945L32.5189 69.403C33.41 69.2693 34.0788 68.3558 34.0788 67.2727V47.6587C34.0788 46.473 33.2819 45.5119 32.299 45.5119H19.7117C18.7286 45.5119 17.9316 46.473 17.9316 47.6587H17.9318Z" fill="#FCCD7A"/>
<path d="M33.6415 39.4009V42.8626C33.6415 43.1592 33.5075 43.4144 33.3086 43.5497C33.2937 43.5603 33.278 43.5698 33.2616 43.5781V43.6522H32.9867C32.9722 43.6522 32.9596 43.6522 32.947 43.65C32.7823 43.6393 32.634 43.5563 32.5238 43.421C32.4044 43.2792 32.332 43.083 32.332 42.8626V39.4009C32.332 38.9646 32.6251 38.6113 32.9867 38.6113H33.3086V38.716C33.3593 38.7509 33.4062 38.7945 33.4479 38.8448C33.569 38.9864 33.6415 39.1827 33.6415 39.4009Z" fill="#EAA859"/>
<path d="M32.9945 44.3772H32.9414V44.375C32.9579 44.3772 32.9761 44.3772 32.9945 44.3772Z" fill="#F7CE8F"/>
<path d="M33.9193 39.4032V42.8651C33.9193 43.3014 33.6261 43.655 33.2643 43.655C32.9026 43.655 32.6094 43.3014 32.6094 42.8651V39.4032C32.6094 38.9667 32.9026 38.6133 33.2643 38.6133C33.6261 38.6133 33.9193 38.9667 33.9193 39.4032Z" fill="#FCCD7A"/>
<path d="M40.2598 22.8811C40.2598 24.442 42.2448 27.0434 43.4236 28.4478C43.5317 28.5774 43.6683 28.6801 43.8228 28.7479C43.9773 28.8158 44.1453 28.8469 44.3139 28.8388L44.3169 28.8418H45.168C45.0068 28.8422 44.8476 28.807 44.7015 28.7389C44.5554 28.6709 44.4261 28.5715 44.3228 28.4478C43.1439 27.0434 41.1589 24.442 41.1589 22.8811C41.1589 20.6645 42.9545 18.8691 45.168 18.8691H44.2688C42.0553 18.8691 40.2598 20.6645 40.2598 22.8811Z" fill="#646DC7"/>
<path d="M41.1582 22.8822C41.1582 24.4425 43.1437 27.0429 44.3208 28.4484C44.7637 28.9755 45.5719 28.9755 46.0112 28.4484C47.1884 27.0429 49.1774 24.4425 49.1774 22.8822C49.1774 20.6647 47.3852 18.8691 45.1679 18.8691C42.954 18.8691 41.1582 20.6648 41.1582 22.8822ZM43.2632 22.5626C43.2632 21.5117 44.1137 20.6613 45.1679 20.6613C46.2186 20.6613 47.0725 21.5117 47.0725 22.5624C47.0725 23.6166 46.2186 24.4706 45.1679 24.4706C44.1137 24.4706 43.2632 23.6166 43.2632 22.5624V22.5626Z" fill="#717CD3"/>
</svg>
