<svg width="47" height="63" viewBox="0 0 47 63" fill="none" xmlns="http://www.w3.org/2000/svg">
<g opacity="0.999997">
<path d="M23.8512 2C11.7994 1.98189 2.02345 11.7463 2.02346 23.7941C2.02348 43.3277 19.5315 58.6933 23.1628 61.6705C23.5438 61.9821 24.0893 61.9841 24.4703 61.6719C27.9331 58.8336 44.0586 44.6945 45.5078 26.4146C46.5288 13.5319 36.7744 2.01949 23.8512 2Z" fill="#FF5F7A"/>
</g>
<g opacity="0.999994">
<path d="M26.3539 60.0372L26.2123 59.924C24.2108 58.3204 6.61449 43.7203 5.23151 24.9594C4.64214 16.9582 8.84796 8.25518 15.4915 4.08232L15.1321 3.80663C7.40752 7.15811 2.00001 14.8442 2.00002 23.8008C2.00004 43.3345 19.508 58.7 23.1393 61.6772C23.5203 61.9895 24.0658 61.9909 24.4468 61.6793C24.8919 61.3138 25.5487 60.7595 26.3539 60.0372Z" fill="#FB4455"/>
</g>
<path d="M24.4703 61.6719C27.9331 58.8336 44.0586 44.6945 45.5078 26.4146C46.5288 13.5319 36.7744 2.01949 23.8512 2C11.7994 1.98189 2.02345 11.7463 2.02346 23.7941C2.02348 43.3277 19.5315 58.6933 23.1628 61.6705C23.5438 61.9821 24.0893 61.9841 24.4703 61.6719Z" stroke="black" stroke-width="2.07158" stroke-linecap="round" stroke-linejoin="round"/>
<path d="M23.992 41.506C33.7737 41.4099 41.6252 33.4024 41.5291 23.6209C41.433 13.8392 33.4257 5.98763 23.644 6.08374C13.8624 6.17984 6.01071 14.1872 6.10681 23.9689C6.20291 33.7504 14.2104 41.6021 23.992 41.506Z" fill="#CCEFFA"/>
<path d="M23.9612 38.3185C31.9822 38.2397 38.4205 31.6735 38.3417 23.6526C38.2629 15.6316 31.6969 9.19338 23.6759 9.27218C15.655 9.35099 9.2166 15.917 9.2954 23.938C9.37421 31.9589 15.9404 38.3973 23.9612 38.3185Z" fill="white"/>
<path d="M23.6457 6.08517C13.8642 6.18127 6.01244 14.1886 6.10855 23.9703C6.18971 32.2309 11.9132 39.1151 19.5824 40.9984" stroke="black" stroke-width="2.07158" stroke-linecap="round" stroke-linejoin="round"/>
<path d="M23.992 41.506C33.7737 41.4099 41.6252 33.4024 41.5291 23.6209C41.448 15.3602 35.7246 8.47609 28.0552 6.59284" stroke="black" stroke-width="2.07158" stroke-linecap="round" stroke-linejoin="round"/>
<path d="M15.9531 20.8945L31.6799 20.8945L31.68 31.7061L15.9531 31.7061L15.9531 20.8945Z" fill="#FFE077"/>
<path d="M15.9551 31.7061L19.0749 31.7061L19.0749 27.6692C19.0749 26.8236 19.644 26.0688 20.4678 25.8765C20.9168 25.7717 21.355 25.5989 21.7982 25.4174C21.8351 25.4034 21.867 25.4008 21.9079 25.4186C23.0932 25.9033 24.513 25.9059 25.7067 25.4269C25.7469 25.4102 25.7744 25.4025 25.7781 25.3962C27.0395 25.9493 28.5762 25.9246 29.6861 25.3976C29.6861 25.3976 29.7174 25.3994 29.778 25.4249C30.3797 25.6766 31.0202 25.8051 31.6793 25.8064L31.6813 25.8064L31.6812 20.8945L15.9551 20.8945L15.9551 31.7061Z" fill="#FFD05B"/>
<path d="M15.9531 20.8945L31.6799 20.8945L31.68 31.7061L15.9531 31.7061L15.9531 20.8945Z" stroke="black" stroke-width="1.96193" stroke-linecap="round" stroke-linejoin="round"/>
<path d="M19.8867 26.7754L27.7498 26.7754L27.7498 31.6897L19.8867 31.6897L19.8867 26.7754Z" fill="#7AD7EE"/>
<path d="M19.8867 26.7754L27.7498 26.7754L27.7498 31.6897L19.8867 31.6897L19.8867 26.7754Z" stroke="black" stroke-width="1.96193" stroke-linecap="round" stroke-linejoin="round"/>
<path d="M17.9198 20.9011C17.9198 22.0948 16.8558 23.0406 15.6239 22.8402C14.6576 22.6831 13.9883 21.7755 13.9883 20.7965L13.9883 19.7497C13.9883 19.2286 14.1958 18.7285 14.5643 18.36L17.3443 15.5799C17.7128 15.2114 18.213 15.0039 18.734 15.0039L28.9001 15.0039C29.4218 15.0039 29.9219 15.2114 30.2904 15.5799L33.0705 18.3599C33.439 18.7284 33.6458 19.2286 33.6458 19.7496L33.6458 20.7965C33.6458 21.7755 32.9771 22.683 32.0102 22.8402C30.779 23.0406 29.7143 22.0955 29.7143 20.9011C29.7143 21.9869 28.8344 22.867 27.7486 22.867C26.6628 22.867 25.7828 21.9869 25.7828 20.9011C25.7828 21.9869 24.9028 22.867 23.8171 22.867C22.7313 22.867 21.8514 21.9869 21.8514 20.9011C21.8514 21.9869 20.9713 22.867 19.8855 22.867C18.8004 22.867 17.9198 21.9869 17.9198 20.9011Z" fill="#FB4455"/>
<path d="M30.2904 15.5799C29.9219 15.2114 29.4218 15.0039 28.9007 15.0039L18.734 15.0039C18.213 15.0039 17.7128 15.2114 17.3443 15.5799L14.5643 18.36C14.1958 18.7285 13.9883 19.2286 13.9883 19.7497L13.9883 19.9182L33.6465 19.9182L33.6465 19.7496C33.6465 19.2286 33.439 18.7284 33.0705 18.3599L30.2904 15.5799Z" fill="#FF5F7A"/>
<path d="M17.9198 20.9011C17.9198 22.0948 16.8558 23.0406 15.6239 22.8402C14.6576 22.6831 13.9883 21.7755 13.9883 20.7965L13.9883 19.7497C13.9883 19.2286 14.1958 18.7285 14.5643 18.36L17.3443 15.5799C17.7128 15.2114 18.213 15.0039 18.734 15.0039L28.9001 15.0039C29.4218 15.0039 29.9219 15.2114 30.2904 15.5799L33.0705 18.3599C33.439 18.7284 33.6458 19.2286 33.6458 19.7496L33.6458 20.7965C33.6458 21.7755 32.9771 22.683 32.0102 22.8402C30.779 23.0406 29.7143 22.0955 29.7143 20.9011C29.7143 21.9869 28.8344 22.867 27.7486 22.867C26.6628 22.867 25.7828 21.9869 25.7828 20.9011C25.7828 21.9869 24.9028 22.867 23.8171 22.867C22.7313 22.867 21.8514 21.9869 21.8514 20.9011C21.8514 21.9869 20.9713 22.867 19.8855 22.867C18.8004 22.867 17.9198 21.9869 17.9198 20.9011Z" stroke="black" stroke-width="1.96193" stroke-linecap="round" stroke-linejoin="round"/>
</svg>
