<svg width="315" height="279" viewBox="0 0 315 279" fill="none" xmlns="http://www.w3.org/2000/svg">
<path d="M314.44 138.778C314.431 139.131 314.422 139.498 314.4 139.851C314.007 148.492 312.556 157.052 309.836 165.269C308.953 167.926 307.949 170.554 306.81 173.137C303.237 181.169 297.91 188.612 291.288 194.514C287.337 198.047 282.911 201.024 278.121 203.259C263.423 210.129 250.086 204.41 234.659 203.917C223.704 203.576 212.65 203.981 201.876 206.188C191.102 208.396 180.759 212.45 171.64 218.657C161.166 225.795 155.905 236.029 147.113 244.393C144.327 247.044 140.181 249.661 134.614 251.441C131.784 252.581 128.81 253.432 125.752 253.9C122.68 254.381 119.508 254.479 116.239 254.111C100.979 252.426 86.9611 242.895 77.2319 231.037C66.8429 218.36 59.695 203.872 55.7354 188.648C53.1893 178.913 51.9563 168.898 51.9889 158.847C52.0761 137.861 57.7149 116.809 68.7325 98.2584C100.507 44.7493 168.222 6.93521 230.725 22.7063C231.306 22.8568 231.874 23.0073 232.454 23.1714C232.806 23.2483 233.171 23.3525 233.522 23.4567C235.359 23.9648 237.195 24.5412 239.003 25.1574C243.737 26.7851 248.34 28.7496 252.743 31.0762C256.206 32.9169 259.542 34.9726 262.736 37.2419C266.425 39.8772 269.975 42.6181 273.331 45.4769C275.996 47.7195 278.55 50.0409 280.979 52.4548C286.528 57.9248 291.468 63.8293 295.742 70.2875C297.813 73.3996 299.732 76.644 301.457 80.033C303.78 84.5117 305.798 89.2411 307.495 94.248C310.791 103.92 313.081 114.124 314.02 124.43C314.461 129.202 314.613 134.007 314.44 138.778Z" fill="#FFE5DA"/>
<path d="M143.271 45.2968L127.626 236.391C127.138 242.35 131.573 247.181 137.532 247.181H241.122C247.081 247.181 252.307 242.35 252.794 236.391L268.44 45.2857C268.928 39.3265 264.493 34.4961 258.533 34.4961H231.089C228.646 34.4961 226.504 36.4762 226.304 38.9188H186.449C186.649 36.4762 184.831 34.4961 182.388 34.4961H154.954C148.99 34.4967 143.758 39.3324 143.271 45.2968Z" fill="#2E2C41"/>
<path d="M137.529 41.9238L121.626 236.165C121.13 242.222 125.638 247.132 131.696 247.132H236.991C243.048 247.132 248.361 242.222 248.856 236.165L264.76 41.9127C265.255 35.8558 260.747 30.9453 254.69 30.9453H149.406C143.343 30.946 138.025 35.861 137.529 41.9238Z" fill="white" stroke="#2E2C41" stroke-width="1.103" stroke-miterlimit="10"/>
<path d="M180.223 49.2972L178.316 59.3076H175.357L173.289 52.7196L172.098 59.3076H169.139L165.885 49.2972H168.501L170.461 56.584L171.731 49.2972H174.419L176.651 56.584L177.593 49.2972H180.223ZM190.141 49.2972L190.85 59.3076H188.406L188.114 55.1865H184.311L184.603 59.3076H182.159L181.449 49.2972H183.894L184.172 53.2186H187.974L187.696 49.2972H190.141ZM194.35 49.2972L195.06 59.3076H192.615L191.906 49.2972H194.35ZM200.469 59.4074C199.735 59.4074 199.069 59.2886 198.471 59.0509C197.873 58.8133 197.381 58.4615 196.996 57.9957C196.619 57.5299 196.399 56.969 196.333 56.313H198.935C198.999 56.6838 199.148 56.969 199.381 57.1686C199.614 57.3588 199.907 57.4538 200.259 57.4538C200.622 57.4538 200.902 57.373 201.1 57.2114C201.297 57.0403 201.386 56.8074 201.365 56.5127C201.347 56.2655 201.247 56.0611 201.064 55.8995C200.891 55.7379 200.676 55.6048 200.421 55.5002C200.175 55.3957 199.824 55.2768 199.367 55.1437C198.704 54.9441 198.161 54.7445 197.737 54.5448C197.313 54.3452 196.94 54.0505 196.617 53.6607C196.294 53.2709 196.11 52.7623 196.065 52.1349C195.999 51.2032 196.286 50.476 196.926 49.9531C197.565 49.4208 198.427 49.1546 199.514 49.1546C200.619 49.1546 201.529 49.4208 202.244 49.9531C202.958 50.476 203.372 51.208 203.486 52.1492H200.841C200.799 51.8259 200.662 51.574 200.43 51.3934C200.198 51.2032 199.91 51.1082 199.567 51.1082C199.271 51.1082 199.039 51.189 198.869 51.3506C198.699 51.5027 198.624 51.7261 198.645 52.0208C198.668 52.344 198.838 52.596 199.156 52.7766C199.474 52.9572 199.964 53.1521 200.627 53.3612C201.29 53.5799 201.829 53.789 202.244 53.9887C202.668 54.1883 203.041 54.4783 203.363 54.8585C203.686 55.2388 203.868 55.7284 203.911 56.3273C203.951 56.8977 203.84 57.4158 203.578 57.8816C203.325 58.3475 202.932 58.7182 202.399 58.9939C201.865 59.2696 201.222 59.4074 200.469 59.4074ZM207.937 57.4253H211.14L211.273 59.3076H205.626L204.917 49.2972H207.361L207.937 57.4253ZM214.174 49.2972L214.884 59.3076H212.439L211.73 49.2972H214.174ZM220.293 59.4074C219.56 59.4074 218.894 59.2886 218.295 59.0509C217.697 58.8133 217.205 58.4615 216.82 57.9957C216.443 57.5299 216.223 56.969 216.157 56.313H218.759C218.823 56.6838 218.972 56.969 219.205 57.1686C219.438 57.3588 219.731 57.4538 220.083 57.4538C220.446 57.4538 220.726 57.373 220.924 57.2114C221.122 57.0403 221.21 56.8074 221.189 56.5127C221.171 56.2655 221.071 56.0611 220.888 55.8995C220.715 55.7379 220.5 55.6048 220.245 55.5002C220 55.3957 219.648 55.2768 219.191 55.1437C218.528 54.9441 217.985 54.7445 217.561 54.5448C217.137 54.3452 216.764 54.0505 216.441 53.6607C216.118 53.2709 215.934 52.7623 215.89 52.1349C215.823 51.2032 216.11 50.476 216.75 49.9531C217.389 49.4208 218.252 49.1546 219.338 49.1546C220.444 49.1546 221.353 49.4208 222.068 49.9531C222.782 50.476 223.196 51.208 223.31 52.1492H220.665C220.623 51.8259 220.486 51.574 220.254 51.3934C220.022 51.2032 219.734 51.1082 219.391 51.1082C219.095 51.1082 218.863 51.189 218.693 51.3506C218.523 51.5027 218.448 51.7261 218.469 52.0208C218.492 52.344 218.662 52.596 218.98 52.7766C219.298 52.9572 219.788 53.1521 220.451 53.3612C221.115 53.5799 221.654 53.789 222.068 53.9887C222.492 54.1883 222.865 54.4783 223.188 54.8585C223.51 55.2388 223.692 55.7284 223.735 56.3273C223.775 56.8977 223.664 57.4158 223.402 57.8816C223.149 58.3475 222.756 58.7182 222.223 58.9939C221.689 59.2696 221.046 59.4074 220.293 59.4074ZM231.96 49.2972L232.099 51.2508H229.44L230.011 59.3076H227.566L226.995 51.2508H224.336L224.198 49.2972H231.96Z" fill="#2E2C41"/>
<path d="M205.386 119.112H245.957L248.922 87.9922H208.351L205.386 119.112Z" fill="#FFE5DA"/>
<path d="M214.353 98.0547C214.353 98.0547 214.292 99.4336 214.629 101.838C214.966 104.243 215.329 109.335 215.139 111.704H217.932L219.076 101.555L214.353 98.0547Z" fill="#2E2C41"/>
<path d="M214.35 98.0562C214.35 98.0562 216.299 101.024 218.556 103.287C220.819 105.556 223.996 108.734 224.632 109.869C225.268 110.997 226.779 113.123 229.785 113.123C232.791 113.123 239.417 112.98 239.962 111.672C240.059 111.447 239.955 111.198 239.71 110.935C238.523 109.665 234.077 108.065 233.601 107.373C233.601 107.373 232.05 108.275 229.754 107.531C227.45 106.787 219.098 97.5963 217.861 93.5312C217.861 93.5312 216.971 93.8843 216.175 94.9062C215.584 95.6651 215.182 96.2591 214.913 96.717C214.323 97.7103 214.35 98.0562 214.35 98.0562Z" fill="#5D56D5"/>
<path d="M214.35 98.054C214.35 98.054 216.299 101.022 218.556 103.284C220.819 105.554 223.996 108.732 224.632 109.867C225.268 110.994 226.779 113.12 229.785 113.12C232.791 113.12 239.417 112.978 239.962 111.67C240.059 111.444 239.955 111.196 239.71 110.933C237.85 112.466 232.753 112.414 230.066 112.376C227.312 112.338 226.276 110.993 225.371 109.37C224.467 107.74 220.694 103.884 217.8 101.201C215.467 99.0297 215.008 97.3011 214.913 96.7148C214.323 97.7082 214.35 98.054 214.35 98.054Z" fill="#2E2C41"/>
<path d="M203.497 92.411C201.388 90.1997 201.651 86.5268 204.083 84.2074C206.515 81.888 210.196 81.8004 212.305 84.0117C214.414 86.223 214.151 89.8959 211.719 92.2153C209.287 94.5347 205.605 94.6223 203.497 92.411Z" fill="#2E2C41"/>
<path d="M210.455 88.2031H205.349" stroke="white" stroke-width="1.19529" stroke-miterlimit="10"/>
<path d="M208.145 85.6484L207.658 90.755" stroke="white" stroke-width="1.19529" stroke-miterlimit="10"/>
<path d="M146.581 119.112H187.152L190.117 87.9922H149.546L146.581 119.112Z" fill="#FFE5DA"/>
<path d="M163.549 98.8497H164.69L164.834 97.3438H163.692L163.549 98.8497Z" fill="#2E2C41"/>
<path d="M172.098 98.8497H173.239L173.383 97.3438H172.241L172.098 98.8497Z" fill="#2E2C41"/>
<path d="M172.605 98.5411C172.901 95.4289 171.221 92.9062 168.851 92.9062C166.481 92.9062 164.32 95.4289 164.024 98.5411" stroke="#2E2C41" stroke-width="0.301249" stroke-miterlimit="10" stroke-linecap="round" stroke-linejoin="round"/>
<path d="M158.21 111.671H175.916C176.516 111.671 177.021 111.127 176.969 110.536L175.933 98.8571C175.893 98.4012 175.527 98.0703 175.063 98.0703H161.654C161.19 98.0703 160.761 98.4012 160.634 98.8571L157.373 110.536C157.208 111.127 157.61 111.671 158.21 111.671Z" fill="#FBB749"/>
<path d="M175.49 99.1875C175.49 99.1875 172.179 104.376 167.807 104.376C163.435 104.376 161.103 99.2846 161.103 99.2846" stroke="#2E2C41" stroke-width="0.301249" stroke-miterlimit="10" stroke-linecap="round" stroke-linejoin="round"/>
<path d="M166.614 104.63H168.849C169.233 104.63 169.574 104.318 169.611 103.934H165.985C165.948 104.319 166.23 104.63 166.614 104.63Z" fill="#2E2C41"/>
<path d="M167.245 105.362C167.024 105.131 167.052 104.747 167.306 104.504C167.561 104.261 167.946 104.252 168.167 104.483C168.387 104.715 168.36 105.099 168.105 105.342C167.851 105.585 167.465 105.594 167.245 105.362Z" fill="#2E2C41"/>
<path d="M144.692 92.411C142.583 90.1997 142.846 86.5268 145.278 84.2074C147.711 81.888 151.392 81.8004 153.5 84.0117C155.609 86.223 155.347 89.8959 152.914 92.2153C150.482 94.5347 146.801 94.6223 144.692 92.411Z" fill="#2E2C41"/>
<path d="M151.65 88.2031H146.544" stroke="white" stroke-width="1.19529" stroke-miterlimit="10"/>
<path d="M149.34 85.6484L148.853 90.755" stroke="white" stroke-width="1.19529" stroke-miterlimit="10"/>
<path d="M200.653 165.753H241.225L244.189 134.633H203.618L200.653 165.753Z" fill="#FFE5DA"/>
<path d="M223.028 142.454C223.028 142.454 229.223 142.39 230.141 143.717C231.059 145.043 232.277 150.569 232.277 150.569C232.277 150.569 235.108 153.727 234.94 154.169C234.772 154.612 230.661 157.706 222.23 157.706H220.967C212.535 157.706 209.004 154.612 208.919 154.169C208.835 153.727 212.257 150.569 212.257 150.569C212.257 150.569 214.512 145.043 215.678 143.717C216.845 142.39 223.028 142.454 223.028 142.454Z" fill="#EF4D57"/>
<path d="M212.256 150.57C212.256 150.57 221.901 155.37 232.277 150.57" stroke="#2E2C41" stroke-width="0.325219" stroke-miterlimit="10"/>
<path d="M198.768 139.052C196.66 136.84 196.922 133.167 199.354 130.848C201.787 128.529 205.468 128.441 207.576 130.652C209.685 132.864 209.423 136.536 206.99 138.856C204.558 141.175 200.877 141.263 198.768 139.052Z" fill="#2E2C41"/>
<path d="M205.725 134.844H200.619" stroke="white" stroke-width="1.19529" stroke-miterlimit="10"/>
<path d="M203.414 132.289L202.927 137.396" stroke="white" stroke-width="1.19529" stroke-miterlimit="10"/>
<path d="M141.849 165.749H182.42L185.385 134.629H144.813L141.849 165.749Z" fill="#FFE5DA"/>
<path d="M157.839 150.5C157.494 147.634 157.784 144.761 157.784 144.761L156.774 145.062L155.66 141.296C156.747 140.376 157.667 139.715 158.441 139.426C159.57 139.003 161.478 138.641 161.478 138.641C161.361 140.995 162.649 141.998 164.278 141.998H164.474H164.67C166.3 141.998 167.789 140.994 168.147 138.641C168.147 138.641 169.981 139.003 171.025 139.426C171.741 139.715 172.528 140.376 173.43 141.296L171.556 145.062L170.608 144.761C170.608 144.761 170.319 147.634 169.397 150.5L170.117 161.022C170.117 161.022 168.016 162.095 162.699 162.163L162.699 162.169C162.609 162.169 162.529 162.167 162.443 162.166C162.355 162.167 162.275 162.169 162.186 162.169L162.187 162.163C156.883 162.096 154.999 161.022 154.999 161.022L157.839 150.5Z" fill="#2E2C41"/>
<path d="M139.964 139.052C137.855 136.84 138.117 133.167 140.55 130.848C142.982 128.529 146.663 128.441 148.772 130.652C150.88 132.864 150.618 136.536 148.186 138.856C145.753 141.175 142.072 141.263 139.964 139.052Z" fill="#2E2C41"/>
<path d="M146.92 134.84H141.814" stroke="white" stroke-width="1.19529" stroke-miterlimit="10"/>
<path d="M144.611 132.289L144.125 137.396" stroke="white" stroke-width="1.19529" stroke-miterlimit="10"/>
<path d="M237.67 192.266H142.028" stroke="#2E2C41" stroke-width="0.343848" stroke-miterlimit="10"/>
<path d="M235.643 206.121H140" stroke="#2E2C41" stroke-width="0.343848" stroke-miterlimit="10"/>
<path d="M221.561 219.641H150.026" stroke="#2E2C41" stroke-width="0.343848" stroke-miterlimit="10"/>
<path d="M248.484 70.2617H152.843" stroke="#2E2C41" stroke-width="0.343848" stroke-miterlimit="10"/>
<path d="M108.8 1C117.68 1 124.879 8.19872 124.879 17.0792C124.879 20.379 123.882 23.4442 122.178 25.9969L125.398 32.9507L117.977 30.273C115.374 32.087 112.214 33.1585 108.801 33.1585C99.9202 33.1585 92.7215 25.9597 92.7215 17.0792C92.7215 8.19872 99.9202 1 108.8 1Z" stroke="#2E2C41" stroke-width="0.601001" stroke-miterlimit="10" stroke-linecap="round" stroke-linejoin="round"/>
<path d="M108.357 26.2342L100.48 19.4335C98.2503 17.5088 98.0034 14.1413 99.9282 11.9117C101.853 9.68214 105.22 9.43528 107.45 11.36L108.407 12.1866L109.575 11.1933C111.818 9.28482 115.183 9.55578 117.092 11.7984C119 14.0416 118.729 17.4072 116.487 19.3156L108.357 26.2342Z" fill="#EF4D57"/>
<path d="M273.916 152.167H292.493C293.168 152.167 293.758 151.711 293.926 151.057L299.489 129.491C299.947 127.717 301.547 126.477 303.379 126.477H306.289V129.159" stroke="#2E2C41" stroke-width="1.13107" stroke-miterlimit="10"/>
<path d="M298.836 132.031H269.594C268.874 132.031 268.349 132.71 268.529 133.406L271.941 146.639C272.066 147.125 272.504 147.464 273.006 147.464H294.856" stroke="#2E2C41" stroke-width="1.13107" stroke-miterlimit="10"/>
<path d="M274.245 155.697C273.284 155.697 272.504 154.917 272.504 153.956C272.504 152.994 273.284 152.215 274.245 152.215C275.207 152.215 275.986 152.994 275.986 153.956C275.986 154.917 275.207 155.697 274.245 155.697Z" stroke="#2E2C41" stroke-width="1.13107" stroke-miterlimit="10"/>
<path d="M289.443 155.697C288.481 155.697 287.701 154.917 287.701 153.956C287.701 152.994 288.481 152.215 289.443 152.215C290.404 152.215 291.184 152.994 291.184 153.956C291.184 154.917 290.404 155.697 289.443 155.697Z" stroke="#2E2C41" stroke-width="1.13107" stroke-miterlimit="10"/>
<path d="M292.072 131.957L288.393 147.414" stroke="#2E2C41" stroke-width="1.13107" stroke-miterlimit="10"/>
<path d="M283.281 132.027L283.079 147.343" stroke="#2E2C41" stroke-width="1.13107" stroke-miterlimit="10"/>
<path d="M274.632 131.957L278.311 147.414" stroke="#2E2C41" stroke-width="1.13107" stroke-miterlimit="10"/>
<path d="M270.293 139.711H296.76" stroke="#2E2C41" stroke-width="1.13107" stroke-miterlimit="10"/>
<path d="M95.9346 72.8112C95.9346 72.8112 94.1636 76.3487 95.8395 78.9873C95.8395 78.9873 94.9367 81.3654 96.0434 82.8062C96.0434 82.8062 95.5067 87.0842 100.2 89.5353C104.893 91.9857 105.63 89.179 105.63 89.179C105.687 84.1343 102.946 81.2703 102.946 81.2703C103.053 77.7022 100.735 76.2152 100.735 76.2152C100.601 72.2204 98.7133 70.0234 98.7133 70.0234L95.9346 72.8112Z" fill="#2E2C41"/>
<path d="M86.8663 102.105L78.8541 81.5934C78.8541 81.5934 80.685 81.6272 81.1892 81.2117C82.641 80.0165 83.8558 74.1211 83.8558 74.1211L94.3269 77.4977C94.3269 77.4977 93.8403 82.2753 94.48 83.6842C94.8252 84.4443 96.9395 85.9431 96.9395 85.9431L94.6949 92.3407L86.8663 102.105Z" fill="#FDB096"/>
<path d="M88.1746 82.0079C84.4905 81.9832 77.9803 76.2461 78.0344 67.0451C78.0891 57.8441 82.5508 50.7711 89.5216 51.7273C96.493 52.6835 101.051 56.4066 100.649 64.1909C100.11 74.6451 94.2601 82.0483 88.1746 82.0079Z" fill="#FDB096"/>
<path d="M90.8016 47.9398C90.8016 47.9398 94.19 39.0573 87.8712 39.1491C81.5531 39.241 78.8976 40.7515 79.3548 43.4533C79.8127 46.1544 84.0706 50.0918 84.0706 50.0918L90.8016 47.9398Z" fill="#2E2C41"/>
<path d="M78.1956 64.9695C85.3506 61.5441 88.8178 57.0335 88.8178 57.0335C88.8178 57.0335 95.5462 64.3175 100.722 66.0683C100.722 66.0683 102.177 57.2634 100.579 53.7617C98.9802 50.2601 94.1849 45.0082 86.725 48.4337C86.725 48.4337 78.0477 48.5099 76.2969 54.6756C74.5461 60.8412 75.9367 64.8477 75.9367 64.8477L78.1956 64.9695Z" fill="#2E2C41"/>
<path d="M94.0059 79.8077C92.102 81.3865 90.3589 82.0275 88.1743 82.0079C86.544 81.9929 84.3783 80.9397 82.4314 79.0234" stroke="#2E2C41" stroke-width="0.229405" stroke-miterlimit="10" stroke-linecap="round" stroke-linejoin="round"/>
<path d="M88.4633 72.0447C88.417 72.0538 88.3695 72.0597 88.3207 72.0623L88.0868 72.0727C88.0073 72.0759 87.9403 72.0147 87.937 71.9359C87.9331 71.8564 87.995 71.7894 88.0738 71.7861L88.3076 71.7757C88.5004 71.7672 88.6763 71.6728 88.7909 71.5177C88.9056 71.3627 88.9433 71.1667 88.8951 70.9797L88.6118 69.8868C88.5916 69.8099 88.6378 69.7317 88.7147 69.7115C88.7922 69.692 88.8697 69.7376 88.8899 69.8145L89.1733 70.9074C89.2436 71.1784 89.1882 71.463 89.0222 71.6877C88.8847 71.8747 88.6861 71.9997 88.4633 72.0447Z" fill="#2E2C41"/>
<path d="M99.0417 71.5081C101.508 70.9017 103.481 65.2232 101.767 64.2351C100.053 63.247 99.1836 65.2864 99.1836 65.2864L99.0417 71.5081Z" fill="#FDB096"/>
<path d="M99.5245 68.5338C99.5245 68.5338 99.7303 65.5051 100.598 65.3807C101.264 65.2856 101.447 66.4222 101.447 66.4222" stroke="#2E2C41" stroke-width="0.272981" stroke-miterlimit="10" stroke-linecap="round" stroke-linejoin="round"/>
<path d="M99.8953 66.4626C99.8953 66.4626 100.429 65.6165 100.982 66.2731" stroke="#2E2C41" stroke-width="0.272981" stroke-miterlimit="10" stroke-linecap="round" stroke-linejoin="round"/>
<path d="M78.7891 71.5081C76.3231 70.9017 74.3501 65.2232 76.0638 64.2351C77.7782 63.247 78.6471 65.2864 78.6471 65.2864L78.7891 71.5081Z" fill="#FDB096"/>
<path d="M78.3086 68.5338C78.3086 68.5338 78.1028 65.5051 77.2352 65.3807C76.5695 65.2856 76.3858 66.4222 76.3858 66.4222" stroke="#2E2C41" stroke-width="0.272981" stroke-miterlimit="10" stroke-linecap="round" stroke-linejoin="round"/>
<path d="M77.9375 66.4626C77.9375 66.4626 77.4034 65.6165 76.8504 66.2731" stroke="#2E2C41" stroke-width="0.272981" stroke-miterlimit="10" stroke-linecap="round" stroke-linejoin="round"/>
<path d="M84.5781 64.6835C84.5781 64.6835 82.8234 62.9568 81.3631 65.0724L84.5781 64.6835Z" fill="#2E2C41"/>
<path d="M83.6702 68.9534C83.2529 68.9303 82.9398 68.4544 82.971 67.8905C83.0023 67.3266 83.366 66.8882 83.7833 66.9113C84.2007 66.9344 84.5137 67.4103 84.4825 67.9742C84.4513 68.5381 84.0876 68.9766 83.6702 68.9534Z" fill="#2E2C41"/>
<path d="M87.0376 75.3867L90.082 75.4786C90.082 75.4786 89.6469 76.3488 88.7774 76.5546C87.9078 76.7604 87.0376 75.3867 87.0376 75.3867Z" fill="#FFE5DA"/>
<path d="M93.346 69.0784C92.9286 69.0553 92.6156 68.5794 92.6468 68.0155C92.6781 67.4516 93.0417 67.0132 93.4591 67.0363C93.8765 67.0594 94.1895 67.5353 94.1583 68.0992C94.1271 68.6631 93.7634 69.1016 93.346 69.0784Z" fill="#2E2C41"/>
<path d="M92.3696 64.6647C92.3696 64.6647 94.3041 63.1425 95.5215 65.4066L92.3696 64.6647Z" fill="#2E2C41"/>
<path d="M16.8457 265.201C16.8457 265.201 13.0021 267.924 10.1752 263.243C7.34839 258.563 5.97468 254.986 5.32463 252.181C4.67459 249.375 4.79702 247.569 3.30674 245.005C1.81645 242.442 -0.590266 240.24 0.132081 238.248C0.724158 236.615 4.24989 236.164 4.24989 236.164L11.1549 250.922L16.8457 265.201Z" fill="#EF4D57"/>
<path d="M18.4609 245.34C18.4609 245.34 17.0592 253.168 17.0012 256.719C16.9439 260.269 19.6972 263.527 16.8456 265.201C13.994 266.876 10.8088 258.459 8.99744 253.504C7.18604 248.549 7.46549 244.333 5.55118 242.198C3.63686 240.062 3.51112 236.736 4.24975 236.165C4.98838 235.594 12.6913 233.079 13.682 233.38C13.682 233.38 12.5024 234.674 14.5932 239.407C16.6847 244.141 18.4609 245.34 18.4609 245.34Z" fill="#2E2C41"/>
<path d="M15.0064 253.657L14.9973 253.751C14.9804 253.926 15.1087 254.08 15.2839 254.095L17.2164 254.263C17.3923 254.278 17.548 254.149 17.5656 253.974L17.5747 253.88C17.5916 253.706 17.4633 253.551 17.2881 253.536L15.3555 253.368C15.1803 253.354 15.024 253.483 15.0064 253.657Z" fill="#FFE5DA"/>
<path d="M15.3209 251.884L15.3117 251.977C15.2948 252.152 15.4231 252.306 15.5983 252.321L17.5309 252.489C17.7068 252.504 17.8624 252.375 17.88 252.201L17.8891 252.107C17.9061 251.932 17.7777 251.778 17.6025 251.763L15.6699 251.595C15.4941 251.579 15.3378 251.708 15.3209 251.884Z" fill="#FFE5DA"/>
<path d="M15.5845 249.865L15.5754 249.958C15.5584 250.133 15.6868 250.287 15.862 250.302L17.7946 250.47C17.9704 250.485 18.1267 250.356 18.1437 250.181L18.1528 250.087C18.1697 249.913 18.0414 249.758 17.8662 249.743L15.9337 249.575C15.7584 249.56 15.6021 249.689 15.5845 249.865Z" fill="#FFE5DA"/>
<path d="M15.8482 247.869L15.8391 247.962C15.8222 248.137 15.9504 248.291 16.1257 248.306L18.0582 248.474C18.2341 248.489 18.3898 248.36 18.4074 248.185L18.4165 248.091C18.4334 247.917 18.3051 247.762 18.1299 247.747L16.1973 247.579C16.0221 247.564 15.8658 247.694 15.8482 247.869Z" fill="#FFE5DA"/>
<path d="M146.322 272.333C146.322 272.333 147.333 276.94 141.914 277.721C136.494 278.501 132.658 278.371 129.818 277.876C126.977 277.38 125.359 276.562 122.413 276.936C119.467 277.31 116.497 278.67 114.942 277.226C113.668 276.043 114.628 272.615 114.628 272.615L130.934 272.008L146.322 272.333Z" fill="#EF4D57"/>
<path d="M128.634 263.089C128.634 263.089 135.307 267.438 138.559 268.877C141.811 270.316 145.889 269.049 146.321 272.331C146.752 275.615 137.747 275.267 132.47 275.003C127.193 274.739 123.415 272.837 120.698 273.768C117.981 274.7 114.865 273.518 114.626 272.613C114.388 271.709 115.076 263.624 115.739 262.828C115.739 262.828 116.472 264.421 121.654 264.34C126.836 264.26 128.634 263.089 128.634 263.089Z" fill="#2E2C41"/>
<path d="M134.959 269.523L135.042 269.568C135.196 269.652 135.388 269.594 135.471 269.437L136.38 267.721C136.463 267.565 136.405 267.371 136.25 267.287L136.167 267.242C136.013 267.158 135.821 267.216 135.738 267.372L134.829 269.088C134.746 269.244 134.805 269.439 134.959 269.523Z" fill="#FFE5DA"/>
<path d="M133.446 268.538L133.528 268.583C133.683 268.667 133.875 268.609 133.957 268.453L134.867 266.737C134.949 266.581 134.891 266.386 134.736 266.302L134.654 266.257C134.499 266.173 134.307 266.231 134.225 266.388L133.315 268.104C133.233 268.259 133.291 268.454 133.446 268.538Z" fill="#FFE5DA"/>
<path d="M131.686 267.507L131.768 267.552C131.923 267.636 132.115 267.578 132.198 267.422L133.107 265.705C133.19 265.55 133.131 265.355 132.977 265.271L132.894 265.226C132.74 265.142 132.547 265.2 132.465 265.356L131.555 267.073C131.473 267.228 131.531 267.422 131.686 267.507Z" fill="#FFE5DA"/>
<path d="M129.946 266.484L130.028 266.529C130.183 266.613 130.375 266.555 130.457 266.398L131.367 264.682C131.449 264.526 131.391 264.332 131.236 264.248L131.154 264.203C130.999 264.119 130.807 264.177 130.725 264.333L129.815 266.049C129.733 266.205 129.791 266.399 129.946 266.484Z" fill="#FFE5DA"/>
<path d="M64.3418 133.102L63.7035 138.594C63.7035 138.594 56.4234 152.005 55.1461 165.926C53.8688 179.847 47.4927 207.091 47.4927 207.091C47.4927 207.091 27.3028 218.93 11.5935 231.446C11.5935 231.446 11.7212 242.941 20.6616 248.305C20.6616 248.305 62.2986 224.804 64.9802 219.823C67.6624 214.842 82.478 176.782 82.478 176.782L113.897 266.952C113.897 266.952 125.52 267.463 131.65 262.227C131.65 262.227 121.944 220.59 117.857 199.133C113.77 177.676 104.176 143.45 104.176 143.45L104.191 138.594L85.0326 132.336L64.3418 133.102Z" fill="#EF4D57"/>
<path d="M107.001 92.1016C107.001 92.1016 111.088 93.8895 111.599 101.297C112.109 108.705 115.012 119.791 115.012 119.791L133.692 107.46L140.041 110.207C140.041 110.207 117.985 139.231 109.683 133.611C101.381 127.991 101.637 97.0831 101.637 97.0831L107.001 92.1016Z" fill="#FDB096"/>
<path d="M107.001 92.1016C107.001 92.1016 110.861 94.0296 111.776 100.134C112.692 106.238 114.5 117.074 114.5 117.074C114.5 117.074 114.95 117.288 115.622 117.41C116.293 117.532 115.988 118.081 116.415 118.02C116.843 117.959 120.994 115.578 120.994 115.578C120.994 115.578 117.941 125.223 124.9 127.238C124.9 127.238 115.011 137.616 110.249 135.174C105.488 132.732 102.557 121.011 102.557 121.011L105.243 96.592L107.001 92.1016Z" fill="#9F9FE6"/>
<path d="M63.9806 135.668C63.9806 135.668 82.7343 138.463 90.7837 139.49C98.8213 140.506 104.191 138.589 104.191 138.589C104.191 138.589 103.683 126.972 103.81 121.729C103.938 116.498 107.645 110.111 107.645 105.261C107.645 100.4 106.49 95.1681 106.998 92.0963L96.9396 85.9411L89.1566 97.5703L78.8555 81.5874C78.8555 81.5874 70.1027 80.2828 64.2242 81.818C64.2242 81.818 65.8761 98.7479 65.4944 109.73C65.3791 112.801 65.2169 116.196 65.0325 119.476C64.9055 121.867 64.7668 124.199 64.6281 126.313C64.2809 131.684 63.9806 135.668 63.9806 135.668Z" fill="#9F9FE6"/>
<path d="M64.6281 126.315C72.3883 132.124 82.7812 121.384 82.7812 121.384L68.8658 118.82C68.8658 118.82 66.9144 118.936 65.032 119.479C64.9056 121.87 64.7668 124.202 64.6281 126.315Z" fill="#2E2C41"/>
<path d="M77.0705 81.9141L88.9746 101.052L98.5898 87.4082" stroke="#2E2C41" stroke-width="0.229405" stroke-miterlimit="10" stroke-linecap="round" stroke-linejoin="round"/>
<path d="M103.809 121.732C103.936 116.496 107.641 110.109 107.641 105.256C107.641 103.227 107.439 101.129 107.243 99.1523" stroke="#2E2C41" stroke-width="0.229405" stroke-miterlimit="10" stroke-linecap="round" stroke-linejoin="round"/>
<path d="M63.7306 82.918C63.7306 82.918 58.5218 82.8528 59.6708 94.7309C60.8198 106.609 63.1913 122.626 68.8112 125.053C74.431 127.479 110.064 106.916 110.064 106.916L107.765 100.53L74.3027 110.748C74.3027 110.748 66.5119 87.2475 65.49 85.4595C64.468 83.6716 63.7306 82.918 63.7306 82.918Z" fill="#FDB096"/>
<path d="M133.38 107.928C133.38 107.928 133.985 106.579 136.711 106.463C138.155 106.403 139.24 106.143 140.021 105.768C140.802 105.392 143.1 104.821 143.564 105.341C144.027 105.861 142.678 106.992 142.678 106.992C142.678 106.992 144.825 106.992 145.228 106.829C145.631 106.666 147.15 103.329 148.78 103.437C148.78 103.437 149.561 101.801 151.134 102.006L150.576 103.717C150.576 103.717 151.776 102.537 152.61 102.527C153.442 102.516 153.662 102.947 153.662 102.947L151.86 105.028C151.86 105.028 152.728 104.888 153.157 105.413C153.157 105.413 151.24 106.925 150.48 107.457C149.721 107.99 148.805 108.544 147.746 108.835C146.687 109.125 143.767 110.831 143.347 111.121C142.926 111.411 137.239 111.731 136.358 111.907C135.478 112.085 133.38 107.928 133.38 107.928Z" fill="#FDB096"/>
<path d="M148.781 103.438C148.781 103.438 147.809 106.875 146.972 107.738C146.135 108.601 143.516 110.175 143.516 110.175" stroke="#2E2C41" stroke-width="0.229405" stroke-miterlimit="10" stroke-linecap="round" stroke-linejoin="round"/>
<path d="M150.576 103.719C150.576 103.719 148.872 107.508 148.297 108.085C147.722 108.663 145.878 109.437 145.878 109.437" stroke="#2E2C41" stroke-width="0.229405" stroke-miterlimit="10" stroke-linecap="round" stroke-linejoin="round"/>
<path d="M151.861 105.027C151.861 105.027 149.581 107.868 148.282 108.352" stroke="#2E2C41" stroke-width="0.229405" stroke-miterlimit="10" stroke-linecap="round" stroke-linejoin="round"/>
<path d="M82.4786 176.78L86.4414 166.554L86.0747 162.281" stroke="#2E2C41" stroke-width="0.229405" stroke-miterlimit="10" stroke-linecap="round" stroke-linejoin="round"/>
<path d="M107.201 100.841C107.201 100.841 108.682 100.077 110.133 98.8503C111.585 97.6231 112.521 96.6259 114.249 96.4787C115.977 96.3315 118.002 96.0983 119.262 96.4501C120.521 96.8018 123.438 98.5826 123.814 98.8464C124.191 99.1102 123.923 99.6606 123.389 99.7889C123.389 99.7889 125.352 100.782 125.058 101.284C124.764 101.787 122.769 101.599 122.769 101.599C122.769 101.599 124.866 102.273 124.509 102.909C124.152 103.545 122.74 103.41 122.74 103.41C122.74 103.41 123.626 104.505 121.391 104.533C119.157 104.56 115.661 104.826 114.44 105.387C113.218 105.949 111.494 107.102 109.213 106.773L107.201 100.841Z" fill="#FDB096"/>
<path d="M123.389 99.7885C123.389 99.7885 120.079 98.4416 118.264 98.2911C116.45 98.1406 114.91 98.2716 114.91 98.2716" stroke="#2E2C41" stroke-width="0.229405" stroke-miterlimit="10" stroke-linecap="round" stroke-linejoin="round"/>
<path d="M122.77 101.601C122.77 101.601 119.18 100.737 117.672 100.654C116.164 100.572 115.36 100.539 115.36 100.539" stroke="#2E2C41" stroke-width="0.229405" stroke-miterlimit="10" stroke-linecap="round" stroke-linejoin="round"/>
<path d="M122.74 103.413C122.74 103.413 117.968 102.635 115.445 102.904" stroke="#2E2C41" stroke-width="0.229405" stroke-miterlimit="10" stroke-linecap="round" stroke-linejoin="round"/>
<path d="M91.0352 47.3473C91.0352 47.3473 88.2878 46.935 83.0685 48.9496" stroke="#FFE5DA" stroke-width="0.288678" stroke-miterlimit="10"/>
<path d="M64.2208 81.8203C64.2208 81.8203 57.3836 82.0033 57.9327 90.7028C58.4824 99.4022 61.2292 124.096 68.3719 125.286C75.5146 126.477 83.2064 120.921 83.2064 120.921C83.2064 120.921 78.3076 111.764 83.252 107.919L74.7206 110.086C74.7206 110.086 66.6621 87.4981 65.8687 85.606C65.0754 83.7131 65.3125 81.8848 64.2208 81.8203Z" fill="#9F9FE6"/>
<path d="M65.0148 122.714C66.0075 124.151 67.1226 125.078 68.3725 125.287C75.5152 126.477 83.207 120.922 83.207 120.922" stroke="#2E2C41" stroke-width="0.229405" stroke-miterlimit="10" stroke-linecap="round" stroke-linejoin="round"/>
<path d="M83.252 107.919L74.7206 110.086C74.7206 110.086 69.898 94.6109 69.104 92.7188" stroke="#2E2C41" stroke-width="0.229405" stroke-miterlimit="10" stroke-linecap="round" stroke-linejoin="round"/>
<path d="M74.7207 110.086C74.7207 110.086 71.2412 112.345 70.5084 114.909" stroke="#2E2C41" stroke-width="0.229405" stroke-miterlimit="10" stroke-linecap="round" stroke-linejoin="round"/>
<path d="M63.705 138.594C63.705 138.594 79.5445 143.083 87.6942 143.907C95.8439 144.731 103.811 143.358 103.811 143.358" stroke="#2E2C41" stroke-width="0.229405" stroke-miterlimit="10" stroke-linecap="round" stroke-linejoin="round"/>
<path d="M116.08 117.992C116.08 117.992 111.319 121.655 110.311 124.677" stroke="#2E2C41" stroke-width="0.229405" stroke-miterlimit="10" stroke-linecap="round" stroke-linejoin="round"/>
</svg>
