<svg width="55" height="56" viewBox="0 0 55 56" fill="none" xmlns="http://www.w3.org/2000/svg">
<g clip-path="url(#clip0_3104_1225)">
<g clip-path="url(#clip1_3104_1225)">
<g clip-path="url(#clip2_3104_1225)">
<path d="M25.3823 38.2402C25.8015 37.8201 25.8015 37.1404 25.3823 36.7203C24.9627 36.3016 24.2829 36.3016 23.8629 36.7203C23.4441 37.1404 23.4441 37.8201 23.8629 38.2402C24.2829 38.659 24.9627 38.659 25.3823 38.2402Z" fill="black"/>
<path d="M20.2969 12.7506C20.2969 19.2643 25.5962 24.564 32.1099 24.564C38.6236 24.564 43.923 19.2643 43.923 12.7506C43.923 6.23684 38.6236 0.9375 32.1099 0.9375C25.5962 0.9375 20.2969 6.23684 20.2969 12.7506ZM41.7754 12.7506C41.7754 18.0801 37.4395 22.416 32.1099 22.416C26.7804 22.416 22.4445 18.0801 22.4445 12.7506C22.4445 7.42142 26.7804 3.08552 32.1099 3.08552C37.4395 3.08552 41.7754 7.42142 41.7754 12.7506Z" fill="black"/>
<path d="M12.4772 55.6207C12.8935 56.0403 13.5711 56.045 13.9929 55.6295L19.1995 50.5001C20.084 49.6156 20.353 48.306 19.964 47.1675L21.084 46.0874C21.687 45.505 22.4809 45.184 23.3201 45.184H37.5967C40.1295 45.184 42.5235 44.2113 44.3383 42.4452C44.413 42.3726 43.7714 43.1283 54.078 30.81C55.6067 29.0015 55.378 26.2857 53.5678 24.7554C51.7689 23.2393 49.0741 23.4571 47.5412 25.2346L41.2042 31.7479C40.404 30.763 39.1837 30.1491 37.8653 30.1491H25.8898C24.1858 29.4362 22.3776 29.0753 20.512 29.0753C15.3407 29.0753 10.8252 31.4638 8.40189 35.942C7.38096 35.7485 6.30422 36.0573 5.52961 36.832L0.420772 41.9559C0.00367229 42.3743 0.0028331 43.0511 0.419093 43.4707L12.4772 55.6207ZM20.5116 31.2229C22.1565 31.2229 23.7469 31.554 25.2394 32.2069C25.3754 32.2665 25.5218 32.2972 25.67 32.2972H37.8653C39.0297 32.2972 40.0133 33.2468 40.0133 34.4448C40.0133 35.6293 39.0499 36.5928 37.8653 36.5928H29.1033C28.5103 36.5928 28.0295 37.0737 28.0295 37.6666C28.0295 38.2599 28.5103 38.7404 29.1033 38.7404H37.8653C40.234 38.7404 42.1609 36.8135 42.1609 34.4448C42.1609 34.2559 42.1475 34.0688 42.1231 33.8833C48.2533 27.5819 49.1177 26.6965 49.1547 26.6525C49.92 25.749 51.2788 25.6345 52.1826 26.3965C53.0873 27.1615 53.2019 28.5193 52.4344 29.4278L42.8021 40.9429C41.3955 42.2933 39.5488 43.0364 37.5967 43.0364H23.3201C21.9211 43.0364 20.5968 43.5714 19.5922 44.542L18.6796 45.4228L10.2662 37.0099C12.2326 33.321 15.9223 31.2229 20.5116 31.2229ZM7.04946 38.3497C7.40362 37.9956 7.94744 37.9318 8.37923 38.1987C8.56512 38.3119 8.03136 37.826 17.6809 47.4621C18.1101 47.8914 18.0871 48.5754 17.6867 48.9757L13.248 53.3485L2.69593 42.7158L7.04946 38.3497Z" fill="black"/>
<path d="M30.8202 6.30859V7.56703C29.5701 8.01014 28.6722 9.20395 28.6722 10.6042C28.6722 12.3805 30.1173 13.826 31.894 13.826C32.4861 13.826 32.9678 14.3078 32.9678 14.8998C32.9678 15.4919 32.4861 15.9736 31.894 15.9736C31.4353 15.9736 30.9398 15.6854 30.4996 15.1613C30.1177 14.7072 29.4405 14.6489 28.9865 15.0303C28.5324 15.4122 28.4737 16.0894 28.8555 16.5435C29.4296 17.2262 30.1047 17.702 30.8202 17.9421V19.1954C30.8202 19.7888 31.3011 20.2692 31.894 20.2692C32.4869 20.2692 32.9678 19.7888 32.9678 19.1954V17.937C34.2178 17.4935 35.1158 16.2997 35.1158 14.8998C35.1158 13.1232 33.6706 11.678 31.894 11.678C31.3019 11.678 30.8202 11.1963 30.8202 10.6042C30.8202 10.0121 31.3019 9.52999 31.894 9.52999C32.2746 9.52999 32.6761 9.72428 33.0555 10.0914C33.4818 10.5039 34.1616 10.4926 34.5741 10.0667C34.9866 9.64035 34.9752 8.96057 34.5493 8.54809C34.0042 8.02063 33.4587 7.72228 32.9678 7.55947V6.30859C32.9678 5.71526 32.4869 5.23438 31.894 5.23438C31.3011 5.23438 30.8202 5.71526 30.8202 6.30859Z" fill="black"/>
</g>
</g>
</g>
<defs>
<clipPath id="clip0_3104_1225">
<rect y="0.9375" width="55" height="55" rx="27.5" fill="white"/>
</clipPath>
<clipPath id="clip1_3104_1225">
<rect width="55" height="55" fill="white" transform="translate(0 0.9375)"/>
</clipPath>
<clipPath id="clip2_3104_1225">
<rect width="54.8926" height="55" fill="white" transform="translate(0.0527344 0.9375)"/>
</clipPath>
</defs>
</svg>
