<svg width="55" height="56" viewBox="0 0 55 56" fill="none" xmlns="http://www.w3.org/2000/svg">
<g clip-path="url(#clip0_3104_1223)">
<g clip-path="url(#clip1_3104_1223)">
<path d="M50.8015 24.5237H48.1258C47.9733 23.972 47.6454 23.4848 47.1916 23.136C46.7377 22.7871 46.1827 22.5955 45.6103 22.5901H42.7539V15.6051C42.7571 15.4745 42.7255 15.3453 42.6624 15.2308C42.5992 15.1164 42.5068 15.0208 42.3945 14.9539L22.2446 3.31562C22.131 3.24962 22.002 3.21484 21.8707 3.21484C21.7393 3.21484 21.6103 3.24962 21.4967 3.31562L1.34063 14.9539C1.22658 15.02 1.13197 15.115 1.06634 15.2294C1.00071 15.3437 0.966379 15.4733 0.966801 15.6051V38.8818C0.966804 39.0138 1.00155 39.1435 1.06755 39.2578C1.13355 39.3721 1.22847 39.467 1.34278 39.533L21.5009 51.1713C21.6152 51.2373 21.7449 51.2721 21.8769 51.2721C22.0123 51.2722 22.1455 51.2375 22.2636 51.1713L32.8711 45.0529V49.4759C32.87 49.897 32.9524 50.3141 33.1137 50.7031C33.2749 51.0922 33.5116 51.4454 33.8103 51.7422C34.1089 52.0391 34.4634 52.2739 34.8534 52.4328C35.2433 52.5918 35.661 52.6718 36.082 52.6682H50.8015C51.2237 52.6722 51.6425 52.5926 52.0338 52.434C52.4251 52.2755 52.7811 52.0411 53.0815 51.7444C53.3819 51.4477 53.6206 51.0945 53.7839 50.7052C53.9472 50.3159 54.032 49.8981 54.0332 49.4759V27.7659C54.0327 26.908 53.6924 26.0852 53.0867 25.4776C52.4811 24.87 51.6594 24.527 50.8015 24.5237ZM45.637 24.094C45.9265 24.094 46.2041 24.209 46.4088 24.4137C46.6135 24.6184 46.7285 24.896 46.7285 25.1855V25.2584C46.7285 25.5479 46.6135 25.8255 46.4088 26.0302C46.2041 26.2349 45.9265 26.3499 45.637 26.3499H41.2673C40.9778 26.3499 40.7002 26.2349 40.4955 26.0302C40.2908 25.8255 40.1758 25.5479 40.1758 25.2584V25.1855C40.1758 24.896 40.2908 24.6184 40.4955 24.4137C40.7002 24.209 40.9778 24.094 41.2673 24.094H45.637ZM21.8769 4.83511L30.253 9.67103L11.6001 20.4403L3.22406 15.6044L21.8769 4.83511ZM21.1621 49.2176L2.47071 38.4476V16.9059L21.1621 27.6759V49.2176ZM21.8769 26.3735L13.104 21.3085L31.7569 10.5393L40.5303 15.6044L21.8769 26.3735ZM32.8711 27.7659V43.3164L22.666 49.2176V27.6759L41.25 16.9059V22.5901H41.2733C40.7009 22.5955 40.1458 22.7871 39.692 23.136C39.2381 23.4848 38.9102 23.9719 38.7578 24.5237H36.082C35.2263 24.5279 34.4073 24.8718 33.8051 25.4798C33.2029 26.0878 32.867 26.9102 32.8711 27.7659ZM52.5293 49.4759C52.5283 49.7006 52.4826 49.923 52.3949 50.1299C52.3072 50.3369 52.1793 50.5244 52.0185 50.6815C51.8578 50.8385 51.6674 50.9621 51.4585 51.045C51.2496 51.1279 51.0263 51.1685 50.8015 51.1643H36.082C35.8584 51.1681 35.6363 51.1271 35.4287 51.0439C35.2211 50.9606 35.0322 50.8366 34.8732 50.6793C34.7142 50.5221 34.5882 50.3346 34.5026 50.1279C34.4171 49.9212 34.3737 49.6996 34.375 49.4759V27.7659C34.3727 27.5396 34.4151 27.3151 34.4997 27.1052C34.5843 26.8954 34.7095 26.7042 34.868 26.5428C35.0266 26.3813 35.2154 26.2527 35.4237 26.1643C35.6321 26.0759 35.8558 26.0295 36.082 26.0276H38.7871C38.9484 26.5599 39.2778 27.0255 39.7261 27.3548C40.1743 27.684 40.7172 27.8591 41.2733 27.8538H45.6103C46.1664 27.8591 46.7092 27.684 47.1575 27.3548C47.6057 27.0255 47.9351 26.5599 48.0963 26.0276H50.8015C51.2607 26.0305 51.7001 26.2149 52.0238 26.5406C52.3475 26.8663 52.5292 27.3067 52.5293 27.7659V49.4759Z" fill="black"/>
<path d="M36.9477 35.373H37.7347C37.9342 35.373 38.1254 35.2938 38.2665 35.1528C38.4075 35.0118 38.4867 34.8205 38.4867 34.6211C38.4867 34.4217 38.4075 34.2304 38.2665 34.0894C38.1254 33.9484 37.9342 33.8691 37.7347 33.8691H37.7051V31.8281H39.7791C39.8263 31.9793 39.9218 32.1109 40.0509 32.2026C40.18 32.2943 40.3357 32.3411 40.494 32.3359C40.6937 32.3365 40.8854 32.2578 41.0271 32.1171C41.1689 31.9765 41.249 31.7853 41.25 31.5857V31.0797C41.2483 30.8791 41.1675 30.6872 41.0252 30.5457C40.8829 30.4043 40.6906 30.3247 40.4899 30.3242H36.9477C36.849 30.3247 36.7514 30.3447 36.6605 30.3829C36.5696 30.4212 36.4871 30.477 36.4178 30.5472C36.3484 30.6173 36.2936 30.7005 36.2565 30.7919C36.2193 30.8833 36.2005 30.9811 36.2012 31.0797V34.622C36.2006 34.7204 36.2195 34.8179 36.2567 34.909C36.294 35.0001 36.3488 35.0829 36.4182 35.1527C36.4876 35.2226 36.5701 35.2779 36.6609 35.3158C36.7518 35.3536 36.8493 35.373 36.9477 35.373Z" fill="black"/>
<path d="M36.9531 42.248H40.498C40.6975 42.248 40.8887 42.1688 41.0298 42.0278C41.1708 41.8868 41.25 41.6955 41.25 41.4961V37.9512C41.25 37.7517 41.1708 37.5605 41.0298 37.4195C40.8887 37.2784 40.6975 37.1992 40.498 37.1992H36.9531C36.7537 37.1992 36.5624 37.2784 36.4214 37.4195C36.2804 37.5605 36.2012 37.7517 36.2012 37.9512V41.4961C36.2012 41.6955 36.2804 41.8868 36.4214 42.0278C36.5624 42.1688 36.7537 42.248 36.9531 42.248ZM37.7051 38.7031H39.7461V40.7441H37.7051V38.7031Z" fill="black"/>
<path d="M37.7349 47.6191H37.7051V45.5781H39.7385C39.7424 45.7759 39.8236 45.9642 39.9648 46.1028C40.1059 46.2413 40.2958 46.319 40.4935 46.3192C40.6913 46.3194 40.8813 46.2421 41.0227 46.1038C41.1642 45.9656 41.2458 45.7774 41.2501 45.5796V44.8551C41.2493 44.6518 41.1696 44.4567 41.0278 44.311C40.886 44.1654 40.6931 44.0805 40.4899 44.0742H36.9477C36.7459 44.081 36.5548 44.1665 36.4153 44.3125C36.2758 44.4584 36.1989 44.6532 36.2012 44.8551V48.3973C36.2011 48.4944 36.2205 48.5905 36.2583 48.68C36.296 48.7694 36.3513 48.8504 36.4209 48.9181C36.4905 48.9858 36.573 49.0388 36.6635 49.074C36.754 49.1092 36.8506 49.1259 36.9477 49.123H37.7349C37.9343 49.123 38.1256 49.0438 38.2666 48.9028C38.4076 48.7618 38.4868 48.5705 38.4868 48.3711C38.4868 48.1717 38.4076 47.9804 38.2666 47.8394C38.1256 47.6984 37.9343 47.6191 37.7349 47.6191Z" fill="black"/>
<path d="M42.2222 31.2479L40.02 33.4501L39.3501 32.7801C39.2803 32.7103 39.1974 32.6549 39.1062 32.6171C39.0149 32.5793 38.9172 32.5598 38.8184 32.5598C38.7196 32.5598 38.6219 32.5793 38.5306 32.6171C38.4394 32.6549 38.3565 32.7103 38.2867 32.7801C38.2168 32.8499 38.1614 32.9328 38.1236 33.024C38.0859 33.1153 38.0664 33.2131 38.0664 33.3118C38.0664 33.4106 38.0859 33.5084 38.1236 33.5996C38.1614 33.6908 38.2168 33.7737 38.2867 33.8436L39.4884 35.0452C39.5582 35.115 39.6411 35.1704 39.7323 35.2082C39.8236 35.246 39.9214 35.2654 40.0201 35.2654C40.1189 35.2654 40.2167 35.246 40.3079 35.2082C40.3991 35.1704 40.482 35.115 40.5519 35.0452L43.286 32.3111C43.427 32.1701 43.5062 31.9788 43.5062 31.7793C43.5062 31.5799 43.427 31.3886 43.286 31.2476C43.1449 31.1066 42.9537 31.0273 42.7542 31.0273C42.5548 31.0273 42.3635 31.1066 42.2225 31.2476L42.2222 31.2479Z" fill="black"/>
<path d="M42.2222 45.1307L40.02 47.3329L39.3501 46.6629C39.2803 46.5931 39.1974 46.5377 39.1062 46.4999C39.0149 46.4621 38.9172 46.4426 38.8184 46.4426C38.7196 46.4426 38.6219 46.4621 38.5306 46.4999C38.4394 46.5377 38.3565 46.5931 38.2867 46.6629C38.2168 46.7327 38.1614 46.8156 38.1236 46.9069C38.0859 46.9981 38.0664 47.0959 38.0664 47.1946C38.0664 47.2934 38.0859 47.3912 38.1236 47.4824C38.1614 47.5736 38.2168 47.6565 38.2867 47.7264L39.4884 48.928C39.5582 48.9978 39.6411 49.0532 39.7323 49.091C39.8236 49.1288 39.9214 49.1483 40.0201 49.1483C40.1189 49.1483 40.2167 49.1288 40.3079 49.091C40.3991 49.0532 40.482 48.9978 40.5519 48.928L43.286 46.1939C43.427 46.0529 43.5062 45.8616 43.5062 45.6621C43.5062 45.4627 43.427 45.2714 43.286 45.1304C43.1449 44.9894 42.9537 44.9102 42.7542 44.9102C42.5548 44.9102 42.3635 44.9894 42.2225 45.1304L42.2222 45.1307Z" fill="black"/>
<path d="M49.9358 32.1484H45.2129C45.0135 32.1484 44.8222 32.2277 44.6812 32.3687C44.5402 32.5097 44.4609 32.701 44.4609 32.9004C44.4609 33.0998 44.5402 33.2911 44.6812 33.4321C44.8222 33.5731 45.0135 33.6523 45.2129 33.6523H49.9358C50.1352 33.6523 50.3265 33.5731 50.4675 33.4321C50.6085 33.2911 50.6878 33.0998 50.6878 32.9004C50.6878 32.701 50.6085 32.5097 50.4675 32.3687C50.3265 32.2277 50.1352 32.1484 49.9358 32.1484Z" fill="black"/>
<path d="M49.9358 39.0234H45.2129C45.0135 39.0234 44.8222 39.1027 44.6812 39.2437C44.5402 39.3847 44.4609 39.576 44.4609 39.7754C44.4609 39.9748 44.5402 40.1661 44.6812 40.3071C44.8222 40.4481 45.0135 40.5273 45.2129 40.5273H49.9358C50.1352 40.5273 50.3265 40.4481 50.4675 40.3071C50.6085 40.1661 50.6878 39.9748 50.6878 39.7754C50.6878 39.576 50.6085 39.3847 50.4675 39.2437C50.3265 39.1027 50.1352 39.0234 49.9358 39.0234Z" fill="black"/>
<path d="M49.9358 45.8984H45.2129C45.0135 45.8984 44.8222 45.9777 44.6812 46.1187C44.5402 46.2597 44.4609 46.451 44.4609 46.6504C44.4609 46.8498 44.5402 47.0411 44.6812 47.1821C44.8222 47.3231 45.0135 47.4023 45.2129 47.4023H49.9358C50.1352 47.4023 50.3265 47.3231 50.4675 47.1821C50.6085 47.0411 50.6878 46.8498 50.6878 46.6504C50.6878 46.451 50.6085 46.2597 50.4675 46.1187C50.3265 45.9777 50.1352 45.8984 49.9358 45.8984Z" fill="black"/>
</g>
</g>
<defs>
<clipPath id="clip0_3104_1223">
<rect y="0.460938" width="55" height="55" rx="27.5" fill="white"/>
</clipPath>
<clipPath id="clip1_3104_1223">
<rect width="55" height="55" fill="white" transform="translate(0 0.460938)"/>
</clipPath>
</defs>
</svg>
