<svg width="65" height="65" viewBox="0 0 65 65" fill="none" xmlns="http://www.w3.org/2000/svg">
<g clip-path="url(#clip0_3102_831)">
<path fill-rule="evenodd" clip-rule="evenodd" d="M56.6084 31.9992C56.6084 39.3734 53.7366 46.3063 48.5218 51.521C43.3062 56.7368 36.3733 59.6091 29 59.6091C28.0778 59.6091 27.3301 58.8615 27.3301 57.9392C27.3301 57.017 28.0778 56.2693 29 56.2693C35.4811 56.2693 41.5754 53.7443 46.1602 49.1594C55.6223 39.6972 55.6223 24.3012 46.1602 14.839C36.6971 5.37598 21.2997 5.37609 11.8367 14.839C11.7641 14.9116 11.6927 14.9853 11.621 15.0589H13.7295C14.6517 15.0589 15.3994 15.8065 15.3994 16.7288C15.3994 17.651 14.6517 18.3987 13.7295 18.3987H7.58526C6.66301 18.3987 5.91533 17.651 5.91533 16.7288V10.5846C5.91533 9.66234 6.66301 8.91466 7.58526 8.91466C8.5075 8.91466 9.25518 9.66234 9.25518 10.5846V12.7015C9.32832 12.6267 9.40102 12.5513 9.47494 12.4774C14.6898 7.26277 21.6233 4.39084 28.9986 4.39084C36.3738 4.39084 43.3072 7.26266 48.5219 12.4774C53.7367 17.6921 56.6085 24.6249 56.6085 31.9992H56.6084ZM11.6367 31.9992C11.6367 22.425 19.4259 14.6359 29 14.6359C38.5741 14.6359 46.3633 22.425 46.3633 31.9992C46.3633 41.5734 38.5742 49.3625 29 49.3625C19.4258 49.3625 11.6367 41.5734 11.6367 31.9992ZM27.3301 31.9992C27.3301 32.5957 27.6483 33.147 28.1648 33.4453L33.8198 36.7114C34.0829 36.8634 34.37 36.9355 34.6535 36.9355C35.2305 36.9355 35.7918 36.636 36.1011 36.1005C36.5623 35.3019 36.2889 34.2805 35.4902 33.8193L30.6699 31.0353V23.1885C30.6699 22.2662 29.9222 21.5186 29 21.5186C28.0778 21.5186 27.3301 22.2662 27.3301 23.1885V31.9993V31.9992ZM4.72936 31.9992C4.72936 31.0809 3.98145 30.3298 3.05999 30.3298C2.13853 30.3298 1.39062 31.0809 1.39062 31.9992C1.39062 32.9176 2.14164 33.6686 3.05999 33.6686C3.97834 33.6686 4.72936 32.9176 4.72936 31.9992ZM22.717 55.4399C21.827 55.2032 20.9119 55.7302 20.6721 56.6233C20.4354 57.5133 20.9624 58.4284 21.8523 58.6682C22.7454 58.9049 23.6605 58.3779 23.8972 57.4848C24.137 56.5948 23.61 55.6797 22.717 55.4399ZM16.8662 53.0163C16.0647 52.5555 15.0454 52.8302 14.5847 53.6285C14.1239 54.4269 14.3953 55.4494 15.1938 55.91C15.9922 56.3707 17.0146 56.0962 17.4753 55.2978C17.9361 54.4994 17.6647 53.477 16.8662 53.0163ZM9.47561 49.16C8.82556 49.8133 8.82556 50.8704 9.47561 51.5205C10.1289 52.1738 11.1861 52.1738 11.8392 51.5205C12.4893 50.8704 12.4893 49.8133 11.8392 49.16C11.1859 48.5067 10.1288 48.5067 9.47561 49.16ZM5.70136 43.5239C4.90292 43.9846 4.62838 45.0039 5.08917 45.8023C5.54984 46.6008 6.57239 46.8753 7.37073 46.4145C8.16917 45.9539 8.44371 44.9313 7.98292 44.133C7.52224 43.3345 6.4997 43.06 5.70136 43.5239ZM5.55619 38.2791C5.31951 37.3892 4.40439 36.8622 3.51131 37.0989C2.62136 37.3387 2.09121 38.254 2.33101 39.1438C2.57081 40.0369 3.48604 40.5639 4.37589 40.3272C5.26585 40.0874 5.7961 39.1722 5.55619 38.2791ZM3.51131 26.8996C4.40439 27.1363 5.31951 26.6093 5.55619 25.7194C5.79599 24.8263 5.26585 23.9112 4.376 23.6713C3.48604 23.4346 2.57093 23.9617 2.33112 24.8547C2.09132 25.7447 2.62147 26.6598 3.51143 26.8996H3.51131Z" fill="black"/>
</g>
<defs>
<clipPath id="clip0_3102_831">
<rect width="65" height="65" rx="32.5" fill="white"/>
</clipPath>
</defs>
</svg>
