<svg width="55" height="55" viewBox="0 0 55 55" fill="none" xmlns="http://www.w3.org/2000/svg">
<g clip-path="url(#clip0_3104_1227)">
<g clip-path="url(#clip1_3104_1227)">
<path d="M52.4219 39.5312H42.9688V31.7969C42.9688 31.569 42.8782 31.3504 42.717 31.1892C42.5559 31.028 42.3373 30.9375 42.1094 30.9375H29.2188V2.57812C29.2188 2.3502 29.1282 2.13162 28.967 1.97046C28.8059 1.80929 28.5873 1.71875 28.3594 1.71875H2.57812C2.3502 1.71875 2.13162 1.80929 1.97046 1.97046C1.80929 2.13162 1.71875 2.3502 1.71875 2.57812V52.4219C1.71875 52.6498 1.80929 52.8684 1.97046 53.0295C2.13162 53.1907 2.3502 53.2812 2.57812 53.2812H52.4219C52.6498 53.2812 52.8684 53.1907 53.0295 53.0295C53.1907 52.8684 53.2812 52.6498 53.2812 52.4219V40.3906C53.2812 40.1627 53.1907 39.9441 53.0295 39.783C52.8684 39.6218 52.6498 39.5312 52.4219 39.5312ZM42.1094 41.25H43.8281V44.6875H42.1094V41.25ZM36.0938 32.6562V36.0938H34.375V32.6562H36.0938ZM25.7812 42.9688H27.5V46.4062H25.7812V42.9688ZM18.9062 42.1094V51.5625H3.4375V3.4375H27.5V41.25H19.7656C19.5377 41.25 19.3191 41.3405 19.158 41.5017C18.9968 41.6629 18.9062 41.8815 18.9062 42.1094ZM20.625 42.9688H24.0625V47.2656C24.0625 47.4935 24.153 47.7121 24.3142 47.8733C24.4754 48.0345 24.694 48.125 24.9219 48.125H28.3594C28.5873 48.125 28.8059 48.0345 28.967 47.8733C29.1282 47.7121 29.2188 47.4935 29.2188 47.2656V42.9688H32.6562V51.5625H20.625V42.9688ZM32.6562 40.3906V41.25H29.2188V32.6562H32.6562V36.9531C32.6562 37.181 32.7468 37.3996 32.908 37.5608C33.0691 37.722 33.2877 37.8125 33.5156 37.8125H36.9531C37.181 37.8125 37.3996 37.722 37.5608 37.5608C37.722 37.3996 37.8125 37.181 37.8125 36.9531V32.6562H41.25V39.5312H33.5156C33.2877 39.5312 33.0691 39.6218 32.908 39.783C32.7468 39.9441 32.6562 40.1627 32.6562 40.3906ZM51.5625 51.5625H34.375V41.25H40.3906V45.5469C40.3906 45.7748 40.4812 45.9934 40.6423 46.1545C40.8035 46.3157 41.0221 46.4062 41.25 46.4062H44.6875C44.9154 46.4062 45.134 46.3157 45.2952 46.1545C45.4563 45.9934 45.5469 45.7748 45.5469 45.5469V41.25H51.5625V51.5625Z" fill="black"/>
<path d="M24.0625 12.8906V7.73438C24.0625 7.50645 23.972 7.28787 23.8108 7.12671C23.6496 6.96554 23.431 6.875 23.2031 6.875H7.73438C7.50645 6.875 7.28787 6.96554 7.12671 7.12671C6.96554 7.28787 6.875 7.50645 6.875 7.73438V12.8906C6.875 13.1185 6.96554 13.3371 7.12671 13.4983C7.28787 13.6595 7.50645 13.75 7.73438 13.75H23.2031C23.431 13.75 23.6496 13.6595 23.8108 13.4983C23.972 13.3371 24.0625 13.1185 24.0625 12.8906ZM22.3438 12.0312H8.59375V8.59375H22.3438V12.0312Z" fill="black"/>
<path d="M25.7813 28.3594C25.7813 27.8495 25.63 27.351 25.3468 26.927C25.0635 26.5031 24.6608 26.1726 24.1897 25.9775C23.7186 25.7824 23.2003 25.7313 22.7002 25.8308C22.2001 25.9303 21.7407 26.1758 21.3801 26.5364C21.0196 26.8969 20.774 27.3563 20.6745 27.8564C20.5751 28.3565 20.6261 28.8749 20.8212 29.346C21.0164 29.8171 21.3468 30.2197 21.7708 30.503C22.1948 30.7863 22.6932 30.9375 23.2031 30.9375C23.8867 30.9367 24.542 30.6649 25.0253 30.1815C25.5086 29.6982 25.7805 29.0429 25.7813 28.3594ZM23.2031 29.2188C23.0332 29.2188 22.867 29.1684 22.7257 29.0739C22.5844 28.9795 22.4742 28.8453 22.4092 28.6882C22.3441 28.5312 22.3271 28.3584 22.3603 28.1917C22.3934 28.025 22.4753 27.8719 22.5955 27.7517C22.7156 27.6315 22.8688 27.5497 23.0355 27.5165C23.2022 27.4834 23.375 27.5004 23.532 27.5654C23.689 27.6305 23.8232 27.7406 23.9177 27.8819C24.0121 28.0233 24.0625 28.1894 24.0625 28.3594C24.0622 28.5872 23.9716 28.8057 23.8105 28.9668C23.6494 29.1279 23.431 29.2185 23.2031 29.2188Z" fill="black"/>
<path d="M38.6719 48.125H36.9531C36.7252 48.125 36.5066 48.2155 36.3455 48.3767C36.1843 48.5379 36.0938 48.7565 36.0938 48.9844C36.0938 49.2123 36.1843 49.4309 36.3455 49.592C36.5066 49.7532 36.7252 49.8438 36.9531 49.8438H38.6719C38.8998 49.8438 39.1184 49.7532 39.2795 49.592C39.4407 49.4309 39.5312 49.2123 39.5312 48.9844C39.5312 48.7565 39.4407 48.5379 39.2795 48.3767C39.1184 48.2155 38.8998 48.125 38.6719 48.125Z" fill="black"/>
</g>
</g>
<defs>
<clipPath id="clip0_3104_1227">
<rect width="55" height="55" rx="27.5" fill="white"/>
</clipPath>
<clipPath id="clip1_3104_1227">
<rect width="55" height="55" fill="white"/>
</clipPath>
</defs>
</svg>
