<svg width="65" height="65" viewBox="0 0 65 65" fill="none" xmlns="http://www.w3.org/2000/svg">
<g clip-path="url(#clip0_3102_830)">
<path d="M11.5594 30.9785C11.4605 30.8414 11.3306 30.7298 11.1802 30.6529C11.0298 30.5759 10.8632 30.5358 10.6943 30.5358C10.5253 30.5358 10.3588 30.5759 10.2084 30.6529C10.058 30.7298 9.928 30.8414 9.82917 30.9785L2.15521 43.151C2.05862 43.3051 2.00514 43.4824 2.00035 43.6642C1.99557 43.8461 2.03965 44.0259 2.128 44.185C2.21635 44.344 2.34574 44.4764 2.50269 44.5685C2.65963 44.6605 2.83839 44.7087 3.02032 44.7081H5.60544V58.5396C5.60625 58.8093 5.71374 59.0677 5.90443 59.2584C6.09512 59.4491 6.35353 59.5565 6.62321 59.5574H14.7653C15.035 59.5566 15.2934 59.4491 15.4841 59.2584C15.6748 59.0677 15.7823 58.8093 15.7831 58.5396V44.7081H18.3682C18.5502 44.7087 18.7289 44.6605 18.8859 44.5685C19.0428 44.4764 19.1722 44.344 19.2606 44.185C19.3489 44.0259 19.393 43.8461 19.3882 43.6642C19.3834 43.4824 19.3299 43.3051 19.2333 43.151L11.5594 30.9785Z" fill="black"/>
<path d="M31.365 16.343C31.2662 16.2059 31.1362 16.0943 30.9858 16.0173C30.8354 15.9404 30.6689 15.9002 30.4999 15.9002C30.3309 15.9002 30.1644 15.9404 30.014 16.0173C29.8636 16.0943 29.7336 16.2059 29.6348 16.343L21.9608 28.5155C21.8643 28.6696 21.8108 28.8469 21.806 29.0288C21.8012 29.2106 21.8453 29.3904 21.9337 29.5495C22.022 29.7085 22.1514 29.8409 22.3083 29.9329C22.4653 30.025 22.644 30.0732 22.8259 30.0727H25.4111V58.5396C25.4119 58.8093 25.5194 59.0677 25.7101 59.2584C25.9008 59.4491 26.1592 59.5565 26.4288 59.5573H34.571C34.8407 59.5565 35.0991 59.4491 35.2898 59.2584C35.4804 59.0677 35.5879 58.8093 35.5887 58.5396V30.0727H38.1739C38.3558 30.0732 38.5345 30.025 38.6915 29.9329C38.8484 29.8409 38.9778 29.7085 39.0661 29.5495C39.1545 29.3904 39.1986 29.2106 39.1938 29.0288C39.189 28.8469 39.1355 28.6696 39.039 28.5155L31.365 16.343Z" fill="black"/>
<path d="M58.8446 17.6152L51.1707 5.4427C51.0719 5.30567 50.9419 5.19407 50.7915 5.1171C50.6411 5.04014 50.4745 5 50.3056 5C50.1366 5 49.9701 5.04014 49.8197 5.1171C49.6693 5.19407 49.5393 5.30567 49.4405 5.4427L41.7665 17.6152C41.6699 17.7694 41.6165 17.9466 41.6117 18.1285C41.6069 18.3103 41.651 18.4902 41.7393 18.6492C41.8277 18.8082 41.9571 18.9407 42.114 19.0327C42.271 19.1247 42.4497 19.1729 42.6316 19.1724H45.2168V58.5396C45.2175 58.8093 45.325 59.0677 45.5157 59.2584C45.7064 59.4491 45.9648 59.5566 46.2345 59.5573H54.3767C54.6463 59.5565 54.9047 59.449 55.0954 59.2584C55.2861 59.0677 55.3936 58.8093 55.3944 58.5396V19.1724H57.9795C58.1615 19.1729 58.3402 19.1247 58.4972 19.0327C58.6541 18.9406 58.7835 18.8082 58.8718 18.6492C58.9602 18.4902 59.0043 18.3103 58.9995 18.1285C58.9947 17.9466 58.9412 17.7694 58.8446 17.6152Z" fill="black"/>
</g>
<defs>
<clipPath id="clip0_3102_830">
<rect width="65" height="65" rx="32.5" fill="white"/>
</clipPath>
</defs>
</svg>
