<svg width="55" height="56" viewBox="0 0 55 56" fill="none" xmlns="http://www.w3.org/2000/svg">
<g clip-path="url(#clip0_3104_1222)">
<g clip-path="url(#clip1_3104_1222)">
<path d="M52.2909 48.2412H49.8133V18.4897C49.8133 18.3697 49.7846 18.2514 49.7296 18.1447C49.6746 18.038 49.5948 17.9461 49.497 17.8765L27.9366 2.55687C27.8093 2.46651 27.657 2.41797 27.5009 2.41797C27.3448 2.41797 27.1925 2.46651 27.0652 2.55687L5.50477 17.8765C5.40697 17.9461 5.32723 18.038 5.27222 18.1447C5.2172 18.2514 5.1885 18.3697 5.18852 18.4897V48.2412H2.71094C2.61217 48.2412 2.51437 48.2606 2.42311 48.2984C2.33185 48.3361 2.24894 48.3915 2.1791 48.4614C2.10926 48.5312 2.05388 48.6141 2.01611 48.7054C1.97834 48.7966 1.95893 48.8944 1.95898 48.9932V52.7482C1.95893 52.847 1.97834 52.9448 2.01611 53.0361C2.05388 53.1273 2.10926 53.2102 2.1791 53.2801C2.24894 53.3499 2.33185 53.4053 2.42311 53.4431C2.51437 53.4808 2.61217 53.5002 2.71094 53.5002H52.2909C52.3896 53.5002 52.4874 53.4808 52.5787 53.4431C52.6699 53.4053 52.7529 53.3499 52.8227 53.2801C52.8925 53.2102 52.9479 53.1273 52.9857 53.0361C53.0235 52.9448 53.0429 52.847 53.0428 52.7482V48.9932C53.0429 48.8944 53.0235 48.7966 52.9857 48.7054C52.9479 48.6141 52.8925 48.5312 52.8227 48.4614C52.7529 48.3915 52.6699 48.3361 52.5787 48.2984C52.4874 48.2606 52.3896 48.2412 52.2909 48.2412ZM6.69242 18.8777L27.5009 4.09257L48.3094 18.8777V48.2412H45.1379V23.1973C45.1379 23.0986 45.1185 23.0008 45.0807 22.9095C45.043 22.8183 44.9876 22.7353 44.9177 22.6655C44.8479 22.5957 44.765 22.5403 44.6737 22.5025C44.5825 22.4647 44.4847 22.4453 44.3859 22.4454H10.6142C10.5154 22.4453 10.4176 22.4647 10.3264 22.5025C10.2351 22.5403 10.1522 22.5957 10.0823 22.6655C10.0125 22.7353 9.95712 22.8183 9.91935 22.9095C9.88158 23.0008 9.86217 23.0986 9.86223 23.1973V48.2412H6.69242V18.8777ZM37.9964 48.2412V39.2509C37.9964 39.0515 37.9172 38.8602 37.7762 38.7192C37.6352 38.5782 37.4439 38.4989 37.2445 38.4989H33.1246V29.5069C33.1246 29.3074 33.0454 29.1162 32.9044 28.9752C32.7634 28.8341 32.5721 28.7549 32.3727 28.7549H22.6291C22.4297 28.7549 22.2384 28.8341 22.0974 28.9752C21.9564 29.1162 21.8771 29.3074 21.8771 29.5069V38.4989H17.7573C17.5579 38.4989 17.3666 38.5782 17.2256 38.7192C17.0846 38.8602 17.0054 39.0515 17.0054 39.2509V48.2412H11.3679V23.9493H43.6339V48.2412H37.9964ZM18.5093 48.2412V42.9917H26.7489V48.2412H18.5093ZM36.4925 41.4878H28.2529V40.0028H36.4925V41.4878ZM31.6207 31.7443H23.3811V30.2592H31.6207V31.7443ZM23.3811 33.2482H31.6207V38.4989H23.3811V33.2482ZM26.7489 40.0028V41.4878H18.5093V40.0028H26.7489ZM28.2529 42.9917H36.4925V48.2412H28.2529V42.9917ZM51.5389 51.998H3.46289V49.7451H51.5389V51.998Z" fill="black"/>
<path d="M24.5723 20.7206H30.4306C30.6301 20.7206 30.8213 20.6414 30.9623 20.5003C31.1034 20.3593 31.1826 20.1681 31.1826 19.9686V17.0137C31.1825 16.8143 31.1032 16.6231 30.9622 16.4821C30.8212 16.3411 30.63 16.2618 30.4306 16.2617H24.5723C24.3729 16.2618 24.1817 16.3411 24.0407 16.4821C23.8997 16.6231 23.8204 16.8143 23.8203 17.0137V19.9695C23.8205 20.1688 23.8999 20.3598 24.0409 20.5006C24.1819 20.6415 24.373 20.7206 24.5723 20.7206ZM25.3242 17.7656H29.6787V19.2167H25.3242V17.7656Z" fill="black"/>
<path d="M33.5449 20.7206H39.4024C39.6019 20.7206 39.7931 20.6414 39.9341 20.5003C40.0752 20.3593 40.1544 20.1681 40.1544 19.9686V17.0137C40.1543 16.8143 40.075 16.6231 39.934 16.4821C39.793 16.3411 39.6018 16.2618 39.4024 16.2617H33.5449C33.3455 16.2618 33.1543 16.3411 33.0133 16.4821C32.8723 16.6231 32.7931 16.8143 32.793 17.0137V19.9695C32.7932 20.1688 32.8725 20.3598 33.0135 20.5006C33.1545 20.6415 33.3456 20.7206 33.5449 20.7206ZM34.2969 17.7656H38.6509V19.2167H34.2969V17.7656Z" fill="black"/>
<path d="M15.5977 20.7206H21.4552C21.6546 20.7206 21.8458 20.6414 21.9869 20.5003C22.1279 20.3593 22.2071 20.1681 22.2071 19.9686V17.0137C22.207 16.8143 22.1277 16.6231 21.9867 16.4821C21.8457 16.3411 21.6546 16.2618 21.4552 16.2617H15.5977C15.3983 16.2618 15.2071 16.3411 15.0661 16.4821C14.9251 16.6231 14.8458 16.8143 14.8457 17.0137V19.9695C14.8459 20.1688 14.9253 20.3598 15.0662 20.5006C15.2072 20.6415 15.3984 20.7206 15.5977 20.7206ZM16.3496 17.7656H20.7032V19.2167H16.3492L16.3496 17.7656Z" fill="black"/>
</g>
</g>
<defs>
<clipPath id="clip0_3104_1222">
<rect y="0.460938" width="55" height="55" rx="27.5" fill="white"/>
</clipPath>
<clipPath id="clip1_3104_1222">
<rect width="55" height="55" fill="white" transform="translate(0 0.460938)"/>
</clipPath>
</defs>
</svg>
