<svg width="58" height="58" viewBox="0 0 58 58" fill="none" xmlns="http://www.w3.org/2000/svg">
<g clip-path="url(#clip0_3102_808)">
<path d="M27.6756 12.4121C25.9389 12.8129 24.5027 14.0041 23.7568 15.5738H26.1393C26.451 14.416 26.9854 13.3473 27.6756 12.4121Z" fill="black"/>
<path d="M34.2439 20.5502H31.8615C31.5498 21.708 31.0154 22.7768 30.3252 23.7119C32.0619 23.3111 33.498 22.1311 34.2439 20.5502Z" fill="black"/>
<path d="M31.7389 45.8439C36.6707 39.3201 46.5678 25.3484 46.5678 18.0676C46.5678 8.3709 38.708 0.5 29.0002 0.5C19.2924 0.5 11.4326 8.3709 11.4326 18.0676C11.4326 25.3484 21.3297 39.3312 26.2615 45.8439C27.642 47.6586 30.3584 47.6586 31.7389 45.8439ZM15.3625 18.0676C15.3625 10.5307 21.4633 4.42988 29.0002 4.42988C36.5371 4.42988 42.6379 10.5307 42.6379 18.0676C42.6379 25.6045 36.526 31.7053 29.0002 31.7053C21.4744 31.7053 15.3625 25.5934 15.3625 18.0676Z" fill="black"/>
<path d="M43.8291 39.1086C42.9273 38.808 41.9365 39.1531 41.4021 39.9436L41.3799 39.977C40.634 41.1014 41.1127 42.6266 42.3707 43.1164C45.1539 44.2074 46.835 45.6324 46.835 47.2022C46.835 50.6088 38.8305 53.3809 28.9891 53.3809C19.1477 53.3809 11.1543 50.6088 11.1543 47.2022C11.1543 45.6436 12.8465 44.2074 15.6186 43.1164C16.8766 42.6266 17.3664 41.1014 16.6094 39.977C16.5982 39.9658 16.5982 39.9547 16.5871 39.9436C16.0639 39.1531 15.0619 38.808 14.1602 39.1086C8.56035 40.99 4.97559 43.918 4.97559 47.2022C4.97559 52.891 15.7299 57.5 28.9891 57.5C42.2482 57.5 53.0025 52.891 53.0025 47.2022C53.0137 43.918 49.4289 40.99 43.8291 39.1086Z" fill="black"/>
<path d="M39.2979 18.0676C39.2979 12.3787 34.6889 7.76971 29 7.76971C23.3111 7.76971 18.7021 12.3787 18.7021 18.0676C18.7021 23.7564 23.3111 28.3654 29 28.3654C34.6889 28.3654 39.2979 23.7564 39.2979 18.0676ZM29 11.2098C30.3248 11.2098 31.5494 11.5883 32.5959 12.234L31.8277 13.0021C31.3602 12.7461 30.8592 12.5457 30.3248 12.4232C30.6254 12.824 30.8926 13.2582 31.1264 13.7146L30.3359 14.5051C29.9908 13.7703 29.5344 13.0801 29 12.4789C28.2096 13.3695 27.5973 14.4271 27.241 15.5961H29.2449L28.1873 16.6537H26.985C26.907 17.0879 26.8736 17.5332 26.8625 17.9785L25.8494 18.9916C25.816 18.691 25.8049 18.3904 25.8049 18.0787C25.8049 17.5889 25.8494 17.1101 25.9162 16.6426H23.3779C23.2555 17.099 23.1998 17.5777 23.1998 18.0787C23.1998 18.5797 23.2666 19.0473 23.3779 19.5148H25.3262L24.2686 20.5724H23.7453C23.801 20.6838 23.8566 20.8062 23.9234 20.9176L23.1553 21.6857C22.5096 20.6392 22.1311 19.4035 22.1311 18.0787C22.1422 14.2713 25.2148 11.1986 29 11.2098ZM23.1664 23.9012C22.9549 23.6896 22.9549 23.3557 23.1664 23.1553L34.0988 12.2228C34.2992 12.0224 34.6332 12.0224 34.8447 12.2228C35.0562 12.4232 35.0562 12.7572 34.8447 12.9687L23.9123 23.9012C23.7008 24.1127 23.3668 24.1127 23.1664 23.9012ZM26.1723 23.133C26.6398 23.3891 27.1408 23.5894 27.6752 23.7119C27.3746 23.3111 27.1074 22.8769 26.8736 22.4205L27.6641 21.6301C28.0092 22.3648 28.4545 23.0551 29 23.6562C29.7904 22.7656 30.4027 21.708 30.759 20.539H28.7551L29.8127 19.4814H31.015C31.093 19.0473 31.1264 18.6019 31.1375 18.1566L32.1506 17.1435C32.184 17.4441 32.1951 17.7447 32.1951 18.0564C32.1951 18.5463 32.1506 19.025 32.0838 19.4926H34.6221C34.7334 19.0361 34.8002 18.5574 34.8002 18.0564C34.8002 17.5555 34.7334 17.0879 34.6221 16.6203H32.6738L33.7314 15.5627H34.2547C34.199 15.4514 34.1434 15.3289 34.0766 15.2176L34.8559 14.4494C35.5016 15.4959 35.8801 16.7316 35.8801 18.0564C35.8801 21.8416 32.8074 24.9142 29.0223 24.9142C27.6975 24.9142 26.4729 24.5357 25.4264 23.89L26.1723 23.133Z" fill="black"/>
</g>
<defs>
<clipPath id="clip0_3102_808">
<rect width="57" height="57" fill="white" transform="translate(0.5 0.5)"/>
</clipPath>
</defs>
</svg>
