<svg width="55" height="56" viewBox="0 0 55 56" fill="none" xmlns="http://www.w3.org/2000/svg">
<g clip-path="url(#clip0_3104_1226)">
<g clip-path="url(#clip1_3104_1226)">
<path d="M45.8435 15.5649L16.3973 3.53906L7.45247 25.4372L6.85542 26.9085L8.33731 27.5162L8.93436 26.0344L17.2715 5.62874L41.611 15.5649H17.8046V48.0605L2.49506 41.8023L6.04514 33.1026L6.51425 31.962L5.043 31.3543L4.57399 32.5057L0.416016 42.6765L17.8046 49.7876V53.3697H54.7458V29.1794V28.9022V27.5802H53.1465V28.9022V29.1794V51.7706H19.4037V50.4378V17.1641H49.7564H53.1465V21.1834V22.7827H54.7458V21.1834V15.5649H45.8435Z" fill="black"/>
<path d="M53.1465 24.3828H54.7458V25.982H53.1465V24.3828Z" fill="black"/>
<path d="M7.71875 29.0039L7.11422 30.4849L5.63327 29.8803L6.2378 28.3994L7.71875 29.0039Z" fill="black"/>
<path d="M22.623 48.2321H23.1348H30.8002H32.1755H49.8093H49.9265V20.918H22.623V48.2321ZM33.5082 46.633L40.7258 33.5516L42.6129 37.3577H39.2759V38.957H43.4018L47.2185 46.6438H33.5082V46.633ZM48.3273 22.5173V45.2577L40.7898 30.0974L31.6744 46.633H25.8321L33.0604 33.5197L34.7129 36.7287L36.1309 35.9931L33.1029 30.1081L24.2222 46.2599V22.5173H48.3273Z" fill="black"/>
<path d="M43.9358 29.8088C45.6308 29.8088 47.0061 28.4335 47.0061 26.7384C47.0061 25.0433 45.6308 23.668 43.9358 23.668C42.2406 23.668 40.8652 25.0433 40.8652 26.7384C40.8652 28.4335 42.2406 29.8088 43.9358 29.8088ZM43.9358 25.2673C44.746 25.2673 45.407 25.9282 45.407 26.7385C45.407 27.5487 44.746 28.2098 43.9358 28.2098C43.1254 28.2098 42.4645 27.5488 42.4645 26.7385C42.4645 25.9282 43.1254 25.2673 43.9358 25.2673Z" fill="black"/>
</g>
</g>
<defs>
<clipPath id="clip0_3104_1226">
<rect y="0.9375" width="55" height="55" rx="27.5" fill="white"/>
</clipPath>
<clipPath id="clip1_3104_1226">
<rect width="55" height="55" fill="white" transform="translate(0 0.9375)"/>
</clipPath>
</defs>
</svg>
