<svg width="55" height="56" viewBox="0 0 55 56" fill="none" xmlns="http://www.w3.org/2000/svg">
<g clip-path="url(#clip0_3104_1224)">
<g clip-path="url(#clip1_3104_1224)">
<g clip-path="url(#clip2_3104_1224)">
<path d="M40.9856 39.3509C41.4306 39.3509 41.7913 38.9903 41.7913 38.5453V36.2854L42.5209 36.7977C42.6617 36.8967 42.8232 36.9442 42.9831 36.9442C43.2367 36.9442 43.4865 36.8247 43.6432 36.6014C43.899 36.2372 43.811 35.7348 43.4468 35.4791L41.4486 34.076C41.1708 33.8809 40.8005 33.8809 40.5227 34.076L38.5245 35.4791C38.1602 35.7348 38.0723 36.2373 38.3281 36.6014C38.5839 36.9656 39.0863 37.0537 39.4503 36.7977L40.1799 36.2854V38.5453C40.1799 38.9902 40.5405 39.3509 40.9856 39.3509Z" fill="black"/>
<path d="M25.7119 25.7051H33.3492C33.7942 25.7051 34.1548 25.3445 34.1548 24.8994C34.1548 24.4544 33.7942 24.0938 33.3492 24.0938H25.7119C25.267 24.0938 24.9062 24.4544 24.9062 24.8994C24.9062 25.3445 25.267 25.7051 25.7119 25.7051Z" fill="black"/>
<path d="M25.7119 28.8926H30.3607C30.8058 28.8926 31.1664 28.532 31.1664 28.0869C31.1664 27.6419 30.8058 27.2812 30.3607 27.2812H25.7119C25.267 27.2812 24.9062 27.6419 24.9062 28.0869C24.9062 28.532 25.267 28.8926 25.7119 28.8926Z" fill="black"/>
<path d="M54.8663 20.2146L48.106 9.99396C47.9568 9.76838 47.7045 9.63281 47.434 9.63281H21.1603H7.566C7.29562 9.63281 7.04318 9.76849 6.89408 9.99396L4.42799 13.7223C4.18253 14.0934 4.28437 14.5932 4.65551 14.8388C5.02655 15.0839 5.52638 14.9823 5.77195 14.6113L7.99902 11.2441H19.6615L13.9671 19.8535H2.30458L3.99454 17.2984C4.24 16.9273 4.13817 16.4275 3.76702 16.1819C3.39588 15.9366 2.89605 16.0384 2.65059 16.4094L0.133694 20.2146C-0.0299094 20.462 -0.0444114 20.7793 0.095989 21.0405C0.236389 21.3018 0.509026 21.4647 0.805618 21.4647H6.76023V45.1795C6.76023 46.3174 7.68599 47.243 8.8238 47.243H24.5001C24.945 47.243 25.3058 46.8824 25.3058 46.4374C25.3058 45.9923 24.945 45.6317 24.5001 45.6317H21.966V13.1169L27.2486 21.1035C27.3978 21.3291 27.6501 21.4647 27.9205 21.4647H37.3775C37.8226 21.4647 38.1832 21.1041 38.1832 20.659C38.1832 20.214 37.8226 19.8534 37.3775 19.8534H28.3535L22.6591 11.244H47.001L52.6954 19.8534H40.5989C40.1538 19.8534 39.7932 20.214 39.7932 20.659C39.7932 21.1041 40.1538 21.4647 40.5989 21.4647H46.6285V45.1795C46.6285 45.4288 46.4255 45.6317 46.1762 45.6317H38.5438V41.7101C38.5438 41.265 38.1832 40.9044 37.7381 40.9044H30.8564C30.4113 40.9044 30.0507 41.265 30.0507 41.7101V45.6317H27.7214C27.2764 45.6317 26.9157 45.9923 26.9157 46.4374C26.9157 46.8824 27.2764 47.243 27.7214 47.243H46.1762C47.3141 47.243 48.2398 46.3174 48.2398 45.1795V21.4648H54.1944C54.491 21.4648 54.7636 21.3018 54.904 21.0406C55.0444 20.7793 55.0299 20.462 54.8663 20.2146ZM8.37166 45.1795V21.4648H14.4001C14.6705 21.4648 14.9229 21.3291 15.072 21.1036L20.3547 13.117V45.6318H8.82391C8.57448 45.6317 8.37166 45.4289 8.37166 45.1795ZM31.662 45.6317V42.5157H36.9325V45.6317H31.662Z" fill="black"/>
</g>
</g>
</g>
<defs>
<clipPath id="clip0_3104_1224">
<rect y="0.9375" width="55" height="55" rx="27.5" fill="white"/>
</clipPath>
<clipPath id="clip1_3104_1224">
<rect width="55" height="55" fill="white" transform="translate(0 0.9375)"/>
</clipPath>
<clipPath id="clip2_3104_1224">
<rect width="55" height="55" fill="white" transform="translate(0 0.9375)"/>
</clipPath>
</defs>
</svg>
