<svg width="61" height="60" viewBox="0 0 61 60" fill="none" xmlns="http://www.w3.org/2000/svg">
<g clip-path="url(#clip0_3104_972)">
<path d="M3.66602 30.0014H57.4571V60.0003H3.66602V30.0014Z" fill="#668796"/>
<path d="M40.9062 30.0014H42.9751V60.0003H40.9062V30.0014Z" fill="#4D6877"/>
<path d="M7.80371 41.3802H37.8026V50.6902H7.80371V41.3802Z" fill="white"/>
<path d="M3.66602 55.8625H41.9404V60.0003H3.66602V55.8625Z" fill="#4D6877"/>
<path d="M54.3533 17.5881V13.4503H6.7689V17.5881L1.59668 27.9325V30.0014H59.5255V27.9325L54.3533 17.5881Z" fill="#5CC4A6"/>
<path d="M6.76953 13.4503H54.3539V17.5881H6.76953V13.4503Z" fill="#239172"/>
<path d="M30.5617 0.00253851C26.1138 -0.101007 22.3897 3.31245 22.2861 7.76086V8.48467C22.2861 9.7262 22.5968 10.8642 23.114 12.0017L30.5617 24.8292L38.0099 12.0017C38.6306 10.9672 38.8372 9.7262 38.8372 8.48467V7.76086C38.7337 3.31245 35.0101 -0.101007 30.5617 0.00253851Z" fill="#EF4848"/>
<path d="M33.6647 7.24365C33.6647 8.95745 32.2756 10.347 30.5613 10.347C28.8475 10.347 27.458 8.95745 27.458 7.24365C27.458 5.52934 28.8475 4.14032 30.5613 4.14032C32.2756 4.14032 33.6647 5.52934 33.6647 7.24365Z" fill="white"/>
<path d="M1.59668 30.0014V33.622C1.59668 35.5873 3.25189 37.2425 5.21723 37.2425C7.18257 37.2425 8.83778 35.5873 8.83778 33.622V30.0014" fill="#2AB793"/>
<path d="M16.079 30.0014V33.622C16.079 35.5873 14.4238 37.2425 12.4584 37.2425C10.4931 37.2425 8.83789 35.5873 8.83789 33.622V30.0014" fill="#F7D289"/>
<path d="M23.3202 30.0014V33.622C23.3202 35.5873 21.665 37.2425 19.6997 37.2425C17.7343 37.2425 16.0791 35.5873 16.0791 33.622V30.0014" fill="#2AB793"/>
<path d="M30.5614 30.0014V33.622C30.5614 35.5873 28.9062 37.2425 26.9409 37.2425C24.9755 37.2425 23.3203 35.5873 23.3203 33.622V30.0014" fill="#F7D289"/>
<path d="M30.5615 30.0014V33.622C30.5615 35.5873 32.2167 37.2425 34.1821 37.2425C36.1474 37.2425 37.8026 35.5873 37.8026 33.622V30.0014" fill="#2AB793"/>
<path d="M37.8027 30.0014V33.622C37.8027 35.5873 39.4579 37.2425 41.4233 37.2425C43.3886 37.2425 45.0438 35.5873 45.0438 33.622V30.0014" fill="#F7D289"/>
<path d="M45.0439 30.0014V33.622C45.0439 35.5873 46.6992 37.2425 48.6645 37.2425C50.6298 37.2425 52.285 35.5873 52.285 33.622V30.0014" fill="#2AB793"/>
<path d="M52.2852 30.0014V33.622C52.2852 35.5873 53.9404 37.2425 55.9057 37.2425C57.871 37.2425 59.5263 35.5873 59.5263 33.622V30.0014" fill="#F7D289"/>
<path d="M31.5958 50.6902H27.458L36.768 41.3802H37.8024V44.4836L31.5958 50.6902Z" fill="#E4E7EA"/>
<path d="M23.3204 50.6902H19.1826L28.4926 41.3802H32.6304L23.3204 50.6902Z" fill="#E4E7EA"/>
<path d="M15.045 50.6902H10.9072L20.2172 41.3802H24.355L15.045 50.6902Z" fill="#E4E7EA"/>
<path d="M7.80371 49.6558V45.518L11.9415 41.3802H16.0793L7.80371 49.6558Z" fill="#E4E7EA"/>
<path d="M45.0439 39.3113H55.3884V57.9313H45.0439V39.3113Z" fill="white"/>
<path d="M45.0439 45.518H47.1128V47.5869H45.0439V45.518Z" fill="#668796"/>
<path d="M45.0439 55.8625V51.7247L55.3884 41.3802V45.518L45.0439 55.8625Z" fill="#E4E7EA"/>
<path d="M52.2852 57.9313H48.1475L55.3886 50.6902V54.828L52.2852 57.9313Z" fill="#E4E7EA"/>
</g>
<defs>
<clipPath id="clip0_3104_972">
<rect width="60" height="60" fill="white" transform="translate(0.560547)"/>
</clipPath>
</defs>
</svg>
