<svg width="72" height="70" viewBox="0 0 72 70" fill="none" xmlns="http://www.w3.org/2000/svg">
<g clip-path="url(#clip0_3104_974)">
<g clip-path="url(#clip1_3104_974)">
<g clip-path="url(#clip2_3104_974)">
<path d="M29.5098 48.2702C29.5098 47.5398 30.0359 46.9492 30.684 46.9492C31.3332 46.9492 31.8582 47.5398 31.8582 48.2702C31.8582 48.9996 31.3332 49.5911 30.684 49.5911C30.0359 49.5911 29.5098 48.9996 29.5098 48.2702Z" fill="#F5B54C"/>
<path d="M24.6649 44.1602C24.6649 44.1602 26.2795 46.6565 26.4262 46.8033C26.5741 47.0968 28.0419 47.684 28.0419 47.684L29.216 46.8033C29.6563 46.363 30.3914 46.0694 30.6849 45.9226C30.9785 45.7758 32.0059 45.9226 32.1527 46.363C32.2995 46.8033 32.0059 48.5645 32.0059 48.5645C32.0059 48.5645 30.8317 49.0049 30.5381 47.684C30.5381 47.684 29.6574 48.8581 28.9236 49.0049C28.0429 49.1516 29.8042 51.6491 29.8042 51.6491C29.8042 51.6491 27.4559 51.7959 26.5741 51.3555C25.6935 50.7684 24.0779 51.0619 22.7569 50.0345C21.4359 48.8592 24.6649 44.1602 24.6649 44.1602V44.1602Z" fill="#FFD15C"/>
<path d="M27.0137 51.5006C27.1604 51.5006 27.3072 51.3538 27.454 51.3538C27.7476 51.3538 28.041 51.207 28.3346 51.207H29.6578H29.2176H27.6019C27.3083 51.5006 27.1604 51.5006 27.0148 51.5006H27.0137Z" fill="#F5B54C"/>
<path d="M32.0072 48.4181C31.8605 48.4181 31.8605 48.4181 32.0072 48.4181C31.8605 48.2713 31.8605 48.2713 31.8605 48.1245V47.9777C31.8605 47.9777 31.8605 47.831 32.0072 47.831C32.0072 47.831 32.154 47.831 32.154 47.6842C32.154 47.6842 32.3008 47.6842 32.3008 47.5374V47.3906H32.0072C32.0072 47.3906 31.8605 47.3906 31.8605 47.5374L31.7137 47.6842C31.7137 47.6842 31.5669 47.831 31.7137 47.9777V48.1245L31.8605 48.2713H32.0072V48.4181V48.4181Z" fill="#F5B54C"/>
<path d="M25.3991 48.8582L39.7887 58.2551L47.5711 55.3196L33.7686 48.418L25.3991 48.5646C25.2524 48.5646 25.2524 48.8582 25.3991 48.8582V48.8582Z" fill="#425A6B"/>
<path d="M26.5742 49.0062L39.6416 57.5225L46.3966 55.0262L34.3555 48.8594L26.5742 49.0062Z" fill="#F3F3F3"/>
<path d="M23.6365 65.1548L3.52053 61.9258C3.52053 61.9258 2.05273 65.7419 2.05273 69.707H24.9574C24.9574 69.707 24.2236 66.3301 23.6365 65.1548V65.1548Z" fill="#425A6B"/>
<path d="M27.0134 14.3538C27.0134 14.3538 27.1602 16.5565 27.1602 16.85C27.3069 17.2903 27.4537 18.7582 26.573 18.6114C25.6924 18.4646 25.3988 18.3178 25.3988 18.3178C25.3988 18.3178 25.3988 19.7867 24.6649 19.3464C24.6649 19.3464 24.9586 20.0801 24.3715 20.2269C23.7844 20.3737 23.3429 21.1076 23.1961 21.6947C23.0494 22.2829 20.701 22.2829 19.2321 20.5205C19.2321 20.5205 18.4982 21.5491 18.2047 23.1636L17.9111 24.7781C17.9111 24.7781 10.2754 18.3189 10.2754 18.1721L10.4222 17.4382C10.4222 17.4382 12.0368 15.5291 12.6239 14.6485C13.211 13.9146 14.3862 12.0053 14.533 10.2429C14.6797 8.48158 14.6797 8.33487 14.6797 8.33487L20.9933 7.89453L27.0134 14.3538Z" fill="#FFD15C"/>
<path d="M17.0299 10.6822C17.7637 9.65476 19.3782 10.3887 19.2314 11.5629V11.7096L18.9379 13.0318L19.8185 13.3253C19.8185 13.3253 20.9939 11.2704 23.4902 11.564C25.9854 11.7107 25.9853 9.94841 25.9853 9.80164C25.9853 9.65486 20.1132 7.01172 19.9664 7.01172C19.8196 7.01172 14.9738 8.33274 14.9738 8.33274C14.9738 8.33274 14.9738 10.829 14.3867 12.0043C14.3867 12.0043 16.1481 11.8576 17.0288 10.6834L17.0299 10.6822Z" fill="#425A6B"/>
<path d="M31.5664 57.0789C31.5664 57.0789 31.5664 56.9321 31.7132 56.7853C31.7132 56.6385 31.86 56.6385 31.86 56.4917L32.0067 56.345L32.1535 56.1982L32.3003 56.0514L32.4471 55.9046L32.7406 55.6111L33.0342 55.3164C33.0342 55.3164 33.0342 55.4632 32.8874 55.61C32.8874 55.7567 32.7406 55.7568 32.7406 55.9035L32.5939 56.0503L32.4471 56.1971L32.3003 56.3439L32.1535 56.4906L31.86 56.7842L31.5664 57.0778V57.0789Z" fill="#F5B54C"/>
<path d="M33.6202 15.2339C33.0331 16.5548 30.6848 14.3533 30.6848 14.3533L30.0977 13.4727H31.1251C31.1251 13.6194 34.0606 13.9129 33.6202 15.2339V15.2339Z" fill="#F05640"/>
<path d="M20.553 9.80303C20.553 9.80303 22.7546 12.8853 24.517 14.0606C26.2783 15.2348 28.1875 15.3815 29.6564 14.9411C31.1241 14.5008 32.4452 14.0606 32.8867 14.3542C33.4738 14.6477 33.4736 15.2347 33.4736 15.2347C33.4736 15.2347 33.7672 14.9411 33.6204 14.5008C33.4736 14.0605 30.685 12.0057 29.95 10.9782L29.2161 10.0965L20.4062 9.65625L20.553 9.80303Z" fill="#F26F5A"/>
<path d="M14.9746 8.48028C14.9746 8.48028 16.1488 9.80118 20.7011 10.5351C25.2533 11.1222 29.9512 11.1222 29.9512 11.1222C29.9512 11.1222 30.6852 6.71788 28.3368 3.92804C25.9873 1.1382 22.4635 0.844567 20.8479 0.991341C18.3527 1.28489 15.1214 5.10224 14.9746 8.47917V8.48028Z" fill="#F05640"/>
<path d="M16.4434 11.7077C16.4434 10.4105 17.035 9.35938 17.7644 9.35938C18.4937 9.35938 19.0853 10.4105 19.0853 11.7077C19.0853 13.0061 18.4937 14.0573 17.7644 14.0573C17.035 14.0573 16.4434 13.0061 16.4434 11.7088V11.7077Z" fill="#FFD15C"/>
<path d="M19.3799 20.6667C19.3799 20.6667 18.6461 21.6942 18.3525 23.3087L18.059 24.9232C18.059 24.9232 17.9111 24.7764 17.7643 24.7764C16.5901 22.8683 14.5341 19.0512 15.5626 19.7862C16.4433 20.3733 16.7369 19.7862 16.7369 19.3447V18.6108C16.4433 17.5834 16.1497 15.9678 16.1497 14.0586C16.5901 14.9392 18.4981 19.1978 19.3788 20.6667H19.3799Z" fill="#F5B54C"/>
<path d="M11.0088 17.1406C11.0088 17.1406 11.4491 18.1681 12.0373 18.7552C12.6244 19.3434 16.1493 22.4268 17.1767 22.7203C18.2041 22.8671 18.9379 21.3993 18.9379 21.3993C18.9379 21.3993 22.3149 23.7477 22.9032 24.6283C23.4903 25.5101 23.7837 29.0338 23.7837 29.0338C23.7837 29.0338 25.8386 33.5861 25.1047 37.1098C24.5176 40.6335 24.5176 57.8128 24.6644 59.8688C24.8112 61.9237 24.9579 67.3566 24.9579 67.3566C24.9579 67.3566 21.8757 68.8243 15.2675 67.7969C8.51358 66.7694 4.10816 64.2731 3.22752 62.5107C3.22752 62.5107 3.8146 58.9881 2.93396 58.3999C2.05331 57.8128 1.61295 47.6809 1.75972 45.039C1.9065 42.3959 1.46616 39.7528 1.46616 39.7528C1.46616 39.7528 -0.00160229 33.586 0.879043 30.0623C1.75969 26.5375 3.81455 21.6929 11.0099 17.1406H11.0088Z" fill="#F26F5A"/>
<path d="M1.46541 39.7539C5.86976 40.341 10.1274 40.9281 12.3301 40.6346C12.3301 40.6346 11.1559 44.305 10.5688 45.1868C9.98168 46.0675 10.422 46.6546 10.422 46.6546C10.422 46.6546 13.7978 47.9755 15.4135 48.8562C17.028 49.738 20.8464 51.0601 22.7556 51.0601C24.6637 51.0601 27.0132 51.5004 27.0132 51.5004C27.0132 51.5004 29.068 51.3536 29.6551 51.2069C30.2433 51.0601 32.1526 51.3536 33.0332 51.6472C33.9139 51.9407 34.7945 52.3811 34.7945 52.3811L30.538 57.6672C30.538 57.6672 28.0406 56.6398 27.0132 56.0527H25.6922C25.2519 56.0527 19.084 55.9059 16.1474 55.9059C13.3587 55.9059 6.89719 54.2902 6.01654 54.1434C5.28267 53.9966 3.66818 53.85 3.08109 52.0875C2.78754 50.1795 1.17073 41.8087 1.46541 39.7539V39.7539Z" fill="#FFD15C"/>
<path d="M33.3281 47.095C33.3281 46.7445 33.4674 46.4083 33.7153 46.1604C33.9631 45.9126 34.2992 45.7734 34.6497 45.7734C35.0002 45.7734 35.3363 45.9126 35.5841 46.1604C35.832 46.4083 35.9713 46.7445 35.9713 47.095C35.9713 47.4453 35.8321 47.7813 35.5844 48.029C35.3367 48.2768 35.0006 48.4159 34.6502 48.4159C34.2999 48.4159 33.964 48.2768 33.7162 48.029C33.4685 47.7813 33.3294 47.4453 33.3294 47.095H33.3281Z" fill="#F5B54C"/>
<path d="M34.2085 46.6553C34.2085 46.6553 33.7681 46.8021 33.7681 47.0956C33.6214 47.3892 33.0344 48.4165 33.0344 48.4165L32.4473 48.123C32.4473 48.123 32.7408 47.0956 32.8876 46.8021C33.0344 46.5085 33.4746 45.1875 33.7681 45.1875C34.0617 45.1875 34.3553 45.3343 34.3553 45.3343L34.2085 46.6553Z" fill="#FFD15C"/>
<path d="M32.3008 47.5341C32.4476 47.5341 32.4476 47.3873 32.4476 47.3873L32.5943 47.2405C32.7411 47.2405 32.7411 47.0938 32.8879 47.0938H33.4749H33.0347C32.8879 47.0938 32.8879 47.2405 32.7411 47.2405C32.5943 47.2405 32.5943 47.2405 32.4476 47.3873H32.3008C32.4476 47.5341 32.4476 47.5341 32.3008 47.5341Z" fill="#F5B54C"/>
<path d="M42.4312 51.2091L37.1451 51.943L35.0902 52.0897C35.0902 52.0897 34.3562 51.5026 34.0627 51.0623V50.9155L33.4757 50.0348C33.4757 50.0348 32.3004 49.2998 32.4472 48.5659C32.4472 48.5659 31.86 48.4193 31.7133 48.1257C31.5665 47.8322 31.7133 47.5386 32.4472 47.3918C33.181 47.2451 33.4745 46.6568 33.9148 46.9515C34.2084 47.245 35.6762 47.8322 35.6762 47.8322C35.6762 47.8322 35.5294 47.5386 35.5294 47.2451L34.9423 46.6568C34.9423 46.6568 34.2084 46.8036 34.2084 46.6568L33.6213 45.189C33.6213 45.189 34.2084 45.0423 34.9423 45.3358C35.6761 45.6294 36.7047 45.9229 36.7047 45.9229C36.7047 45.9229 37.2919 46.0697 37.4386 46.5101C37.5854 46.9504 38.1724 47.8309 38.4659 48.2713C38.7595 48.7116 39.0542 49.7402 39.9348 50.1805C40.6687 50.3273 42.4312 51.208 42.4312 51.208V51.2091Z" fill="#FFD15C"/>
<path d="M32.3008 48.7109C32.4476 48.8577 32.5944 48.8577 32.8879 48.8577C33.0347 48.8577 33.3281 48.8577 33.4749 49.0045C33.6217 49.1513 33.7684 49.1513 33.9152 49.4448C33.9152 49.5916 33.9152 49.8852 33.7684 50.032C34.2088 49.8852 34.5024 50.032 34.9427 50.1787C35.2362 50.3255 35.5309 50.7659 35.383 51.2062C35.8245 51.353 36.4116 51.4997 36.8519 51.7944C36.2648 51.2073 35.5309 50.7669 35.2373 50.0331C35.0906 49.8863 35.0906 49.5927 34.9438 49.4459C34.6502 49.0056 34.2099 48.7109 34.0631 48.7109C33.476 48.7109 33.0347 48.8577 32.3008 48.7109V48.7109Z" fill="#F5B54C"/>
<path d="M33.3281 50.1792C33.3281 50.0324 33.3281 50.0324 33.7685 49.8857C34.062 49.7389 34.2088 49.4453 34.2088 49.4453C34.2088 49.4453 34.2088 50.0324 33.3281 50.1792V50.1792Z" fill="#F5B54C"/>
<path d="M35.5303 50.7656V50.9124C35.2367 51.4995 34.5028 51.3527 34.0625 51.0592V50.9124C35.2367 51.4995 35.5303 50.9124 35.5303 50.9124V50.7656Z" fill="#F5B54C"/>
<path d="M32.2994 48.7136V49.154H32.1526C31.4187 49.4475 30.538 49.7411 29.6562 49.7411C30.2433 49.154 30.8305 48.7138 31.5644 48.2734C31.8579 48.567 32.2983 48.7136 32.2983 48.7136H32.2994Z" fill="#67C5B8"/>
<path d="M39.3475 45.922L37.5863 46.6559L35.6771 47.5366L35.3835 47.6833C34.9432 47.5366 34.356 47.243 34.0625 47.0962L35.09 46.6559L36.8513 45.7752L38.9072 44.8945L39.3475 45.922Z" fill="#67C5B8"/>
<path d="M39.4934 45.6262L39.1998 45.773L38.9062 45.1858L39.1998 45.0391C39.3466 45.0391 39.4934 45.0391 39.6401 45.1858C39.7869 45.3326 39.6401 45.4794 39.4934 45.6262V45.6262Z" fill="#425A6B"/>
<path d="M54.0312 30.3594C54.0312 30.3594 55.0587 33.5884 54.3248 35.4976C53.5909 37.4068 55.7926 36.6719 55.9394 36.5251C56.0862 36.3783 60.3448 30.7997 60.3448 30.7997L54.0312 30.3594Z" fill="#FFD15C"/>
<path d="M53.7362 35.2018L55.204 34.0276C55.9379 33.4405 58.4353 31.9728 60.0498 31.9728C61.5175 31.826 63.5735 32.4131 63.5735 32.4131C63.5735 32.4131 69.1532 45.9208 69.1532 48.5638C69.1532 51.3526 68.4193 60.1636 68.7128 62.0717C68.8596 64.1266 67.6854 67.0642 68.1257 68.3852C68.566 69.5594 68.7128 69.853 68.7128 69.853L48.1565 70.0008C48.1565 70.0008 48.7436 59.5765 49.184 57.6674C49.6243 55.6125 48.8904 51.207 48.3033 50.1784C47.7162 49.151 47.4226 46.9494 48.8904 44.3052C50.3593 41.6632 51.827 40.0488 52.2673 39.0203C52.7076 37.9928 53.7351 35.2018 53.7351 35.2018H53.7362Z" fill="#E8EAE8"/>
<path d="M45.9555 17.7305L45.3684 18.1708C45.3684 18.1708 44.7813 20.815 45.3684 21.9891C45.9555 23.1633 46.5426 23.4568 46.5426 24.3375C46.5426 25.2193 47.4232 27.1285 48.157 28.0092C48.892 28.7431 49.1856 29.4769 49.3324 30.2107C49.4791 30.9446 50.6534 31.3861 51.8287 31.0925C53.0029 30.6522 52.856 22.4295 52.856 22.4295L45.9555 17.7305Z" fill="#FFD15C"/>
<path d="M45.3664 16.5537C45.3664 16.5537 45.0728 18.1683 45.6599 19.1968C46.247 20.0774 47.2743 20.3709 47.2743 20.3709C47.2743 20.3709 48.155 25.07 48.4486 26.2442C48.5965 27.2716 50.3589 31.3835 52.5605 32.1174C54.7632 32.8513 57.9934 32.5578 58.8741 32.9981C59.608 33.4384 59.9015 35.054 59.9015 35.054C59.9015 35.054 60.343 33.1459 59.608 32.2653C59.608 32.2653 62.1054 33.4395 63.4263 35.6411C64.7473 37.8438 68.2721 46.0666 67.9786 51.2059C67.9786 51.2059 69.006 50.3252 69.2996 48.5628C69.2996 48.5628 69.4463 51.4983 68.4189 53.7011C68.4189 53.7011 72.6766 47.2407 70.4738 40.1933C68.2722 33.1459 65.1888 28.1533 63.8667 24.6296C62.5457 21.1059 60.6376 15.2327 58.1402 13.03C55.645 10.8284 53.5891 10.9751 50.946 11.8557C48.0094 12.5896 45.8067 15.2316 45.3664 16.5537V16.5537Z" fill="#425A6B"/>
<path d="M50.3598 27.4202V28.4477C50.3598 28.5944 50.3598 28.7412 50.5066 28.7412C50.5066 28.888 50.6533 29.0347 50.6533 29.1814L51.0937 30.0621C51.2405 30.2089 51.2405 30.3557 51.3872 30.5025L51.534 30.6492L51.6808 30.7971L51.8276 30.9439C51.8276 30.9439 51.9742 31.0907 52.121 31.0907C52.121 31.0907 52.2678 31.2375 52.4146 31.2375L52.5613 31.3842C52.7081 31.3842 52.7081 31.531 52.8549 31.531C53.0017 31.531 53.0017 31.6778 53.1485 31.6778C53.2952 31.6778 53.2952 31.6778 53.442 31.8246H53.7367C54.177 31.9713 54.4706 31.9714 54.9109 31.9714C55.3512 31.9714 55.7916 32.1181 56.0852 32.1181C56.5255 32.1181 56.82 32.2649 57.2604 32.4117C57.5539 32.5596 57.9943 32.7064 58.141 32.8531C58.4346 32.9999 58.5814 33.2935 58.7282 33.4403C58.8749 33.7338 58.8749 33.8805 59.0217 34.0272C59.0217 33.8805 58.8749 33.587 58.7282 33.4403C58.5814 33.2935 58.4346 32.9999 58.141 32.8531L57.2604 32.4128C56.9668 32.266 56.5266 32.266 56.233 32.266H55.0588C54.6185 32.266 54.1781 32.266 53.7367 32.1192C53.2964 31.9725 52.8561 31.9724 52.4158 31.6789H52.269L52.1222 31.5321C51.9755 31.5321 51.9755 31.3853 51.8287 31.3853C51.6819 31.3853 51.6819 31.2386 51.5351 31.2386C51.3884 31.2386 51.3883 31.0918 51.2416 31.0918C51.0948 31.0918 51.0948 30.945 50.948 30.945C50.8001 30.945 50.8001 30.7982 50.6533 30.7982L50.213 30.3568C49.9195 30.0632 49.7727 29.7698 49.6259 29.4762C49.4791 29.3295 49.4791 29.1827 49.4791 29.0359C49.4791 28.8891 49.3323 28.7423 49.3323 28.5956C49.3323 28.4488 49.3323 28.302 49.1855 28.1552V27.4202V27.2734L50.3598 27.4202Z" fill="#425A6B"/>
<path d="M58.7297 30.9414L59.17 31.3817L60.1975 32.4092L61.6652 33.8769C61.9587 34.1704 62.1055 34.4651 62.3991 34.7586C62.6926 35.0522 62.8394 35.3458 63.1341 35.7861C63.2808 36.0796 63.5744 36.52 63.7212 36.8147C63.8679 37.1082 64.0147 37.5486 64.1615 37.8421C64.3083 38.1357 64.4551 38.5759 64.4551 38.8694C64.6018 39.163 64.6018 39.6033 64.6018 39.898V40.7787C64.6018 40.4851 64.6018 40.1915 64.4551 39.898C64.4551 39.6045 64.3083 39.311 64.1615 39.0175C64.0147 38.7239 63.8679 38.2836 63.7212 37.99C63.5744 37.6965 63.4276 37.2561 63.1341 36.9625C62.9873 36.6679 62.6937 36.2275 62.5469 35.934C62.2534 35.6404 62.1067 35.3469 61.8132 35.0533C61.5196 34.7598 61.3728 34.4663 61.0793 34.1728L59.6104 32.7039C59.1701 32.2635 58.7297 31.97 58.5829 31.6764L58.2894 31.3828L58.1426 31.235L58.7297 30.9414Z" fill="#425A6B"/>
<path d="M46.2474 16.6987L46.1006 16.8455V16.9923C46.1006 17.139 46.1006 16.9923 45.9538 17.139L45.8071 17.2858C45.8071 17.2858 45.807 17.4326 45.6603 17.4326C45.6603 17.4326 45.6603 17.5794 45.5135 17.5794C45.5135 17.5794 45.5135 17.7262 45.3667 17.7262C45.3667 17.7262 45.3667 17.874 45.2199 17.874C45.2199 18.0208 45.0732 18.0208 45.0732 18.1676C45.0732 18.3144 44.9264 18.4612 44.9264 18.4612C44.9264 18.6079 44.7796 18.7547 44.7796 18.7547C44.7796 18.9015 44.7796 19.0483 44.6328 19.0483V20.0756V19.0483V18.6079C44.6328 18.4612 44.6328 18.3144 44.7796 18.1676C44.7796 18.0208 44.9264 17.874 44.9264 17.7273C44.9264 17.5805 45.0732 17.4337 45.0732 17.4337C45.0732 17.4337 45.0732 17.2869 45.2199 17.2869C45.2199 17.2869 45.2199 17.1401 45.3667 17.1401C45.3667 17.1401 45.3667 16.9934 45.5135 16.9934C45.5135 16.9934 45.5135 16.8466 45.6603 16.8466C45.6603 16.8466 45.6603 16.6998 45.8071 16.6998L45.9538 16.553V16.4062H46.1006L46.2474 16.6987Z" fill="#425A6B"/>
<path d="M53.2959 48.1233C53.2959 48.1233 51.9749 42.3968 54.0298 40.0473C55.9378 37.6978 57.7003 38.2861 58.5809 38.8732C59.4616 39.4603 61.5175 41.2214 61.6643 43.571C61.811 45.9194 61.9578 53.7018 61.9578 55.1707C61.9578 56.6384 61.9578 62.3648 61.6643 63.5402C61.3707 64.7144 60.3433 65.008 59.0224 65.7419C57.7014 66.329 47.1292 68.0913 47.1292 68.0913C47.1292 68.0913 44.6328 65.5962 45.3678 61.3375C45.3678 61.3375 47.7162 61.4843 48.5969 61.044C49.4775 60.7504 55.939 59.5762 55.939 59.5762C55.939 59.5762 53.2959 52.2341 53.2959 48.1233Z" fill="#F3F3F3"/>
<path d="M37.5863 59.7211V59.8679L57.4075 58.5469L46.5418 61.6304L30.2441 62.2175L37.5863 59.7211Z" fill="#51B0E5"/>
<path d="M29.5098 53.9991L36.704 51.0625L37.5846 59.8712L30.2437 62.2208L29.5098 53.9991Z" fill="#F05640"/>
<path d="M29.5098 53.9991L36.704 51.0625L37.5846 59.8712L30.2437 62.2208L29.5098 53.9991Z" fill="#56BFEB"/>
<path d="M57.4069 58.5464L37.5858 59.8674L36.7051 51.0587L56.82 50.0312L57.4069 58.5464Z" fill="#8AD6F7"/>
<path d="M45.5135 65.3006C44.7796 65.3006 43.7522 65.1538 43.0183 65.3006C41.6962 65.4473 38.9064 65.3006 37.7322 65.007C36.558 64.7135 33.1799 63.9795 32.5928 63.8328C32.0057 63.686 31.125 63.6861 30.8315 62.8055C30.5379 61.9248 30.6847 59.2805 30.6847 59.2805C30.6847 59.2805 30.3912 58.4 30.9783 57.6661L31.5654 56.9322C31.5654 56.9322 31.5654 56.1983 31.7122 55.6112L32.4461 54.2891C32.4461 54.2891 33.3267 54.4359 33.0332 55.3165C33.0332 55.3165 34.2074 56.0503 32.7396 57.6649L32.1525 58.987V59.5741C32.1525 59.5741 32.4461 59.2806 33.0332 59.8677C33.6203 60.308 33.767 60.7483 34.3541 60.8962C34.9412 61.043 36.9972 60.8962 37.5854 61.3366C38.1725 61.7769 39.0531 62.2172 40.0805 62.2172C40.9612 62.2172 44.6328 61.7769 45.2199 61.7769C45.0731 63.0979 45.2199 64.4188 45.5135 65.3006V65.3006Z" fill="#FFD15C"/>
<path d="M12.3301 40.6341C12.4769 40.4873 12.4769 40.3405 12.4769 39.9002C12.4769 39.9002 17.4695 39.9003 18.4969 38.7261C18.4969 38.7261 14.9743 39.7534 12.4769 39.4598C12.4769 39.4598 12.7704 37.4051 12.9172 36.8168C13.064 36.2297 13.3574 34.027 13.7977 33.5867C14.2381 33.1464 15.707 29.1812 15.1199 27.1263C14.5328 25.0704 13.5054 23.6016 13.5054 23.6016C13.5054 23.6016 14.8263 26.3913 14.8263 27.2731C14.8263 28.007 14.8263 29.7683 14.5327 30.9436C14.2392 32.2645 13.2119 34.0269 13.2119 34.0269C13.2119 34.0269 12.478 38.2846 12.3312 40.6341H12.3301Z" fill="#F05640"/>
</g>
</g>
</g>
<defs>
<clipPath id="clip0_3104_974">
<rect width="71.13" height="70" fill="white"/>
</clipPath>
<clipPath id="clip1_3104_974">
<rect width="71.13" height="70" fill="white"/>
</clipPath>
<clipPath id="clip2_3104_974">
<rect width="71.129" height="70" fill="white"/>
</clipPath>
</defs>
</svg>
