<svg width="61" height="60" viewBox="0 0 61 60" fill="none" xmlns="http://www.w3.org/2000/svg">
<path d="M29.0881 0.366369L5.93056 12.6599C5.28821 13.0009 4.88672 13.6686 4.88672 14.396V45.2553C4.88672 46.5018 5.58715 47.6423 6.69861 48.2061L29.4074 59.724C30.132 60.0916 30.9884 60.0916 31.7128 59.724L54.4217 48.2061C55.5332 47.6423 56.2336 46.5016 56.2336 45.2553V14.396C56.2336 13.6686 55.8321 13.0009 55.1896 12.6599L32.0322 0.366369C31.1118 -0.122042 30.0087 -0.122042 29.0881 0.366369Z" fill="#FFCE94"/>
<path d="M30.5605 60C30.9557 60 31.3511 59.9082 31.7132 59.7244L54.4222 48.2064C55.5337 47.6427 56.2341 46.502 56.2341 45.2557V14.396C56.2341 14.0747 56.1521 13.7673 56.0093 13.4923L30.5605 27.0466V60Z" fill="#FCB043"/>
<path d="M30.5603 27.0466L5.11173 13.4921C4.96876 13.7671 4.88672 14.0746 4.88672 14.3958V45.2553C4.88672 46.5018 5.58715 47.6423 6.69861 48.2061L29.4074 59.724C29.7697 59.9078 30.1649 59.9996 30.5601 59.9996L30.5603 27.0466Z" fill="#E2791B"/>
<path d="M39.6341 4.40137L13.8789 18.1173V22.5061C13.8789 22.9273 14.1112 23.3141 14.4829 23.5123L18.9588 25.8979C19.314 26.0872 19.7427 25.8299 19.7427 25.4274V21.3313L45.5379 7.53552L39.6341 4.40137Z" fill="#DEF2FC"/>
<path d="M34.2705 51.2425L41.1414 47.9565C42.0211 47.5359 42.5721 46.6381 42.5489 45.6633L42.5483 45.6328C42.5292 44.8286 41.6755 44.3211 40.9598 44.6887L34.2707 48.124V51.2425H34.2705Z" fill="#403A46"/>
<path d="M34.2705 56.034L38.0436 54.2812C38.9369 53.8659 39.4997 52.961 39.4763 51.9761C39.4572 51.169 38.5986 50.6617 37.8825 51.0346L34.2705 52.9151V56.034Z" fill="#403A46"/>
<path d="M13.8779 18.1614V22.5061C13.8779 22.9273 14.1103 23.3142 14.4819 23.5124L18.9578 25.898C19.313 26.0872 19.7417 25.8299 19.7417 25.4274V21.3313L19.7854 21.3079C18.2694 20.5005 15.807 19.1888 13.8779 18.1614Z" fill="#B6C8CE"/>
</svg>
