<svg width="61" height="60" viewBox="0 0 61 60" fill="none" xmlns="http://www.w3.org/2000/svg">
<g clip-path="url(#clip0_3102_971)">
<path d="M60.4835 58.7782L51.8374 37.8477C51.7015 37.5187 51.3825 37.3043 51.0287 37.3043H10.0926C9.73877 37.3043 9.41967 37.5188 9.28385 37.8477L0.637634 58.7782C0.525017 59.0506 0.555017 59.3617 0.717674 59.6071C0.880213 59.8526 1.15361 60 1.44646 60H59.6748C59.9676 60 60.2411 59.8525 60.4036 59.6071C60.5662 59.3618 60.596 59.0507 60.4835 58.7782Z" fill="#A8EEFC"/>
<path d="M56.886 60H59.675C59.9678 60 60.2413 59.8525 60.4038 59.6071C60.5664 59.3618 60.5964 59.0507 60.4839 58.7782L51.8378 37.8477C51.7018 37.5187 51.3828 37.3043 51.0291 37.3043H47.5107L56.886 60Z" fill="#7EE5F2"/>
<path d="M14.9939 45.1982L17.9773 37.2847H10.0368C9.68305 37.2847 9.36394 37.4992 9.22812 37.8281L6.18359 45.1982H14.9939Z" fill="#4CE166"/>
<path d="M50.9728 37.2847H23.4014L31.4431 44.2971H54.4538L51.7816 37.8282C51.6455 37.4993 51.3266 37.2847 50.9728 37.2847Z" fill="#4CE166"/>
<path d="M54.6602 44.7972L54.8259 45.1982L54.6602 44.7972Z" fill="#4CE166"/>
<path d="M57.1132 50.7338L54.4545 44.2971H31.4437L23.402 37.2847H18.0074H17.3209L14.41 44.2954H6.55715L4.79324 48.5652L3.89746 50.7338H11.7586L7.93914 59.9804H15.0851L21.2199 44.9599L38.9112 59.9804H49.3559L38.7828 50.7338H57.1132Z" fill="#FFDB56"/>
<path d="M30.5055 0C20.0721 0 11.584 8.55199 11.584 19.0638C11.584 22.6877 12.5627 26.5325 14.4934 30.4914C16.0211 33.6243 18.1467 36.8384 20.811 40.0445C25.3311 45.4838 29.782 48.9758 29.9694 49.122C30.1274 49.2451 30.3164 49.3064 30.5055 49.3064C30.6947 49.3064 30.8838 49.2449 31.0417 49.122C31.2289 48.9758 35.6798 45.4838 40.2001 40.0445C42.8645 36.8384 44.9902 33.6243 46.5177 30.4914C48.4484 26.5324 49.4271 22.6877 49.4271 19.0638C49.4271 8.55199 40.939 0 30.5055 0ZM30.5055 11.8123C34.4805 11.8123 37.703 15.0589 37.703 19.0638C37.703 23.0687 34.4805 26.3154 30.5055 26.3154C26.5305 26.3154 23.3081 23.0687 23.3081 19.0638C23.3081 15.0589 26.5305 11.8123 30.5055 11.8123Z" fill="#FF4A4A"/>
<path d="M30.5048 0C29.8821 0 29.2666 0.0314062 28.6592 0.0908203C38.2296 1.02855 45.7352 9.1793 45.7352 19.0638C45.7352 22.6877 44.7564 26.5325 42.8257 30.4914C41.2981 33.6243 39.1724 36.8384 36.5082 40.0445C33.4081 43.7749 30.3411 46.5889 28.6592 48.0363C29.4297 48.6994 29.9098 49.076 29.9685 49.1218C30.1265 49.245 30.3155 49.3063 30.5046 49.3063C30.6938 49.3063 30.8829 49.2448 31.0408 49.1218C31.228 48.9757 35.6789 45.4836 40.1992 40.0444C42.8636 36.8382 44.9893 33.6241 46.5168 30.4912C48.4475 26.5323 49.4262 22.6876 49.4262 19.0637C49.4263 8.55199 40.9382 0 30.5048 0Z" fill="#E7343F"/>
<path d="M15.085 59.9804H38.9111L21.2197 44.9599L15.085 59.9804Z" fill="#4CE166"/>
<path d="M50.3516 44.2971L53.0104 50.7338H57.1129L54.4542 44.2971H50.3516Z" fill="#FFBB24"/>
<path d="M50.3517 44.2971H54.4543L51.7821 37.8282C51.6462 37.4992 51.3272 37.2849 50.9734 37.2849H47.4551L50.3517 44.2971Z" fill="#44C868"/>
</g>
<defs>
<clipPath id="clip0_3102_971">
<rect width="60" height="60" fill="white" transform="translate(0.560547)"/>
</clipPath>
</defs>
</svg>
