<svg width="55" height="56" viewBox="0 0 55 56" fill="none" xmlns="http://www.w3.org/2000/svg">
<g clip-path="url(#clip0_3104_1221)">
<g clip-path="url(#clip1_3104_1221)">
<g clip-path="url(#clip2_3104_1221)">
<path d="M27.5007 0.460938C16.3629 0.460938 7.33398 9.48987 7.33398 20.6276C7.33398 31.4644 25.9992 54.1675 26.7939 55.1282C26.9681 55.3389 27.2273 55.4609 27.5007 55.4609C27.774 55.4609 28.0332 55.3389 28.2074 55.1282C29.0022 54.1675 47.6673 31.4644 47.6673 20.6276C47.6673 9.48987 38.6384 0.460938 27.5007 0.460938ZM27.5007 53.0877C24.0512 48.7821 9.16732 29.6769 9.16732 20.6276C9.17889 10.5071 17.3803 2.30584 27.5007 2.29427C37.6211 2.30584 45.8224 10.5071 45.834 20.6276C45.834 29.6751 30.9501 48.7812 27.5007 53.0877Z" fill="black"/>
<path d="M39.9767 17.1499L28.06 7.98323C27.7304 7.72955 27.2713 7.72955 26.9417 7.98323L15.025 17.1499C14.6241 17.4589 14.5496 18.0346 14.8586 18.4355C15.0321 18.6606 15.3 18.7925 15.5842 18.7926H18.3342V28.8759C18.3342 29.3821 18.7446 29.7926 19.2509 29.7926H35.7508C36.2571 29.7926 36.6675 29.3821 36.6675 28.8759V18.7926H39.4175C39.9237 18.7923 40.334 18.3817 40.3337 17.8754C40.3336 17.5913 40.2017 17.3234 39.9767 17.1499ZM29.3342 27.9592H25.6675V22.4592H29.3342V27.9592ZM35.7508 16.9592C35.2446 16.9592 34.8342 17.3697 34.8342 17.8759V27.9592H31.1675V21.5426C31.1675 21.0363 30.7571 20.6259 30.2508 20.6259H24.7509C24.2446 20.6259 23.8342 21.0363 23.8342 21.5426V27.9592H20.1675V17.8759C20.1675 17.3697 19.7571 16.9592 19.2509 16.9592H18.2792L27.5009 9.86607L36.7225 16.9592H35.7508Z" fill="black"/>
</g>
</g>
</g>
<defs>
<clipPath id="clip0_3104_1221">
<rect y="0.460938" width="55" height="55" rx="27.5" fill="white"/>
</clipPath>
<clipPath id="clip1_3104_1221">
<rect width="55" height="55" fill="white" transform="translate(0 0.460938)"/>
</clipPath>
<clipPath id="clip2_3104_1221">
<rect width="55" height="55" fill="white" transform="translate(0 0.460938)"/>
</clipPath>
</defs>
</svg>
